<!DOCTYPE svg PUBLIC "-//W3C//DTD SVG 20010904//EN" "http://www.w3.org/TR/2001/REC-SVG-20010904/DTD/svg10.dtd">
<svg version="1.0" xmlns="http://www.w3.org/2000/svg" width="612px" height="306px" viewBox="0 0 6120 3060" preserveAspectRatio="xMidYMid meet">
<g id="layer101" fill="#033765" stroke="none">
<path d="M0 1530 l0 -1530 3060 0 3060 0 0 1530 0 1530 -3060 0 -3060 0 0 -1530z"/>
</g>
<g id="layer102" fill="#142d5e" stroke="none">
<path d="M0 1530 l0 -1530 3060 0 3060 0 0 1530 0 1530 -3060 0 -3060 0 0 -1530z m3909 871 l-1 -16 -5 13 c-2 6 -11 12 -19 12 -9 0 -13 4 -9 10 9 14 35 0 34 -19z m1106 6 l40 -14 6 -39 c3 -21 9 -48 13 -59 l7 -20 -15 27 -16 26 -20 -5 -20 -5 -53 35 c-29 20 -66 39 -80 42 -15 4 -27 12 -27 17 0 6 7 7 16 4 l15 -6 -6 10 -6 10 53 -4 c29 -2 71 -11 93 -19z m-2979 -157 c2 -14 6 -38 9 -55 3 -16 8 -41 10 -55 8 -48 22 -121 30 -155 2 -11 10 -42 16 -70 l11 -50 -13 -30 -12 -30 -7 42 -6 43 -23 24 c-13 14 -33 26 -44 28 l-20 3 -4 25 c-10 79 -13 104 -19 189 l-7 94 19 14 c10 8 27 12 38 11 l19 -3 3 -25z m235 -89 c-2 -97 -7 -124 -22 -116 -4 3 -26 -23 -49 -57 l-40 -63 5 94 c4 52 11 103 16 112 5 10 8 22 7 26 -2 9 12 85 18 94 2 4 18 6 35 4 l32 -2 -2 -92z m2748 67 l-1 -33 -7 25 c-5 14 -6 28 -4 33 9 15 13 6 12 -25z m-706 -298 c-7 -28 -13 -25 -13 6 0 14 4 23 9 20 5 -3 7 -15 4 -26z m747 5 c0 -14 -4 -25 -10 -25 -11 0 -14 33 -3 43 11 11 13 8 13 -18z m-759 -82 l-10 -18 -1 30 0 29 11 -11 11 -11 -11 -19z m-8 -73 c-7 -28 -13 -25 -13 6 0 14 4 23 9 20 5 -3 7 -15 4 -26z m-189 -834 c-3 -9 -10 -16 -15 -16 -5 0 -4 9 3 20 14 22 21 20 12 -4z m-3393 -76 l20 0 -6 -19 -5 -18 13 -11 c7 -6 27 -12 44 -14 43 -3 31 -18 -15 -19 l-37 0 20 -9 20 -9 -25 0 c-14 -1 -37 6 -50 15 l-25 16 24 -21 c26 -23 24 -35 -3 -25 -37 14 -47 93 -18 134 l17 25 3 -22 3 -23 20 0z m3474 -40 c-10 -11 -22 -20 -28 -20 -5 0 1 9 14 20 31 25 37 25 14 0z m-123 -22 l-11 -11 -23 11 -23 11 35 0 34 1 -12 -12z m-3182 -43 c0 -8 -7 -15 -16 -15 -8 0 -13 4 -9 9 3 6 -5 20 -17 32 l-23 21 33 -16 c17 -9 32 -23 32 -31z m-66 -4 c-17 -4 -36 -11 -42 -15 -7 -4 -18 -4 -24 0 l-13 8 25 7 c14 4 39 7 55 7 l30 0 -31 -7z"/>
</g>
<g id="layer103" fill="#01446c" stroke="none">
<path d="M0 1530 l0 -1530 3060 0 3060 0 0 1530 0 1530 -3060 0 -3060 0 0 -1530z m2080 893 c-25 -8 -56 -16 -70 -18 -14 -2 -34 -6 -45 -10 l-20 -7 25 21 c14 11 32 18 40 16 8 -3 21 -1 27 3 7 5 30 8 50 9 l38 0 -45 -14z m295 -9 l30 -12 -33 -1 -33 -1 6 10 6 10 -40 0 c-22 0 -43 -4 -46 -10 -8 -13 -25 -13 -25 -1 0 14 52 30 80 24 14 -3 39 -12 55 -19z m1534 -13 l-1 -16 -5 13 c-2 6 -11 12 -19 12 -9 0 -13 4 -9 10 9 14 35 0 34 -19z m1101 8 c51 -17 60 -28 58 -63 -1 -17 2 -40 6 -51 4 -11 0 -8 -8 7 l-16 26 -20 -5 -20 -5 -53 35 c-29 20 -66 39 -80 42 -15 4 -27 12 -27 17 0 6 7 7 16 4 l15 -6 -6 10 -6 10 53 -4 c29 -2 69 -10 88 -17z m-4079 -76 c5 -142 6 -330 1 -337 -3 -5 -9 -1 -13 10 l-8 19 0 -18 -1 -18 -10 6 c-5 3 -10 2 -10 -4 0 -5 10 -13 21 -16 l21 -7 -27 -18 -27 -18 14 -5 13 -5 -32 -7 c-17 -4 -34 -13 -37 -21 -3 -8 -2 -13 2 -12 4 1 26 -1 50 -5 l42 -7 0 -23 c0 -12 3 -45 6 -74 l7 -51 -30 -16 c-17 -8 -34 -12 -38 -8 -5 4 -5 2 -2 -4 l6 -11 -25 -12 c-14 -6 -27 -11 -29 -11 -7 0 -34 145 -31 165 2 11 8 33 15 48 6 15 11 42 11 60 0 52 6 101 15 120 4 9 5 24 2 32 -4 8 -2 17 3 20 6 4 10 17 10 30 0 13 5 27 10 30 6 3 10 12 10 18 l0 12 -10 -15 -9 -15 3 35 c2 19 7 43 11 53 4 9 5 25 3 35 -6 21 9 46 32 55 25 9 30 8 31 -10z m1105 -83 c2 -14 6 -38 9 -55 3 -16 8 -41 10 -55 8 -48 22 -121 30 -155 2 -11 10 -42 16 -70 l11 -50 -13 -30 -12 -30 -7 42 -6 43 -23 24 c-13 14 -33 26 -44 28 l-20 3 -4 25 c-10 79 -13 104 -19 189 l-7 94 19 14 c10 8 27 12 38 11 l19 -3 3 -25z m235 -89 c-2 -97 -7 -124 -22 -116 -4 3 -26 -23 -49 -57 l-40 -63 5 94 c4 52 11 103 16 112 5 10 8 22 7 26 -2 9 12 85 18 94 2 4 18 6 35 4 l32 -2 -2 -92z m2748 67 l-1 -33 -7 25 c-5 14 -6 28 -4 33 9 15 13 6 12 -25z m-706 -298 c-7 -28 -13 -25 -13 6 0 14 4 23 9 20 5 -3 7 -15 4 -26z m747 5 c0 -14 -4 -25 -10 -25 -11 0 -14 33 -3 43 11 11 13 8 13 -18z m-759 -82 l-10 -18 -1 30 0 29 11 -11 11 -11 -11 -19z m-8 -73 c-7 -28 -13 -25 -13 6 0 14 4 23 9 20 5 -3 7 -15 4 -26z m-189 -834 c-3 -9 -10 -16 -15 -16 -5 0 -4 9 3 20 14 22 21 20 12 -4z m-3393 -76 l20 0 -6 -19 -5 -18 13 -11 c7 -6 27 -12 44 -14 43 -3 31 -18 -15 -19 l-37 0 20 -9 20 -9 -25 0 c-14 -1 -37 6 -50 15 l-25 16 24 -21 c26 -23 24 -35 -3 -25 -37 14 -47 93 -18 134 l17 25 3 -22 3 -23 20 0z m3474 -40 c-10 -11 -22 -20 -28 -20 -5 0 1 9 14 20 31 25 37 25 14 0z m-123 -22 l-11 -11 -23 11 -23 11 35 0 34 1 -12 -12z m-3182 -43 c0 -8 -7 -15 -16 -15 -8 0 -13 4 -9 9 3 6 -5 20 -17 32 l-23 21 33 -16 c17 -9 32 -23 32 -31z m-66 -4 c-17 -4 -36 -11 -42 -15 -7 -4 -18 -4 -24 0 l-13 8 25 7 c14 4 39 7 55 7 l30 0 -31 -7z"/>
</g>
<g id="layer104" fill="#283161" stroke="none">
<path d="M0 1530 l0 -1530 3060 0 3060 0 0 1530 0 1530 -3060 0 -3060 0 0 -1530z m5674 934 c35 -14 20 -40 -70 -124 -23 -22 -74 -27 -74 -9 0 24 44 82 83 110 45 33 40 31 61 23z m-3594 -41 c-25 -8 -56 -16 -70 -18 -14 -2 -34 -6 -45 -10 l-20 -7 25 21 c14 11 32 18 40 16 8 -3 21 -1 27 3 7 5 30 8 50 9 l38 0 -45 -14z m295 -9 l30 -12 -33 -1 -33 -1 6 10 6 10 -40 0 c-22 0 -43 -4 -46 -10 -8 -13 -25 -13 -25 -1 0 14 52 30 80 24 14 -3 39 -12 55 -19z m1690 6 c4 -6 1 -18 -6 -26 l-12 -15 -9 9 c-11 11 -48 4 -48 -9 0 -5 -12 -9 -27 -9 -32 0 -97 36 -89 49 3 5 46 9 95 10 l89 2 7 -11z m976 -15 l29 -16 0 -35 c0 -19 6 -47 14 -62 23 -46 47 -152 62 -282 l5 -45 -47 -32 c-26 -18 -51 -30 -56 -27 -4 3 -8 21 -8 39 0 19 -7 83 -15 142 -8 59 -16 128 -19 153 -9 87 -23 107 -96 136 -25 9 -49 21 -55 26 l-10 9 15 10 15 10 68 -6 c38 -3 82 -12 98 -20z m-641 -5 c0 -19 -10 -25 -39 -20 -8 1 -25 -4 -38 -11 l-23 -13 -35 17 c-34 16 -42 27 -28 40 3 4 42 7 85 7 l78 0 0 -20z m-3783 -67 c1 -16 -1 -21 -4 -13 -3 8 -10 21 -16 28 l-9 12 14 0 14 0 1 -27z m314 0 c5 -142 6 -330 1 -337 -3 -5 -9 -1 -13 10 l-8 19 0 -18 -1 -18 -10 6 c-5 3 -10 2 -10 -4 0 -5 10 -13 21 -16 l21 -7 -27 -18 -27 -18 14 -5 13 -5 -32 -7 c-17 -4 -34 -13 -37 -21 -3 -8 -2 -13 2 -12 4 1 26 -1 50 -5 l42 -7 0 -23 c0 -12 3 -45 6 -74 l7 -51 -30 -16 c-17 -8 -34 -12 -38 -8 -5 4 -5 2 -2 -4 l6 -11 -34 -16 -33 -16 -7 60 c-4 32 -11 59 -16 59 -12 0 -11 37 1 45 6 4 10 12 9 18 -1 7 3 25 9 40 7 15 12 42 12 60 0 52 6 101 15 120 4 9 5 24 2 32 -4 8 -2 17 3 20 6 4 10 17 10 30 0 13 5 27 10 30 6 3 10 12 10 18 l0 12 -10 -15 -9 -15 3 35 c2 19 7 43 11 53 4 9 5 25 3 35 -6 21 9 46 32 55 25 9 30 8 31 -10z m3435 -25 c-3 -18 -23 -166 -45 -328 l-40 -295 6 -29 6 -29 -17 6 c-10 4 -22 7 -27 7 -5 0 -9 5 -9 10 0 6 -20 38 -45 72 -25 34 -45 69 -45 78 0 20 117 400 130 422 5 10 10 23 10 30 0 7 5 30 11 51 l10 37 31 0 30 0 -6 -32z m-2330 -58 c2 -14 21 -109 42 -213 l38 -187 -18 -28 -18 -27 0 31 c0 17 -7 46 -16 63 l-16 33 -33 14 -32 13 -6 44 c-3 24 -9 91 -13 150 l-7 106 13 16 13 16 25 -3 25 -3 3 -25z m237 -4 c-2 -3 -3 -51 -3 -106 l0 -100 -15 0 c-8 0 -31 -25 -51 -55 -20 -30 -39 -55 -42 -55 -15 0 19 250 43 317 l4 13 33 -4 c18 -2 32 -6 31 -10z m-1551 -511 c3 -14 1 -28 -3 -31 -5 -3 -9 9 -9 25 0 38 6 40 12 6z m4528 -27 l21 -33 -7 -35 c-3 -19 -9 -39 -14 -45 -4 -5 -10 -19 -12 -30 l-4 -20 -28 48 -28 48 5 35 c6 37 23 64 38 64 5 0 18 -15 29 -32z m-4475 -48 c8 -13 -5 -13 -25 0 l-15 10 17 0 c9 0 20 -4 23 -10z m3489 -616 l15 -6 -16 -24 -15 -24 16 -22 c9 -13 28 -38 41 -57 29 -39 31 -70 10 -111 -20 -39 -47 -52 -112 -55 l-53 -2 -11 13 c-6 8 -17 14 -25 14 -7 0 -17 7 -22 16 l-9 16 -48 4 c-26 2 -62 12 -79 22 l-31 18 0 19 0 18 25 8 c14 4 37 10 52 13 l28 6 6 26 6 25 -17 19 c-9 10 -14 24 -10 29 9 15 25 14 25 -2 0 -8 11 -23 23 -36 l24 -22 12 14 c6 8 9 22 5 31 -9 23 6 20 37 -10 l26 -25 6 31 7 31 32 14 c18 8 34 14 35 15 1 0 8 -3 17 -6z m-3564 -134 c-12 -23 -6 -40 16 -40 l14 0 0 -20 c0 -24 22 -36 78 -43 46 -6 72 -21 72 -43 l0 -14 -47 0 c-27 -1 -64 -2 -83 -3 -19 -1 -45 2 -58 7 -24 10 -52 57 -52 88 0 21 47 88 62 88 l9 0 -11 -20z"/>
<path d="M810 1843 c0 -10 4 -24 8 -31 l9 -13 0 31 c0 16 -4 30 -9 30 -4 0 -8 -8 -8 -17z"/>
<path d="M906 1744 c-4 -9 -4 -19 -1 -22 2 -3 7 3 11 12 4 9 4 19 1 22 -2 3 -7 -3 -11 -12z"/>
</g>
<g id="layer105" fill="#912019" stroke="none">
<path d="M0 1530 l0 -1530 3060 0 3060 0 0 1530 0 1530 -3060 0 -3060 0 0 -1530z m5674 934 c35 -14 20 -40 -70 -124 -23 -22 -74 -27 -74 -9 0 24 44 82 83 110 45 33 40 31 61 23z m-3554 -29 c0 -12 -64 -35 -114 -41 l-56 -7 0 16 0 16 38 6 c20 4 44 8 52 10 25 5 80 5 80 0z m305 -12 l30 -6 -20 -8 c-11 -4 -59 -8 -107 -8 l-88 -1 0 21 0 21 78 -7 c42 -3 91 -9 107 -12z m1640 -3 c4 -6 1 -18 -6 -26 l-12 -15 -9 9 c-11 11 -48 4 -48 -9 0 -5 -12 -9 -27 -9 -32 0 -97 36 -89 49 3 5 46 9 95 10 l89 2 7 -11z m975 -15 l30 -16 0 -35 c0 -19 6 -47 14 -62 23 -46 47 -152 62 -282 l5 -45 -47 -32 c-26 -18 -51 -30 -56 -27 -4 3 -8 21 -8 39 0 19 -7 83 -15 142 -8 59 -16 128 -19 153 -9 87 -23 107 -96 136 -55 21 -64 29 -55 44 l8 13 74 -7 c40 -3 87 -13 103 -21z m-640 -5 c0 -19 -10 -25 -39 -20 -8 1 -25 -4 -38 -11 l-23 -13 -35 17 c-34 16 -42 27 -28 40 3 4 42 7 85 7 l78 0 0 -20z m-3783 -67 c1 -16 -1 -21 -4 -13 -3 8 -10 21 -16 28 l-9 12 14 0 14 0 1 -27z m325 -155 c-1 -101 -4 -196 -7 -213 l-5 -30 -33 -19 -32 -18 20 -8 c11 -5 28 -11 38 -14 l18 -6 -3 -77 -3 -78 -55 -32 c-30 -18 -57 -33 -61 -33 -4 0 -10 26 -14 58 -4 31 -12 60 -18 64 l-10 6 17 69 c9 37 28 156 42 263 14 107 30 207 36 223 l10 27 32 0 31 0 -3 -182z m3424 130 c-3 -18 -23 -166 -45 -328 l-40 -295 6 -29 6 -29 -17 6 c-10 4 -22 7 -27 7 -5 0 -9 5 -9 10 0 6 -20 38 -45 72 -25 34 -45 69 -45 78 0 20 117 400 130 422 5 10 10 23 10 30 0 7 5 30 11 51 l10 37 31 0 30 0 -6 -32z m-2300 -203 c17 -93 36 -189 42 -212 l9 -41 -18 -29 -19 -28 0 31 c0 17 -7 46 -16 63 l-16 33 -33 14 -32 13 -6 44 c-11 81 -20 255 -13 272 l6 16 32 -3 31 -3 33 -170z m207 143 c-2 -5 -3 -53 -3 -108 l0 -100 -15 0 c-8 0 -31 -25 -51 -55 -20 -30 -39 -55 -42 -55 -15 0 19 251 43 318 l5 13 32 -3 c18 -2 32 -6 31 -10z m-1543 -433 c0 -2 -14 -12 -31 -21 l-31 -16 7 12 c4 6 17 15 29 20 27 11 26 11 26 5z m-8 -80 c3 -14 1 -28 -3 -31 -5 -3 -9 9 -9 25 0 38 6 40 12 6z m4528 -27 l21 -33 -7 -35 c-3 -19 -9 -39 -14 -45 -4 -5 -10 -19 -12 -30 l-4 -20 -28 48 -28 48 5 35 c6 37 23 64 38 64 5 0 18 -15 29 -32z m-4475 -48 c8 -13 -5 -13 -25 0 l-15 10 17 0 c9 0 20 -4 23 -10z m3489 -616 l15 -6 -16 -24 -15 -24 16 -22 c9 -13 28 -38 41 -57 29 -39 31 -70 10 -111 -20 -39 -47 -52 -112 -55 l-53 -2 -11 13 c-6 8 -17 14 -25 14 -7 0 -17 7 -22 16 l-9 16 -48 4 c-26 2 -62 12 -79 22 l-31 18 0 19 0 18 45 16 c25 9 51 20 58 24 17 11 15 37 -4 58 -17 19 -13 34 16 49 l18 10 -5 -20 -5 -19 20 -25 c22 -28 32 -25 32 11 0 29 8 29 41 -3 l26 -25 6 31 7 31 32 14 c18 8 34 14 35 15 1 0 8 -3 17 -6z m-3562 -139 l-4 -25 16 -6 c9 -3 16 -14 16 -25 0 -24 29 -39 76 -39 l37 0 19 -17 c10 -9 18 -22 18 -29 l0 -14 -47 0 c-27 -1 -64 -2 -83 -3 -48 -3 -78 11 -95 46 -21 42 -19 63 11 103 31 40 43 43 36 9z"/>
</g>
<g id="layer106" fill="#01578c" stroke="none">
<path d="M0 1530 l0 -1530 3060 0 3060 0 0 1530 0 1530 -3060 0 -3060 0 0 -1530z m5674 934 c35 -14 20 -40 -70 -124 -23 -22 -74 -27 -74 -9 0 24 44 82 83 110 45 33 40 31 61 23z m-3554 -29 c0 -12 -64 -35 -114 -41 l-56 -7 0 16 0 16 38 6 c20 4 44 8 52 10 25 5 80 5 80 0z m305 -12 l30 -6 -20 -8 c-11 -4 -59 -8 -107 -8 l-88 -1 0 21 0 21 78 -7 c42 -3 91 -9 107 -12z m1640 -3 c4 -6 1 -18 -6 -26 l-12 -15 -9 9 c-11 11 -48 4 -48 -9 0 -5 -12 -9 -27 -9 -32 0 -97 36 -89 49 3 5 46 9 95 10 l89 2 7 -11z m975 -15 l30 -16 0 -35 c0 -19 6 -47 14 -62 23 -46 47 -152 62 -282 l5 -45 -47 -32 c-26 -18 -51 -30 -56 -27 -4 3 -8 21 -8 39 0 19 -7 83 -15 142 -8 59 -16 128 -19 153 -9 87 -23 107 -96 136 -55 21 -64 29 -55 44 l8 13 74 -7 c40 -3 87 -13 103 -21z m-640 -5 c0 -19 -10 -25 -39 -20 -8 1 -25 -4 -38 -11 l-23 -13 -35 17 c-34 16 -42 27 -28 40 3 4 42 7 85 7 l78 0 0 -20z m-3783 -67 c1 -16 -1 -21 -4 -13 -3 8 -10 21 -16 28 l-9 12 14 0 14 0 1 -27z m325 -155 c-1 -101 -4 -197 -7 -213 l-5 -31 -32 -19 -32 -19 34 -11 35 -12 0 -79 0 -79 -55 -32 c-30 -18 -57 -33 -61 -33 -4 0 -10 26 -14 58 -4 31 -12 60 -18 64 l-10 6 17 69 c9 37 28 156 42 263 14 107 30 207 36 223 l10 27 32 0 31 0 -3 -182z m3424 130 c-3 -18 -23 -166 -45 -328 l-40 -295 6 -29 6 -29 -17 6 c-10 4 -22 7 -27 7 -5 0 -9 5 -9 10 0 6 -20 38 -45 72 -25 34 -45 69 -45 78 0 20 117 400 130 422 5 10 10 23 10 30 0 7 5 30 11 51 l10 37 31 0 30 0 -6 -32z m-2300 -203 c17 -93 36 -189 42 -212 l9 -41 -18 -29 -19 -28 0 31 c0 17 -7 46 -16 63 l-16 33 -33 14 -32 13 -6 44 c-11 81 -20 255 -13 272 l6 16 32 -3 31 -3 33 -170z m207 143 c-2 -5 -3 -53 -3 -108 l0 -100 -15 0 c-8 0 -31 -25 -51 -55 -20 -30 -39 -55 -42 -55 -15 0 19 251 43 318 l5 13 32 -3 c18 -2 32 -6 31 -10z m-1543 -433 c0 -2 -14 -12 -31 -21 l-31 -16 7 12 c4 6 17 15 29 20 27 11 26 11 26 5z m-8 -80 c3 -14 1 -28 -3 -31 -5 -3 -9 9 -9 25 0 38 6 40 12 6z m4528 -27 l21 -33 -7 -35 c-3 -19 -9 -39 -14 -45 -4 -5 -10 -19 -12 -30 l-4 -20 -28 48 -28 48 5 35 c6 37 23 64 38 64 5 0 18 -15 29 -32z m-4475 -48 c8 -13 -5 -13 -25 0 l-15 10 17 0 c9 0 20 -4 23 -10z m1141 -308 c6 -4 21 -58 33 -121 12 -62 25 -121 28 -130 l6 -16 -24 21 c-13 11 -45 33 -71 48 l-48 27 -6 26 -7 26 18 51 c26 73 41 88 71 68z m291 -362 c0 -36 4 -81 8 -101 l7 -37 -11 -21 c-7 -11 -19 -21 -27 -21 l-16 0 8 18 c5 9 8 39 8 66 l-1 49 -24 44 -24 43 19 35 19 35 16 -23 16 -22 2 -65z m-180 58 c36 -25 48 -47 35 -60 l-9 -9 -13 16 c-7 8 -20 15 -30 15 -18 0 -30 19 -30 46 0 19 8 18 47 -8z m2237 -4 l15 -6 -16 -24 -15 -24 16 -22 c9 -13 28 -38 41 -57 29 -39 31 -70 10 -111 -20 -39 -47 -52 -112 -55 l-53 -2 -11 13 c-6 8 -17 14 -25 14 -7 0 -17 7 -22 16 l-9 16 -48 4 c-26 2 -62 12 -79 22 l-31 18 0 19 0 18 45 16 c25 9 51 20 58 24 17 11 15 37 -4 58 -17 19 -13 34 16 49 l18 10 -5 -20 -5 -19 20 -25 c22 -28 32 -25 32 11 0 29 8 29 41 -3 l26 -25 6 31 7 31 32 14 c18 8 34 14 35 15 1 0 8 -3 17 -6z m-3562 -139 l-4 -25 16 -6 c9 -3 16 -14 16 -25 0 -24 29 -39 76 -39 l37 0 19 -17 c10 -9 18 -22 18 -29 l0 -14 -47 0 c-27 -1 -64 -2 -83 -3 -48 -3 -78 11 -95 46 -21 42 -19 63 11 103 31 40 43 43 36 9z"/>
<path d="M4164 919 c-1 -17 -11 -44 -23 -60 l-22 -29 25 0 26 0 16 25 17 26 -9 31 c-12 42 -29 46 -30 7z"/>
</g>
<g id="layer107" fill="#a82b23" stroke="none">
<path d="M0 1530 l0 -1530 3060 0 3060 0 0 1530 0 1530 -3060 0 -3060 0 0 -1530z m5674 934 c36 -14 10 -59 -70 -124 l-30 -25 -32 -165 c-18 -91 -33 -177 -33 -190 -1 -49 -20 -207 -36 -293 l-16 -87 -13 11 -13 11 -7 -42 -7 -43 -60 7 c-33 3 -72 6 -86 6 l-27 0 -33 55 -34 55 6 37 c4 20 15 46 26 56 l19 20 23 -44 23 -44 14 38 15 38 24 -6 c27 -6 28 -2 7 30 l-16 24 93 263 c51 145 98 268 104 273 7 6 22 27 35 48 12 22 41 52 63 68 45 33 40 31 61 23z m-3554 -29 c0 -12 -64 -35 -114 -41 l-56 -7 0 16 0 16 38 6 c20 4 44 8 52 10 25 5 80 5 80 0z m305 -12 l30 -6 -20 -8 c-11 -4 -59 -8 -107 -8 l-88 -1 0 21 0 21 78 -7 c42 -3 91 -9 107 -12z m1640 -3 c4 -6 1 -17 -5 -25 l-12 -14 -29 6 -29 6 0 -12 c0 -6 -12 -11 -27 -11 -32 0 -97 36 -89 49 3 5 46 9 95 10 l89 2 7 -11z m974 -15 l29 -14 5 -43 c2 -24 12 -63 22 -88 20 -54 55 -227 55 -275 l0 -35 -11 0 c-5 0 -26 -11 -46 -25 -20 -13 -39 -22 -43 -20 -4 2 -10 39 -14 82 -3 43 -15 136 -25 206 l-19 128 -16 18 c-10 10 -38 27 -64 36 -56 21 -67 29 -57 45 l8 13 74 -7 c40 -3 87 -12 102 -21z m-639 -5 c0 -19 -10 -25 -39 -20 -8 1 -25 -4 -38 -11 l-23 -13 -35 17 c-34 16 -42 27 -28 40 3 4 42 7 85 7 l78 0 0 -20z m-3766 -87 c8 -27 38 -135 67 -242 28 -106 59 -207 69 -223 l17 -29 11 43 c6 24 23 133 37 243 14 110 31 212 37 228 l10 27 32 0 31 0 -3 -182 c-1 -101 -4 -197 -7 -213 l-5 -31 -32 -19 -32 -19 34 -11 35 -12 0 -79 0 -79 -55 -32 -54 -33 -34 0 -33 0 -26 26 -25 25 6 50 c4 27 4 49 1 49 -3 0 -24 -9 -45 -20 l-40 -20 0 27 c0 16 -11 62 -24 103 -23 75 -39 177 -52 338 l-6 83 23 25 c33 35 45 30 63 -23z m3732 -5 c-22 -124 -84 -628 -79 -650 l5 -27 -98 6 -98 6 -47 29 -46 29 -22 87 -22 87 5 60 c2 33 5 135 5 228 l1 167 38 0 38 0 14 -37 15 -38 1 -177 2 -178 32 -50 c18 -28 34 -49 35 -48 2 2 142 454 161 521 l5 17 31 0 30 0 -6 -32z m-2301 -203 c18 -93 38 -189 45 -212 l13 -42 -18 -28 -19 -28 -12 48 c-14 55 -26 72 -63 90 l-26 12 -6 40 c-12 66 -22 262 -15 280 l6 16 32 -3 31 -3 32 -170z m208 143 c-2 -5 -3 -53 -3 -108 l0 -100 -13 0 c-7 0 -28 -25 -46 -55 -19 -31 -38 -58 -44 -62 l-10 -6 6 94 c6 80 25 191 42 237 l5 13 32 -3 c18 -2 32 -6 31 -10z m-357 -896 c6 -4 21 -58 33 -121 12 -62 25 -121 28 -130 l6 -16 -24 21 c-13 11 -45 33 -71 48 l-48 27 -6 26 -7 26 18 51 c26 73 41 88 71 68z m291 -362 c0 -36 4 -81 8 -101 l7 -37 -11 -21 c-7 -11 -19 -21 -27 -21 l-16 0 8 18 c5 9 8 39 8 66 l-1 49 -24 44 -24 43 19 35 19 35 16 -23 16 -22 2 -65z m-180 58 c36 -25 48 -47 35 -60 l-9 -9 -13 16 c-7 8 -20 15 -30 15 -18 0 -30 19 -30 46 0 19 8 18 47 -8z m2237 -4 l15 -6 -16 -24 -15 -24 16 -22 c9 -13 28 -38 41 -57 l25 -34 0 -37 0 -37 -22 -20 c-36 -32 -63 -43 -110 -43 l-44 0 -24 16 c-14 10 -30 24 -37 32 l-12 14 -47 4 c-25 2 -61 12 -78 22 l-31 18 0 19 0 18 45 16 c25 9 51 20 58 24 17 11 15 37 -4 58 -17 19 -13 34 16 49 l18 10 -5 -20 -5 -19 20 -25 c22 -28 32 -25 32 11 0 29 8 29 41 -3 l26 -25 6 31 7 31 32 14 c18 8 34 14 35 15 1 0 8 -3 17 -6z m1116 -36 c25 -42 25 -48 -1 -48 l-21 0 -20 -26 -20 -25 -26 3 -26 3 -18 31 -18 31 20 26 c20 25 39 33 88 36 l22 1 20 -32z m81 -100 l20 -33 -5 -39 c-6 -51 -21 -64 -89 -80 l-57 -13 -6 19 -6 19 16 24 c9 14 30 32 46 40 l30 16 0 19 c0 11 5 20 11 20 l10 0 -6 20 -6 20 10 0 c6 0 20 -15 32 -32z m-4759 -3 l-4 -25 16 -6 c9 -3 16 -14 16 -25 0 -24 29 -39 76 -39 l37 0 19 -17 c10 -9 18 -21 18 -28 l0 -12 -80 -6 -80 -6 -26 11 c-29 14 -54 56 -54 92 0 23 43 86 60 86 4 0 5 -11 2 -25z"/>
</g>
<g id="layer108" fill="#323e92" stroke="none">
<path d="M0 1530 l0 -1530 3060 0 3060 0 0 1530 0 1530 -3060 0 -3060 0 0 -1530z m5674 934 c36 -14 10 -59 -70 -124 l-30 -25 -32 -165 c-18 -91 -33 -177 -33 -190 -1 -49 -20 -207 -36 -293 l-16 -87 -13 11 -13 11 -7 -41 -7 -41 -36 0 c-20 0 -59 3 -87 6 l-51 6 -33 54 -33 54 6 37 c4 20 15 46 26 56 l19 20 23 -44 23 -44 14 38 15 38 24 -6 c27 -6 28 -2 7 30 l-16 24 93 263 c51 145 98 268 104 273 7 6 22 27 35 48 12 22 41 52 63 68 45 33 40 31 61 23z m-3554 -29 c0 -12 -64 -35 -114 -41 l-56 -7 0 16 0 16 38 6 c20 4 44 8 52 10 25 5 80 5 80 0z m305 -12 l30 -6 -20 -8 c-11 -4 -59 -8 -107 -8 l-88 -1 0 21 0 21 78 -7 c42 -3 91 -9 107 -12z m1640 -3 c4 -6 1 -17 -5 -25 l-12 -14 -29 6 -29 6 0 -12 c0 -6 -12 -11 -27 -11 -32 0 -97 36 -89 49 3 5 46 9 95 10 l89 2 7 -11z m974 -15 l29 -14 5 -43 c2 -24 12 -63 22 -88 20 -54 55 -227 55 -275 l0 -35 -11 0 c-5 0 -26 -11 -46 -25 -20 -13 -39 -22 -43 -20 -4 2 -10 39 -14 82 -3 43 -15 136 -25 206 l-19 128 -16 18 c-10 10 -38 27 -64 36 -56 21 -67 29 -57 45 l8 13 74 -7 c40 -3 87 -12 102 -21z m-639 -5 c0 -19 -10 -25 -39 -20 -8 1 -25 -4 -38 -11 l-23 -13 -35 17 c-34 16 -42 27 -28 40 3 4 42 7 85 7 l78 0 0 -20z m-3766 -87 c8 -27 38 -135 67 -242 28 -106 59 -207 69 -223 l17 -29 11 43 c6 24 23 133 37 243 14 110 31 212 37 228 l10 27 32 0 31 0 -3 -182 c-1 -101 -4 -198 -7 -215 l-6 -33 -32 -17 -32 -17 38 -10 37 -10 0 -80 0 -81 -57 -34 -57 -34 -28 0 c-15 0 -39 6 -53 13 l-24 13 -6 28 c-3 15 -3 43 1 63 l6 36 -8 0 c-5 0 -24 -9 -42 -20 -41 -25 -42 -25 -42 8 0 15 -11 61 -24 102 -23 75 -39 177 -52 338 l-6 83 23 25 c33 35 45 30 63 -23z m3732 -5 c-22 -124 -84 -628 -79 -650 l5 -27 -98 6 -99 6 -46 29 -46 28 -22 87 -22 88 5 60 c2 33 5 135 5 228 l1 167 38 0 38 0 14 -37 15 -38 1 -177 2 -178 32 -50 c18 -28 34 -49 35 -48 2 2 142 454 161 521 l5 17 31 0 30 0 -6 -32z m-2301 -203 c18 -93 38 -189 45 -212 l13 -42 -18 -28 -19 -28 -12 48 c-14 55 -26 72 -63 90 l-26 12 -6 40 c-12 66 -22 262 -15 280 l6 16 32 -3 31 -3 32 -170z m208 143 c-2 -5 -3 -53 -3 -108 l0 -100 -13 0 c-7 0 -28 -25 -46 -55 -19 -31 -38 -58 -44 -62 l-10 -6 6 94 c6 80 25 191 42 237 l5 13 32 -3 c18 -2 32 -6 31 -10z m-356 -896 c7 -4 22 -57 33 -117 12 -61 23 -118 26 -129 l6 -18 -38 26 c-21 14 -43 26 -49 26 -6 0 -25 13 -43 29 l-32 30 0 24 c0 14 12 50 26 81 l25 56 17 0 c9 0 22 -4 29 -8z m292 -365 c-1 -34 2 -79 6 -100 l7 -37 -16 -25 -16 -25 -22 0 -21 0 15 18 c8 9 18 25 21 35 9 24 -10 117 -28 137 -20 22 -19 51 2 88 l17 30 18 -29 18 -29 -1 -63z m-136 19 c8 -21 -11 -30 -36 -18 -12 6 -30 13 -39 16 l-18 5 0 36 0 36 44 -30 c24 -17 46 -37 49 -45z m2191 38 l15 -6 -16 -24 -15 -24 16 -22 c9 -13 28 -38 41 -57 l25 -34 0 -37 0 -37 -22 -20 c-36 -32 -63 -43 -110 -43 l-44 0 -24 16 c-14 10 -30 24 -37 32 l-12 14 -47 4 c-25 2 -61 12 -78 22 l-31 18 0 19 0 18 45 16 c25 9 51 20 58 24 17 11 15 37 -4 58 -17 19 -13 34 16 49 l18 10 -5 -20 -5 -19 20 -25 c22 -28 32 -25 32 11 0 29 8 29 41 -3 l26 -25 6 31 7 31 32 14 c18 8 34 14 35 15 1 0 8 -3 17 -6z m1116 -36 c25 -42 25 -48 -1 -48 l-21 0 -20 -26 -20 -25 -26 3 -26 3 -18 31 -18 31 20 26 c20 25 39 33 88 36 l22 1 20 -32z m81 -100 l20 -33 -5 -39 c-6 -51 -21 -64 -89 -80 l-57 -13 -6 19 -6 19 16 24 c9 14 30 32 46 40 l30 16 0 19 c0 11 5 20 11 20 l10 0 -6 20 -6 20 10 0 c6 0 20 -15 32 -32z m-4759 -3 l-4 -25 16 -6 c9 -3 16 -14 16 -25 0 -24 29 -39 76 -39 l37 0 19 -17 c10 -9 18 -21 18 -28 l0 -12 -80 -6 -80 -6 -26 11 c-29 14 -54 56 -54 92 0 23 43 86 60 86 4 0 5 -11 2 -25z"/>
</g>
<g id="layer109" fill="#bd2e25" stroke="none">
<path d="M0 1530 l0 -1530 3060 0 3060 0 0 1530 0 1530 -3060 0 -3060 0 0 -1530z m5674 934 c36 -14 10 -59 -70 -124 l-30 -25 -32 -165 c-18 -91 -33 -177 -33 -190 -1 -49 -20 -207 -36 -293 l-16 -87 -13 11 -13 11 -7 -41 -7 -41 -36 0 c-20 0 -59 3 -87 6 l-51 6 -33 54 -33 54 6 37 c4 20 15 46 26 56 l19 20 23 -44 23 -44 14 38 15 38 24 -6 c27 -6 28 -2 7 30 l-16 24 93 263 c51 145 98 268 104 273 7 6 22 27 35 48 12 22 41 52 63 68 45 33 40 31 61 23z m-4951 -29 c1 -6 -8 -11 -20 -13 -13 -2 -23 -7 -23 -12 0 -5 -12 -15 -27 -22 l-28 -14 1 -19 c3 -42 127 -480 144 -507 l17 -29 11 43 c6 24 24 138 40 253 17 116 37 228 45 250 l15 40 44 7 c63 10 158 9 158 -1 0 -4 -27 -14 -61 -20 l-60 -12 -20 -20 -19 -19 0 -182 c0 -101 -3 -193 -6 -206 -4 -12 -21 -30 -38 -40 l-31 -16 38 -10 37 -10 0 -80 0 -81 -57 -34 -57 -34 -28 0 c-15 0 -39 6 -53 13 l-24 13 -6 28 c-3 15 -3 43 1 63 l6 36 -8 0 c-5 0 -24 -9 -42 -20 -41 -25 -42 -25 -42 8 0 15 -11 61 -24 102 -29 92 -57 315 -61 484 0 6 14 13 30 18 17 4 43 18 60 32 l29 23 28 -1 c16 -1 29 -6 31 -11z m1397 0 c0 -12 -64 -35 -114 -41 l-56 -7 0 16 0 16 38 6 c20 4 44 8 52 10 25 5 80 5 80 0z m305 -12 l30 -6 -20 -8 c-11 -4 -59 -8 -107 -8 l-88 -1 0 21 0 21 78 -7 c42 -3 91 -9 107 -12z m1640 -3 c4 -6 1 -17 -5 -25 l-12 -14 -29 6 -29 6 0 -12 c0 -6 -12 -11 -27 -11 -32 0 -97 36 -89 49 3 5 46 9 95 10 l89 2 7 -11z m974 -15 l29 -14 5 -43 c2 -24 12 -63 22 -88 20 -54 55 -227 55 -275 l0 -35 -11 0 c-5 0 -26 -11 -46 -25 -20 -13 -39 -22 -43 -20 -4 2 -10 39 -14 82 -3 43 -15 136 -25 206 l-19 128 -16 18 c-10 10 -38 27 -64 36 -56 21 -67 29 -57 45 l8 13 74 -7 c40 -3 87 -12 102 -21z m-639 -5 c0 -19 -10 -25 -39 -20 -8 1 -25 -4 -38 -11 l-23 -13 -35 17 c-34 16 -42 27 -28 40 3 4 42 7 85 7 l78 0 0 -20z m-34 -92 c-22 -124 -84 -628 -79 -650 l5 -27 -98 6 -99 6 -46 29 -46 28 -22 87 -22 88 5 60 c2 33 5 135 5 228 l1 167 38 0 38 0 14 -37 15 -38 1 -177 2 -178 32 -50 c18 -28 34 -49 35 -48 2 2 142 454 161 521 l5 17 31 0 30 0 -6 -32z m-2301 -203 c18 -93 38 -189 45 -212 l13 -42 -18 -28 -19 -28 -12 48 c-14 55 -26 72 -63 90 l-26 12 -6 40 c-12 66 -22 262 -15 280 l6 16 32 -3 31 -3 32 -170z m208 143 c-2 -5 -3 -53 -3 -108 l0 -100 -13 0 c-7 0 -28 -25 -46 -55 -19 -31 -38 -58 -44 -62 l-10 -6 6 94 c6 80 25 191 42 237 l5 13 32 -3 c18 -2 32 -6 31 -10z m-356 -896 c7 -4 22 -57 33 -117 12 -61 23 -118 26 -129 l6 -18 -38 26 c-21 14 -43 26 -49 26 -6 0 -25 13 -43 29 l-32 30 0 24 c0 14 12 50 26 81 l25 56 17 0 c9 0 22 -4 29 -8z m292 -365 c-1 -34 2 -79 6 -100 l7 -37 -16 -25 -16 -25 -22 0 -21 0 15 18 c8 9 18 25 21 35 9 24 -10 117 -28 137 -20 22 -19 51 2 88 l17 30 18 -29 18 -29 -1 -63z m-136 19 c8 -21 -11 -30 -36 -18 -12 6 -30 13 -39 16 l-18 5 0 36 0 36 44 -30 c24 -17 46 -37 49 -45z m2191 38 l15 -6 -16 -24 -15 -24 16 -22 c9 -13 28 -38 41 -57 l25 -34 0 -37 0 -37 -22 -20 c-36 -32 -63 -43 -110 -43 l-44 0 -24 16 c-14 10 -30 24 -37 32 l-12 14 -47 4 c-25 2 -61 12 -78 22 l-31 18 0 19 0 18 45 16 c25 9 51 20 58 24 17 11 15 37 -4 58 -17 19 -13 34 16 49 l18 10 -5 -20 -5 -19 20 -25 c22 -28 32 -25 32 11 0 29 8 29 41 -3 l26 -25 6 31 7 31 32 14 c18 8 34 14 35 15 1 0 8 -3 17 -6z m1116 -36 c25 -42 25 -48 -1 -48 l-21 0 -20 -26 -20 -25 -26 3 -26 3 -18 31 -18 31 20 26 c20 25 39 33 88 36 l22 1 20 -32z m81 -100 l20 -33 -5 -39 c-6 -51 -21 -64 -89 -80 l-57 -13 -6 19 -6 19 16 24 c9 14 30 32 46 40 l30 16 0 19 c0 11 5 20 11 20 l10 0 -6 20 -6 20 10 0 c6 0 20 -15 32 -32z m-4759 -3 l-4 -25 16 -6 c9 -3 16 -14 16 -25 0 -24 29 -39 76 -39 l37 0 19 -17 c10 -9 18 -21 18 -28 l0 -12 -80 -6 -80 -6 -26 11 c-29 14 -54 56 -54 92 0 23 43 86 60 86 4 0 5 -11 2 -25z"/>
</g>
<g id="layer110" fill="#0190bc" stroke="none">
<path d="M0 1530 l0 -1530 3060 0 3060 0 0 1530 0 1530 -3060 0 -3060 0 0 -1530z m5674 934 c36 -14 10 -59 -70 -124 l-30 -25 -32 -165 c-18 -91 -33 -177 -33 -190 -1 -49 -20 -207 -36 -293 l-16 -87 -13 11 -13 11 -7 -42 -7 -42 -85 5 -84 4 -35 54 -34 54 5 39 4 39 20 20 20 20 23 -44 23 -44 14 38 15 38 24 -6 c27 -6 28 -2 7 30 l-16 24 93 263 c51 145 98 268 104 273 7 6 22 27 35 48 12 22 41 52 63 68 45 33 40 31 61 23z m-4951 -29 c1 -6 -8 -11 -20 -13 -13 -2 -23 -7 -23 -12 0 -5 -12 -15 -27 -22 l-28 -14 1 -19 c3 -42 127 -480 144 -507 l17 -29 11 43 c6 24 24 138 40 253 17 116 37 228 45 250 l15 40 44 7 c63 10 158 9 158 -1 0 -4 -27 -14 -61 -20 l-60 -12 -20 -20 -19 -19 0 -182 c0 -101 -3 -193 -6 -206 l-7 -23 -31 -16 -31 -17 38 -9 37 -9 0 -82 0 -82 -52 -31 c-29 -17 -63 -34 -75 -38 l-22 -6 -35 16 -35 17 -7 34 c-3 19 -4 48 0 64 7 35 1 37 -39 10 -39 -26 -45 -25 -45 8 0 15 -11 61 -24 102 -29 92 -57 315 -61 484 0 6 14 13 30 18 17 4 43 18 60 32 l29 23 28 -1 c16 -1 29 -6 31 -11z m1397 0 c0 -12 -64 -35 -114 -41 l-56 -7 0 16 0 16 38 6 c20 4 44 8 52 10 25 5 80 5 80 0z m305 -12 l30 -6 -20 -8 c-11 -4 -59 -8 -107 -8 l-88 -1 0 21 0 21 78 -7 c42 -3 91 -9 107 -12z m1640 -3 c4 -6 1 -17 -5 -25 l-12 -14 -29 6 -29 6 0 -12 c0 -6 -12 -11 -27 -11 -32 0 -97 36 -89 49 3 5 46 9 95 10 l89 2 7 -11z m974 -15 l29 -14 5 -43 c2 -24 12 -63 22 -88 20 -54 55 -227 55 -275 l0 -35 -11 0 c-5 0 -26 -11 -46 -25 -20 -13 -39 -22 -43 -20 -4 2 -10 39 -14 82 -3 43 -15 136 -25 206 l-19 128 -16 18 c-10 10 -38 27 -64 36 -56 21 -67 29 -57 45 l8 13 74 -7 c40 -3 87 -12 102 -21z m-639 -5 c0 -19 -10 -25 -39 -20 -8 1 -25 -4 -38 -11 l-23 -13 -35 17 c-34 16 -42 27 -28 40 3 4 42 7 85 7 l78 0 0 -20z m-34 -92 c-22 -124 -84 -628 -79 -650 l5 -27 -98 6 -99 6 -46 29 -46 28 -22 87 -22 88 5 60 c2 33 5 135 5 228 l1 167 38 0 38 0 14 -37 15 -38 1 -177 2 -178 32 -50 c18 -28 34 -49 35 -48 2 2 142 454 161 521 l5 17 31 0 30 0 -6 -32z m-2301 -203 c18 -93 38 -189 45 -212 l13 -42 -18 -28 -19 -28 -12 48 c-14 55 -26 72 -63 90 l-26 12 -6 40 c-12 66 -22 262 -15 280 l6 16 32 -3 31 -3 32 -170z m208 143 c-2 -5 -3 -53 -3 -108 l0 -100 -13 0 c-7 0 -28 -25 -46 -55 -19 -31 -38 -58 -44 -62 l-10 -6 6 94 c6 80 25 191 42 237 l5 13 32 -3 c18 -2 32 -6 31 -10z m-355 -897 l14 -8 24 -118 c30 -148 31 -153 53 -160 10 -3 30 -19 46 -35 l28 -30 -16 -18 c-25 -27 -21 -40 18 -63 l35 -21 0 -27 c0 -15 6 -36 14 -46 l14 -19 16 13 16 13 0 52 0 52 -20 39 c-24 48 -25 78 -4 111 l17 25 18 -31 19 -31 -1 -57 c-1 -31 2 -78 6 -103 l7 -46 -36 -41 -37 -41 -28 -6 c-15 -3 -41 -1 -57 5 -38 14 -104 79 -104 102 0 9 -5 28 -11 42 l-12 25 -38 15 -39 16 -6 25 c-3 14 -3 38 0 53 4 15 8 34 9 42 l2 14 -40 21 -40 21 -3 20 c-2 11 18 61 43 112 l46 92 17 0 c9 0 23 -4 30 -9z m2346 -307 l15 -6 -16 -24 -15 -24 16 -22 c9 -13 28 -38 41 -57 l25 -34 0 -37 0 -37 -22 -20 c-36 -32 -63 -43 -110 -43 l-44 0 -24 16 c-14 10 -30 24 -37 32 l-12 14 -47 4 c-25 2 -61 12 -78 22 l-31 18 0 19 0 18 45 16 c25 9 51 20 58 24 17 11 15 37 -4 58 -17 19 -13 34 16 49 l18 10 -5 -20 -5 -19 20 -25 c22 -28 32 -25 32 11 0 29 8 29 41 -3 l26 -25 6 31 7 31 32 14 c18 8 34 14 35 15 1 0 8 -3 17 -6z m1116 -36 c25 -42 25 -48 -1 -48 l-21 0 -20 -26 -20 -25 -26 3 -26 3 -18 31 -18 31 20 26 c20 25 39 33 88 36 l22 1 20 -32z m81 -100 l20 -33 -5 -39 c-6 -51 -21 -64 -89 -80 l-57 -13 -6 19 -6 19 16 24 c9 14 30 32 46 40 l30 16 0 19 c0 11 5 20 11 20 l10 0 -6 20 -6 20 10 0 c6 0 20 -15 32 -32z m-4759 -3 l-4 -25 16 -6 c9 -3 16 -14 16 -25 0 -24 29 -39 76 -39 l37 0 19 -17 c10 -9 18 -21 18 -28 l0 -12 -80 -6 -80 -6 -26 11 c-29 14 -54 56 -54 92 0 23 43 86 60 86 4 0 5 -11 2 -25z"/>
</g>
<g id="layer111" fill="#fe6559" stroke="none">
<path d="M0 1530 l0 -1530 3060 0 3060 0 0 1530 0 1530 -3060 0 -3060 0 0 -1530z m5674 934 c36 -14 10 -59 -70 -124 l-30 -25 -32 -165 c-18 -91 -33 -177 -33 -190 -1 -50 -21 -217 -35 -299 -8 -46 -14 -86 -14 -89 0 -2 -7 1 -15 8 l-15 12 0 -23 c0 -13 -4 -30 -9 -37 l-8 -14 -84 5 -84 4 -32 54 -33 54 0 32 0 32 24 27 23 28 24 -44 23 -45 14 38 15 37 18 0 c22 0 23 4 8 28 l-12 18 94 265 c51 145 98 269 104 274 7 6 22 27 35 48 12 22 41 52 63 68 45 33 40 31 61 23z m-4951 -29 c1 -6 -8 -11 -20 -13 -13 -2 -23 -7 -23 -12 0 -5 -12 -15 -27 -22 l-28 -14 1 -19 c3 -42 127 -480 144 -507 l17 -29 11 43 c6 24 24 138 40 253 17 116 37 228 45 250 l15 40 44 7 c63 10 158 9 158 -1 0 -4 -27 -14 -61 -20 l-60 -12 -20 -20 -19 -19 0 -182 c0 -101 -3 -193 -6 -206 l-7 -23 -31 -16 -31 -17 38 -9 37 -9 0 -82 0 -82 -52 -31 c-29 -17 -63 -34 -75 -38 l-22 -6 -35 16 -35 17 -7 34 c-3 19 -4 48 0 64 7 35 1 37 -39 10 -39 -26 -45 -25 -45 8 0 15 -11 61 -24 102 -29 92 -57 315 -61 484 0 6 14 13 30 18 17 4 43 18 60 32 l29 23 28 -1 c16 -1 29 -6 31 -11z m1397 0 c0 -12 -64 -35 -114 -41 l-56 -7 0 16 0 16 38 6 c20 4 44 8 52 10 25 5 80 5 80 0z m305 -12 l30 -6 -20 -8 c-11 -4 -59 -8 -107 -8 l-88 -1 0 21 0 21 78 -7 c42 -3 91 -9 107 -12z m1640 -3 c4 -6 1 -17 -5 -25 l-12 -14 -29 6 -29 6 0 -12 c0 -6 -12 -11 -27 -11 -32 0 -97 36 -89 49 3 5 46 9 95 10 l89 2 7 -11z m974 -15 l29 -14 5 -43 c2 -24 12 -63 22 -88 20 -53 55 -227 55 -273 l0 -33 -50 -27 -50 -27 -4 12 c-3 7 -7 45 -11 83 -3 39 -14 128 -24 198 l-19 128 -16 18 c-10 10 -38 27 -64 36 -56 21 -67 29 -57 45 l8 13 74 -7 c40 -3 87 -12 102 -21z m-639 -5 c0 -19 -10 -25 -39 -20 -8 1 -25 -4 -38 -11 l-23 -13 -35 17 c-34 16 -42 27 -28 40 3 4 42 7 85 7 l78 0 0 -20z m-34 -92 c-21 -119 -85 -631 -80 -645 3 -10 11 -28 17 -41 l10 -22 -43 -178 c-48 -196 -66 -246 -111 -303 -34 -43 -44 -47 -71 -22 l-18 16 -22 -10 -23 -10 -33 46 c-43 60 -45 74 -24 150 l19 64 28 -39 c16 -21 30 -41 32 -43 2 -2 11 5 21 17 11 12 21 19 25 16 3 -3 8 -1 11 5 4 5 -15 36 -42 67 l-48 58 49 88 49 88 -6 15 c-3 8 -27 28 -54 45 l-49 30 -21 82 -21 83 6 233 6 233 40 -3 41 -3 9 -30 c6 -16 11 -112 13 -213 l2 -182 32 -51 c18 -27 34 -48 35 -47 2 2 142 454 161 521 l5 17 31 0 30 0 -6 -32z m-2300 -205 c17 -94 37 -188 44 -209 l13 -38 17 21 17 21 6 104 c4 57 15 137 25 178 l17 75 34 0 34 0 -2 -105 -2 -106 123 -81 c68 -44 124 -79 126 -78 2 2 -1 12 -7 23 -6 12 -11 41 -11 65 l0 44 19 17 c10 9 34 19 54 23 l35 5 53 -28 c29 -16 70 -45 91 -65 l38 -36 0 -37 0 -37 -24 -24 -23 -23 -47 -7 -46 -7 120 -80 c66 -44 120 -86 120 -94 0 -17 -140 -234 -152 -234 -4 0 -8 16 -8 36 l0 36 -29 29 -29 29 -27 0 c-14 0 -39 -7 -54 -15 l-28 -14 -47 -74 -46 -75 0 -32 0 -32 30 -30 31 -30 49 4 50 5 0 -10 c0 -5 -10 -22 -22 -37 -13 -16 -39 -52 -58 -80 -40 -59 -69 -90 -84 -90 -12 1 -40 18 -275 164 l-159 99 -12 46 -11 46 21 17 c12 10 36 18 52 18 l30 0 5 20 c7 27 76 67 141 80 53 12 87 34 77 51 -9 14 -52 11 -93 -7 -51 -22 -132 -44 -164 -44 l-27 0 -13 -19 c-7 -10 -27 -25 -43 -33 -17 -9 -39 -26 -49 -37 l-20 -22 13 -77 c22 -130 49 -236 62 -241 7 -2 28 -18 48 -36 l36 -33 -18 -19 c-25 -28 -21 -41 18 -64 l35 -21 0 -27 c0 -15 6 -36 14 -46 l14 -19 16 13 16 13 0 52 0 52 -20 39 c-24 48 -25 78 -4 111 l17 25 18 -31 19 -31 -1 -57 c-1 -31 2 -78 6 -103 l7 -46 -36 -41 -37 -41 -28 -6 c-15 -3 -41 -1 -57 5 -38 14 -104 79 -104 102 0 9 -5 28 -11 42 l-12 25 -38 15 -39 16 -6 25 c-3 14 -3 38 0 53 4 15 8 34 9 42 l2 14 -40 21 -40 21 -3 21 c-2 11 19 63 46 117 l49 96 -24 18 -24 17 70 105 c39 58 71 112 71 122 l0 16 -51 -1 -51 -2 -24 28 -24 28 0 33 0 33 50 77 50 77 31 11 31 11 -6 51 c-11 101 -19 254 -13 271 l7 16 32 -3 31 -3 33 -172z m2198 -1059 l15 -6 -16 -24 -15 -24 16 -22 c9 -13 28 -38 41 -57 l25 -34 0 -37 0 -37 -22 -20 c-36 -32 -63 -43 -110 -43 l-44 0 -24 16 c-14 10 -30 24 -37 32 l-12 14 -47 4 c-25 2 -61 12 -78 22 l-31 18 0 19 0 18 45 16 c25 9 51 20 58 24 17 11 15 37 -4 58 -17 19 -13 34 16 49 l18 10 -5 -20 -5 -19 20 -25 c22 -28 32 -25 32 11 0 29 8 29 41 -3 l26 -25 6 31 7 31 32 14 c18 8 34 14 35 15 1 0 8 -3 17 -6z m1116 -36 c25 -42 25 -48 -1 -48 l-21 0 -20 -26 -20 -25 -26 3 -26 3 -18 31 -18 31 20 26 c20 25 39 33 88 36 l22 1 20 -32z m80 -100 l20 -33 0 -36 0 -36 -19 -17 c-11 -10 -34 -22 -53 -26 -18 -5 -43 -12 -55 -15 l-21 -7 -7 22 -7 21 16 24 c9 14 30 32 46 40 l30 16 0 19 c0 11 5 20 11 20 l10 0 -6 20 -6 20 10 0 c6 0 20 -15 31 -32z m-4758 -3 l-4 -25 16 -6 c9 -3 16 -14 16 -25 0 -24 29 -39 76 -39 l37 0 19 -17 c10 -9 18 -21 18 -28 l0 -12 -80 -6 -80 -6 -26 11 c-29 14 -54 56 -54 92 0 23 43 86 60 86 4 0 5 -11 2 -25z"/>
</g>
<g id="layer112" fill="#eabc29" stroke="none">
<path d="M0 1530 l0 -1530 3060 0 3060 0 0 1530 0 1530 -3060 0 -3060 0 0 -1530z m5674 934 c36 -14 10 -59 -70 -124 l-30 -25 -32 -165 c-18 -91 -33 -177 -33 -190 -1 -50 -21 -217 -35 -299 -8 -46 -14 -86 -14 -89 0 -2 -7 1 -15 8 l-15 12 0 -26 0 -26 -35 -36 -36 -36 -31 6 c-41 8 -81 46 -119 112 l-29 51 0 31 0 31 24 27 23 28 24 -44 23 -45 14 38 15 37 18 0 c22 0 23 4 8 28 l-12 18 94 265 c51 145 98 269 104 274 7 6 22 27 35 48 12 22 41 52 63 68 45 33 40 31 61 23z m-4951 -29 c1 -6 -8 -11 -20 -13 -13 -2 -23 -7 -23 -12 0 -5 -12 -15 -27 -22 l-28 -14 1 -19 c3 -42 127 -480 144 -507 l17 -29 11 43 c6 24 24 138 40 253 17 116 37 228 45 250 l15 40 44 7 c63 10 158 9 158 -1 0 -4 -27 -14 -61 -20 l-60 -12 -20 -20 -19 -19 0 -184 c0 -101 -3 -191 -6 -200 l-6 -16 12 0 c7 0 42 18 77 41 35 22 72 39 81 37 l16 -3 65 -113 c36 -61 68 -112 72 -112 3 0 9 19 12 42 l6 43 26 22 c53 46 98 22 160 -81 l35 -60 0 -28 0 -29 -25 -24 -24 -25 -38 0 c-21 0 -49 7 -61 16 -12 8 -22 12 -22 8 0 -4 30 -58 66 -121 l67 -114 -11 -23 -10 -23 -112 -65 -112 -65 47 -7 48 -8 23 -23 24 -24 0 -26 c0 -43 -17 -62 -91 -106 l-70 -42 -31 1 -30 1 -24 22 -24 22 0 31 c0 17 7 44 15 60 9 16 14 31 11 33 -2 2 -49 -23 -104 -57 -55 -33 -108 -60 -118 -60 -11 0 -31 8 -47 18 l-27 17 -111 190 -111 190 28 20 c47 34 74 63 74 81 l0 17 -41 -6 -41 -5 -25 -24 -24 -23 -20 25 c-45 58 -34 95 42 141 l49 31 0 31 c0 18 -11 66 -24 107 -29 92 -57 315 -61 484 0 6 14 13 30 18 17 4 43 18 60 32 l29 23 28 -1 c16 -1 29 -6 31 -11z m1397 0 c0 -12 -64 -35 -114 -41 l-56 -7 0 16 0 16 38 6 c20 4 44 8 52 10 25 5 80 5 80 0z m305 -12 l30 -6 -20 -8 c-11 -4 -59 -8 -107 -8 l-88 -1 0 21 0 21 78 -7 c42 -3 91 -9 107 -12z m1640 -3 c4 -6 1 -17 -5 -25 l-12 -14 -29 6 -29 6 0 -12 c0 -6 -12 -11 -27 -11 -32 0 -97 36 -89 49 3 5 46 9 95 10 l89 2 7 -11z m974 -15 l29 -14 5 -43 c2 -24 12 -63 22 -88 20 -53 55 -227 55 -273 l0 -33 -50 -27 -50 -27 -4 12 c-3 7 -7 45 -11 83 -3 39 -14 128 -24 198 l-19 128 -16 18 c-10 10 -38 27 -64 36 -56 21 -67 29 -57 45 l8 13 74 -7 c40 -3 87 -12 102 -21z m-639 -5 c0 -19 -10 -25 -39 -20 -8 1 -25 -4 -38 -11 l-23 -13 -35 17 c-34 16 -42 27 -28 40 3 4 42 7 85 7 l78 0 0 -20z m-34 -92 c-21 -119 -85 -631 -80 -645 3 -10 11 -28 17 -41 l10 -22 -43 -178 c-48 -196 -66 -246 -111 -303 -34 -43 -44 -47 -71 -22 l-18 16 -22 -10 -23 -10 -33 46 c-43 60 -45 74 -24 150 l19 64 28 -39 c16 -21 30 -41 32 -43 2 -2 11 5 21 17 11 12 21 19 25 16 3 -3 8 -1 11 5 4 5 -15 36 -42 67 l-48 58 49 88 49 88 -6 15 c-3 8 -27 28 -54 45 l-49 30 -21 82 -21 83 6 233 6 233 40 -3 41 -3 9 -30 c6 -16 11 -112 13 -213 l2 -182 32 -51 c18 -27 34 -48 35 -47 2 2 142 454 161 521 l5 17 31 0 30 0 -6 -32z m-2300 -205 c17 -94 37 -188 44 -209 l13 -38 17 21 17 21 6 104 c4 57 15 137 25 178 l17 75 34 0 34 0 -2 -105 -2 -106 123 -81 c68 -44 124 -79 126 -78 2 2 -1 12 -7 23 -6 12 -11 41 -11 65 l0 44 19 17 c10 9 34 19 54 23 l35 5 53 -28 c29 -16 70 -45 91 -65 l38 -36 0 -37 0 -37 -24 -24 -23 -23 -47 -7 -46 -7 120 -80 c66 -44 120 -86 120 -94 0 -17 -140 -234 -152 -234 -4 0 -8 16 -8 36 l0 36 -29 29 -29 29 -27 0 c-14 0 -39 -7 -54 -15 l-28 -14 -47 -74 -46 -75 0 -32 0 -32 30 -30 31 -30 49 4 50 5 0 -9 c0 -6 -9 -22 -21 -36 -43 -56 -99 -136 -99 -142 0 -4 -11 -12 -24 -19 l-23 -13 -54 31 c-30 18 -106 65 -170 105 l-116 73 0 -62 1 -63 -17 -26 c-10 -14 -24 -26 -33 -26 l-15 0 11 -21 12 -21 -17 -18 -17 -19 9 -16 c5 -9 20 -22 33 -28 l24 -12 11 -42 c5 -23 14 -45 18 -50 l9 -8 14 19 14 20 0 45 0 45 -21 44 -21 43 5 41 c3 22 10 45 15 50 l9 9 22 -34 21 -35 -1 -58 c-1 -33 2 -82 6 -109 l7 -51 -47 -43 -47 -43 -36 6 c-20 3 -55 18 -77 34 l-40 28 -16 47 c-18 55 -24 62 -70 85 l-34 17 0 68 0 69 -33 13 c-18 8 -35 21 -38 29 -8 22 13 81 56 158 l39 67 -25 18 -25 18 70 105 c39 58 71 112 71 122 l0 16 -51 -1 -51 -2 -24 28 -24 28 0 33 0 33 50 77 50 77 31 11 31 11 -6 51 c-11 101 -19 254 -13 271 l7 16 32 -3 31 -3 33 -172z m3459 -673 l16 -14 -3 -132 -3 -133 -30 -31 c-16 -18 -41 -38 -55 -45 l-25 -13 -34 29 -35 28 -13 -11 c-17 -13 -19 -11 -28 29 l-7 33 66 41 66 41 0 37 c0 49 -14 61 -70 61 -26 0 -49 2 -52 5 -3 3 -1 24 4 45 l10 39 52 3 c85 5 125 2 141 -12z m-241 -341 c-3 -5 -11 -9 -19 -9 l-14 0 -6 -34 -7 -34 -73 -36 -74 -35 -16 -24 -15 -24 -35 16 -34 16 -1 16 c0 8 8 23 18 33 19 19 120 87 187 126 24 14 47 29 52 33 l8 8 17 -21 c10 -12 15 -26 12 -31z m-1020 -45 l15 -6 -16 -24 -15 -24 16 -22 c9 -13 28 -38 41 -57 l25 -34 0 -37 0 -37 -22 -20 c-36 -32 -63 -43 -110 -43 l-44 0 -24 16 c-14 10 -30 24 -37 32 l-12 14 -47 4 c-25 2 -61 12 -78 22 l-31 18 0 19 0 18 45 16 c25 9 51 20 58 24 17 11 15 37 -4 58 -17 19 -13 34 16 49 l18 10 -5 -20 -5 -19 20 -25 c22 -28 32 -25 32 11 0 29 8 29 41 -3 l26 -25 6 31 7 31 32 14 c18 8 34 14 35 15 1 0 8 -3 17 -6z m1116 -36 c25 -42 25 -48 -1 -48 l-21 0 -20 -26 -20 -25 -26 3 -26 3 -18 31 -18 31 20 26 c20 25 39 33 88 36 l22 1 20 -32z m80 -100 l20 -33 0 -36 0 -36 -19 -17 c-11 -10 -34 -22 -53 -26 -18 -5 -43 -12 -55 -15 l-21 -7 -7 22 -7 21 16 24 c9 14 30 32 46 40 l30 16 0 19 c0 11 5 20 11 20 l10 0 -6 20 -6 20 10 0 c6 0 20 -15 31 -32z m-4758 -3 l-4 -25 16 -6 c9 -3 16 -14 16 -25 0 -24 29 -39 76 -39 l37 0 19 -17 c10 -9 18 -21 18 -28 l0 -12 -80 -6 -80 -6 -26 11 c-29 14 -54 56 -54 92 0 23 43 86 60 86 4 0 5 -11 2 -25z"/>
</g>
<g id="layer113" fill="#ffab2a" stroke="none">
<path d="M0 1530 l0 -1530 3060 0 3060 0 0 1530 0 1530 -3060 0 -3060 0 0 -1530z m5674 934 c36 -14 10 -59 -70 -124 l-30 -25 -32 -165 c-18 -91 -33 -177 -33 -190 -1 -50 -21 -217 -35 -299 -8 -46 -14 -86 -14 -89 0 -2 -7 1 -15 8 l-15 12 0 -26 0 -26 -35 -36 -36 -36 -31 6 c-41 8 -81 46 -119 112 l-29 51 0 31 0 31 24 27 23 28 24 -44 23 -45 14 38 15 37 18 0 c22 0 23 4 8 28 l-12 18 94 265 c51 145 98 269 104 274 7 6 22 27 35 48 12 22 41 52 63 68 45 33 40 31 61 23z m-4951 -29 c1 -6 -8 -11 -20 -13 -13 -2 -23 -7 -23 -12 0 -5 -12 -15 -27 -22 l-28 -14 1 -19 c3 -42 127 -480 144 -507 l17 -29 11 43 c6 24 24 138 40 253 17 116 37 228 45 250 l15 40 44 7 c63 10 158 9 158 -1 0 -4 -27 -14 -61 -20 l-60 -12 -20 -20 -19 -19 0 -184 c0 -101 -3 -191 -6 -200 l-6 -16 12 0 c7 0 42 18 77 41 35 22 72 39 81 37 l16 -3 65 -113 c36 -61 68 -112 72 -112 3 0 9 19 12 42 l6 43 26 22 c53 46 98 22 160 -81 l35 -60 0 -28 0 -29 -25 -24 -24 -25 -38 0 c-21 0 -49 7 -61 16 -12 8 -22 12 -22 8 0 -4 30 -58 66 -121 l67 -114 -11 -23 -10 -23 -112 -65 -112 -65 47 -7 48 -8 23 -23 24 -24 0 -26 c0 -43 -17 -62 -91 -106 l-70 -42 -31 1 -30 1 -24 22 -24 22 0 31 c0 17 7 44 15 60 9 16 14 31 11 33 -2 2 -49 -23 -104 -57 -55 -33 -108 -60 -118 -60 -11 0 -31 8 -47 18 l-27 17 -111 190 -111 190 28 20 c47 34 74 63 74 81 l0 17 -41 -6 -41 -5 -25 -24 -24 -23 -20 25 c-45 58 -34 95 42 141 l49 31 0 31 c0 18 -11 66 -24 107 -29 92 -57 315 -61 484 0 6 14 13 30 18 17 4 43 18 60 32 l29 23 28 -1 c16 -1 29 -6 31 -11z m1397 0 c0 -12 -64 -35 -114 -41 l-56 -7 0 16 0 16 38 6 c20 4 44 8 52 10 25 5 80 5 80 0z m305 -12 l30 -6 -20 -8 c-11 -4 -59 -8 -107 -8 l-88 -1 0 21 0 21 78 -7 c42 -3 91 -9 107 -12z m1640 -3 c4 -6 1 -17 -5 -25 l-12 -14 -29 6 -29 6 0 -12 c0 -6 -12 -11 -27 -11 -32 0 -97 36 -89 49 3 5 46 9 95 10 l89 2 7 -11z m974 -15 l29 -14 5 -43 c2 -24 12 -63 22 -88 20 -53 55 -227 55 -273 l0 -33 -50 -27 -50 -27 -4 12 c-3 7 -7 45 -11 83 -3 39 -14 128 -24 198 l-19 128 -16 18 c-10 10 -38 27 -64 36 -56 21 -67 29 -57 45 l8 13 74 -7 c40 -3 87 -12 102 -21z m-639 -5 c0 -19 -10 -25 -39 -20 -8 1 -25 -4 -38 -11 l-23 -13 -35 17 c-34 16 -42 27 -28 40 3 4 42 7 85 7 l78 0 0 -20z m-34 -92 c-21 -119 -85 -631 -80 -645 3 -10 11 -28 17 -41 l10 -22 -43 -178 c-48 -196 -66 -246 -111 -303 -34 -43 -44 -47 -71 -22 l-18 16 -22 -10 -23 -10 -33 46 c-43 60 -45 74 -24 150 l19 64 28 -39 c16 -21 30 -41 32 -43 2 -2 12 6 22 18 11 12 23 22 28 23 14 0 2 22 -42 74 l-44 51 45 81 c24 45 44 90 44 101 l0 20 -48 27 -48 27 -22 91 -21 91 6 228 6 228 40 -3 41 -3 9 -30 c6 -16 11 -112 13 -213 l2 -182 32 -51 c18 -27 34 -48 35 -47 2 2 142 454 161 521 l5 17 31 0 30 0 -6 -32z m-2300 -205 c17 -94 37 -188 44 -209 l13 -38 17 21 17 21 6 104 c4 57 15 137 25 178 l17 75 34 0 34 0 -2 -105 -2 -106 123 -81 c68 -44 124 -79 126 -78 2 2 -1 12 -7 23 -6 12 -11 41 -11 65 l0 44 19 17 c10 9 34 19 54 23 l35 5 53 -28 c29 -16 70 -45 91 -65 l38 -36 0 -37 0 -37 -24 -24 -23 -23 -47 -7 -46 -7 120 -80 c66 -44 120 -86 120 -94 0 -17 -140 -234 -152 -234 -4 0 -8 16 -8 36 l0 36 -29 29 -29 29 -27 0 c-14 0 -39 -7 -54 -15 l-28 -14 -47 -74 -46 -75 0 -32 0 -32 30 -30 31 -30 49 4 50 5 0 -9 c0 -6 -9 -22 -21 -36 -43 -56 -99 -136 -99 -142 0 -4 -11 -12 -24 -19 l-23 -13 -54 32 c-30 17 -89 53 -132 80 l-78 50 -31 -36 -32 -36 -7 18 -8 19 0 -25 c-1 -31 -27 -70 -47 -70 l-15 0 11 -21 12 -21 -17 -18 -17 -19 9 -16 c5 -9 20 -22 33 -28 l24 -12 11 -42 c5 -23 14 -45 18 -50 l9 -8 14 19 14 20 0 45 0 45 -21 44 -21 43 5 41 c3 22 10 45 15 50 l9 9 22 -34 21 -35 -1 -58 c-1 -33 2 -82 6 -109 l7 -51 -47 -43 -47 -43 -36 6 c-20 3 -55 18 -77 34 l-40 28 -16 47 c-18 55 -24 62 -70 85 l-34 17 0 68 0 69 -33 13 c-18 8 -35 21 -38 29 -8 22 13 81 56 158 l39 67 -25 18 -25 18 70 105 c39 58 71 112 71 122 l0 16 -51 -1 -51 -2 -24 28 -24 28 0 33 0 33 50 77 50 77 31 11 31 11 -6 51 c-11 101 -19 254 -13 271 l7 16 32 -3 31 -3 33 -172z m3459 -673 l16 -14 -3 -132 -3 -133 -30 -31 c-16 -18 -41 -38 -55 -45 l-25 -13 -34 29 -35 28 -13 -11 c-17 -13 -19 -11 -28 29 l-7 33 66 41 66 41 0 37 c0 49 -14 61 -70 61 -26 0 -49 2 -52 5 -3 3 -1 24 4 45 l10 39 52 3 c85 5 125 2 141 -12z m-241 -341 c-3 -5 -11 -9 -19 -9 l-14 0 -6 -34 -7 -34 -73 -36 -74 -35 -16 -24 -15 -24 -35 16 -34 16 -1 16 c0 8 8 23 18 33 19 19 120 87 187 126 24 14 47 29 52 33 l8 8 17 -21 c10 -12 15 -26 12 -31z m-1020 -45 l15 -6 -16 -24 -15 -24 16 -22 c9 -13 28 -38 41 -57 l25 -34 0 -37 0 -37 -22 -20 c-36 -32 -63 -43 -110 -43 l-44 0 -24 16 c-14 10 -30 24 -37 32 l-12 14 -47 4 c-25 2 -61 12 -78 22 l-31 18 0 19 0 18 45 16 c25 9 51 20 58 24 17 11 15 37 -4 58 -17 19 -13 34 16 49 l18 10 -5 -20 -5 -19 20 -25 c22 -28 32 -25 32 11 0 29 8 29 41 -3 l26 -25 6 31 7 31 32 14 c18 8 34 14 35 15 1 0 8 -3 17 -6z m1116 -36 c25 -42 25 -48 -1 -48 l-21 0 -20 -26 -20 -25 -26 3 -26 3 -18 31 -18 31 20 26 c20 25 39 33 88 36 l22 1 20 -32z m80 -100 l20 -33 0 -36 0 -36 -19 -17 c-11 -10 -34 -22 -53 -26 -18 -5 -43 -12 -55 -15 l-21 -7 -7 22 -7 21 16 24 c9 14 30 32 46 40 l30 16 0 19 c0 11 5 20 11 20 l10 0 -6 20 -6 20 10 0 c6 0 20 -15 31 -32z m-4758 -3 l-4 -25 16 -6 c9 -3 16 -14 16 -25 0 -24 29 -39 76 -39 l37 0 19 -17 c10 -9 18 -21 18 -28 l0 -12 -80 -6 -80 -6 -26 11 c-29 14 -54 56 -54 92 0 23 43 86 60 86 4 0 5 -11 2 -25z"/>
<path d="M2122 1195 l0 -30 5 18 c2 9 2 23 0 30 -3 6 -5 -1 -5 -18z"/>
</g>
<g id="layer114" fill="#fd847a" stroke="none">
<path d="M0 1530 l0 -1530 3060 0 3060 0 0 1530 0 1530 -3060 0 -3060 0 0 -1530z m5674 934 c36 -14 10 -59 -70 -124 l-30 -25 -32 -165 c-18 -91 -33 -177 -33 -190 -1 -50 -21 -217 -35 -299 -8 -46 -14 -86 -14 -89 0 -2 -7 1 -15 8 l-15 12 0 -26 0 -26 -35 -36 -36 -36 -31 6 c-41 8 -81 46 -119 112 l-29 51 0 31 0 31 24 27 23 28 24 -44 23 -45 14 38 15 37 18 0 c22 0 23 4 8 28 l-12 18 94 265 c51 145 98 269 104 274 7 6 22 27 35 48 12 22 41 52 63 68 45 33 40 31 61 23z m-4951 -29 c1 -6 -8 -11 -20 -13 -13 -2 -23 -7 -23 -12 0 -5 -12 -15 -27 -22 l-28 -14 1 -19 c3 -42 127 -480 144 -507 l17 -29 11 43 c6 24 24 138 40 253 17 116 37 228 45 250 l15 40 44 7 c63 10 158 9 158 -1 0 -4 -27 -14 -61 -20 l-60 -12 -20 -20 -19 -19 0 -184 c0 -101 -3 -191 -6 -200 l-6 -16 12 0 c7 0 42 18 77 41 35 22 72 39 81 37 l16 -3 65 -113 c36 -61 68 -112 72 -112 3 0 9 19 12 42 l6 43 26 22 c53 46 98 22 160 -81 l35 -60 0 -28 0 -29 -25 -24 -24 -25 -38 0 c-21 0 -49 7 -61 16 -12 8 -22 12 -22 8 0 -4 30 -58 66 -121 l67 -114 -11 -23 -10 -23 -112 -65 -112 -65 47 -7 48 -8 23 -23 24 -24 0 -26 c0 -43 -17 -62 -91 -106 l-70 -42 -31 1 -30 1 -24 22 -24 22 0 31 c0 17 7 44 15 60 9 16 14 31 11 33 -2 2 -49 -23 -104 -57 -55 -33 -108 -60 -118 -60 -11 0 -31 8 -47 18 l-27 17 -111 190 -111 190 28 20 c47 34 74 63 74 81 l0 17 -41 -6 -41 -5 -25 -24 -24 -23 -20 25 c-45 58 -34 95 42 141 l49 31 0 31 c0 18 -11 66 -24 107 -29 92 -57 315 -61 484 0 6 14 13 30 18 17 4 43 18 60 32 l29 23 28 -1 c16 -1 29 -6 31 -11z m1397 0 c0 -12 -64 -35 -114 -41 l-56 -7 0 16 0 16 38 6 c20 4 44 8 52 10 25 5 80 5 80 0z m305 -12 l30 -6 -20 -8 c-11 -4 -59 -8 -107 -8 l-88 -1 0 21 0 21 78 -7 c42 -3 91 -9 107 -12z m1640 -3 c4 -6 1 -17 -5 -25 l-12 -14 -29 6 -29 6 0 -12 c0 -6 -12 -11 -27 -11 -32 0 -97 36 -89 49 3 5 46 9 95 10 l89 2 7 -11z m974 -15 l29 -14 5 -43 c2 -24 12 -63 22 -88 20 -53 55 -227 55 -273 l0 -33 -50 -27 -50 -27 -4 12 c-3 7 -7 45 -11 83 -3 39 -14 128 -24 198 l-19 128 -16 18 c-10 10 -38 27 -64 36 -56 21 -67 29 -57 45 l8 13 74 -7 c40 -3 87 -12 102 -21z m-639 -5 c0 -19 -10 -25 -39 -20 -8 1 -25 -4 -38 -11 l-23 -13 -35 17 c-34 16 -42 27 -28 40 3 4 42 7 85 7 l78 0 0 -20z m-34 -92 c-21 -119 -85 -631 -80 -645 3 -10 11 -28 17 -41 l10 -22 -43 -178 c-48 -196 -66 -246 -111 -303 -34 -43 -44 -47 -71 -22 l-18 16 -22 -10 -23 -10 -33 46 c-43 60 -45 74 -24 150 l19 64 28 -39 c16 -21 30 -41 32 -43 2 -2 12 6 22 18 11 12 23 22 28 23 15 0 2 22 -44 76 l-46 54 -56 -7 c-243 -29 -359 -71 -308 -113 l12 -10 38 13 c21 7 46 20 55 28 l17 15 97 5 c53 3 98 3 101 0 8 -7 -11 -47 -71 -146 -29 -48 -57 -98 -62 -110 -6 -12 -22 -40 -36 -62 -13 -22 -27 -47 -30 -57 -3 -9 -15 -19 -27 -22 l-21 -5 -60 33 c-34 18 -85 47 -114 64 -29 18 -58 32 -64 32 l-10 0 8 -17 c4 -10 9 -36 12 -58 l4 -40 -22 -28 -21 -27 -40 0 -40 0 -74 42 -75 43 -15 32 -16 32 7 26 c8 34 61 73 104 77 l35 3 -78 45 c-43 25 -99 59 -125 75 l-47 30 -3 21 c-3 23 5 39 138 269 94 163 149 261 180 318 22 39 59 64 82 54 7 -4 31 -18 53 -31 22 -14 66 -39 98 -57 59 -33 71 -49 37 -49 -35 0 -69 -22 -85 -55 -19 -42 -19 -53 3 -90 l19 -30 57 -30 c31 -17 67 -36 79 -42 12 -7 35 -13 50 -13 l29 0 29 29 29 29 0 37 c0 20 -5 45 -11 57 -6 11 -9 21 -7 23 2 1 32 -15 67 -36 35 -22 66 -37 68 -35 3 2 -4 40 -15 83 l-21 78 6 233 6 233 40 -3 41 -3 9 -30 c6 -16 11 -112 13 -213 l2 -182 32 -51 c18 -27 34 -48 35 -47 2 2 142 454 161 521 l5 17 31 0 30 0 -6 -32z m-2300 -205 c17 -94 37 -188 44 -209 l13 -38 17 21 17 21 6 104 c4 57 15 137 25 178 l17 75 34 0 34 0 -2 -105 -2 -106 123 -81 c68 -44 124 -79 126 -78 2 2 -1 12 -7 23 -6 12 -11 41 -11 65 l0 44 19 17 c10 9 34 19 54 23 l35 5 53 -28 c29 -16 70 -45 91 -65 l38 -36 0 -37 0 -37 -24 -24 -23 -23 -47 -7 -46 -7 120 -80 c66 -44 120 -86 120 -94 0 -17 -140 -234 -152 -234 -4 0 -8 16 -8 36 l0 36 -29 29 -29 29 -27 0 c-14 0 -39 -7 -54 -15 l-28 -14 -47 -74 -46 -75 0 -32 0 -32 30 -30 31 -30 49 4 50 5 0 -9 c0 -6 -9 -22 -21 -36 -43 -56 -99 -136 -99 -142 0 -4 -11 -12 -24 -19 l-23 -13 -54 32 c-30 17 -89 53 -133 81 l-78 50 -14 -18 c-18 -24 -17 -30 6 -68 l20 -33 -1 -58 c-1 -33 2 -82 6 -109 l7 -51 -47 -43 -47 -43 -36 6 c-20 3 -55 18 -77 34 l-40 28 -16 47 c-18 55 -24 62 -70 85 l-34 17 0 68 0 69 -33 13 c-18 8 -35 21 -38 29 -8 22 13 81 56 158 l39 67 -25 18 -25 18 70 105 c39 58 71 112 71 122 l0 16 -51 -1 -51 -2 -24 28 -24 28 0 33 0 33 50 77 50 77 31 11 31 11 -6 51 c-11 101 -19 254 -13 271 l7 16 32 -3 31 -3 33 -172z m3459 -673 l16 -14 -3 -132 -3 -133 -30 -31 c-16 -18 -41 -38 -55 -45 l-25 -13 -34 29 -35 28 -13 -11 c-17 -13 -19 -11 -28 29 l-7 33 66 41 66 41 0 37 c0 49 -14 61 -70 61 -26 0 -49 2 -52 5 -3 3 -1 24 4 45 l10 39 52 3 c85 5 125 2 141 -12z m-241 -341 c-3 -5 -11 -9 -19 -9 l-14 0 -6 -34 -7 -34 -73 -36 -74 -35 -16 -24 -15 -24 -35 16 -34 16 -1 16 c0 8 8 23 18 33 19 19 120 87 187 126 24 14 47 29 52 33 l8 8 17 -21 c10 -12 15 -26 12 -31z m-1020 -45 l15 -6 -16 -24 -15 -24 16 -22 c9 -13 28 -38 41 -57 l25 -34 0 -37 0 -37 -22 -20 c-36 -32 -63 -43 -110 -43 l-44 0 -24 16 c-14 10 -30 24 -37 32 l-12 14 -47 4 c-25 2 -61 12 -78 22 l-31 18 0 19 0 18 45 16 c25 9 51 20 58 24 17 11 15 37 -4 58 -17 19 -13 34 16 49 l18 10 -5 -20 -5 -19 20 -25 c22 -28 32 -25 32 11 0 29 8 29 41 -3 l26 -25 6 31 7 31 32 14 c18 8 34 14 35 15 1 0 8 -3 17 -6z m1116 -36 c25 -42 25 -48 -1 -48 l-21 0 -20 -26 -20 -25 -26 3 -26 3 -18 31 -18 31 20 26 c20 25 39 33 88 36 l22 1 20 -32z m80 -100 l20 -33 0 -36 0 -36 -19 -17 c-11 -10 -34 -22 -53 -26 -18 -5 -43 -12 -55 -15 l-21 -7 -7 22 -7 21 16 24 c9 14 30 32 46 40 l30 16 0 19 c0 11 5 20 11 20 l10 0 -6 20 -6 20 10 0 c6 0 20 -15 31 -32z m-4758 -3 l-4 -25 16 -6 c9 -3 16 -14 16 -25 0 -24 29 -39 76 -39 l37 0 19 -17 c10 -9 18 -21 18 -28 l0 -12 -80 -6 -80 -6 -26 11 c-29 14 -54 56 -54 92 0 23 43 86 60 86 4 0 5 -11 2 -25z"/>
<path d="M940 1794 l1 -89 24 28 25 28 0 38 0 38 -25 23 -25 23 0 -89z"/>
<path d="M2240 1544 c-48 -22 -129 -44 -162 -44 l-27 0 -13 -18 c-7 -11 -24 -25 -38 -32 -14 -7 -35 -22 -47 -33 l-23 -20 0 -25 c0 -14 4 -41 9 -61 6 -20 18 -76 27 -125 l18 -90 18 -18 c10 -10 24 -18 32 -18 l14 0 11 33 11 33 -11 49 c-6 28 -11 60 -12 73 -1 12 -5 22 -8 22 -4 0 -12 21 -19 47 l-11 48 21 17 c12 10 36 18 52 18 l30 0 5 20 c7 27 76 67 141 80 53 12 87 34 77 51 -9 14 -56 10 -95 -7z"/>
<path d="M2108 1070 c-9 -17 -24 -30 -33 -30 l-16 0 11 -21 12 -21 -17 -18 -17 -19 9 -16 c5 -9 20 -22 33 -28 l24 -12 11 -42 c5 -23 14 -45 18 -50 l9 -8 14 19 14 20 0 45 0 45 -21 44 -21 43 5 40 5 39 -11 0 c-7 0 -20 -14 -29 -30z"/>
</g>
<g id="layer115" fill="#fcb097" stroke="none">
<path d="M0 1530 l0 -1530 3060 0 3060 0 0 1530 0 1530 -3060 0 -3060 0 0 -1530z m5674 934 c36 -14 10 -59 -70 -124 l-30 -25 -32 -165 c-18 -91 -33 -177 -33 -190 -1 -50 -21 -217 -35 -299 -8 -46 -14 -86 -14 -89 0 -2 -7 1 -15 8 l-15 12 0 -23 c0 -33 -34 -86 -60 -94 -12 -4 -37 -4 -56 -1 l-34 7 -23 32 c-46 61 -77 124 -77 155 l0 31 24 27 23 28 24 -44 23 -45 14 38 15 37 18 0 c22 0 23 4 8 28 l-12 18 94 265 c51 145 98 269 104 274 7 6 22 27 35 48 12 22 41 52 63 68 45 33 40 31 61 23z m-4951 -29 c1 -6 -8 -11 -20 -13 -13 -2 -23 -7 -23 -12 0 -5 -12 -15 -27 -22 l-28 -14 1 -19 c3 -42 127 -480 144 -507 l17 -29 11 43 c6 24 24 138 40 253 17 116 37 228 45 250 l15 40 44 7 c63 10 158 9 158 -1 0 -4 -26 -14 -58 -20 -32 -6 -67 -18 -78 -25 l-19 -14 -5 -204 c-3 -112 -4 -205 -3 -207 2 -2 37 17 79 42 42 26 80 47 84 47 5 0 39 -52 76 -115 37 -63 71 -115 75 -115 5 0 9 12 9 26 0 53 36 93 86 94 l30 0 26 -27 c14 -16 40 -51 57 -79 l31 -51 0 -34 c-1 -41 -17 -65 -54 -78 l-27 -11 -39 14 c-22 8 -40 10 -40 6 0 -4 27 -52 60 -108 33 -55 60 -109 60 -119 0 -27 -30 -52 -138 -114 l-94 -54 43 -7 42 -7 24 -22 23 -22 0 -38 0 -38 -36 -29 c-19 -16 -60 -42 -89 -57 l-54 -27 -36 12 c-19 6 -40 20 -45 30 -13 25 -13 76 1 102 6 11 9 22 6 24 -2 3 -41 -18 -85 -46 l-80 -52 -41 -5 -41 -6 -21 19 c-18 16 -43 55 -109 169 -10 17 -45 76 -78 133 l-61 102 39 25 c42 27 72 63 63 78 -9 15 -61 0 -98 -29 l-34 -25 -20 40 c-12 22 -21 49 -21 59 0 25 32 58 80 82 l40 20 0 33 c0 18 -11 66 -24 107 -29 92 -57 315 -61 484 0 6 14 13 30 18 17 4 43 18 60 32 l29 23 28 -1 c16 -1 29 -6 31 -11z m1382 -10 c-24 -19 -80 -35 -122 -35 l-33 0 0 15 0 14 38 6 c20 4 44 8 52 10 8 1 31 3 50 4 l35 0 -20 -14z m320 -2 l30 -6 -40 -12 -40 -12 -67 5 -68 4 0 20 0 20 78 -7 c42 -3 91 -9 107 -12z m1640 -3 c9 -15 -10 -34 -38 -37 -12 -2 -38 -5 -57 -8 l-35 -6 -33 21 c-18 11 -31 24 -28 29 3 5 46 9 95 10 l89 2 7 -11z m974 -15 l29 -14 5 -43 c2 -24 12 -63 22 -88 20 -53 55 -227 55 -273 l0 -33 -50 -27 -50 -27 -4 12 c-3 7 -7 45 -11 83 -3 39 -14 128 -24 198 l-19 128 -16 18 c-10 10 -38 27 -64 36 -56 21 -67 29 -57 45 l8 13 74 -7 c40 -3 87 -12 102 -21z m-639 -4 l0 -20 -17 -5 c-10 -3 -34 -8 -54 -11 l-37 -7 -31 16 c-31 16 -37 27 -24 39 3 4 42 7 85 7 l78 0 0 -19z m-30 -57 c0 -3 -20 -153 -45 -334 -25 -181 -42 -337 -39 -347 3 -10 11 -28 17 -41 l10 -22 -43 -178 c-48 -196 -66 -246 -111 -303 -34 -43 -44 -47 -71 -22 l-18 16 -23 -10 -22 -10 -35 50 -35 51 0 42 c0 23 3 40 6 38 4 -2 10 15 14 38 l7 42 24 -27 c12 -15 27 -35 33 -44 l9 -18 20 23 c11 13 24 23 29 24 15 0 2 22 -44 75 -24 29 -52 53 -61 53 -78 0 -314 -52 -348 -77 l-17 -12 6 -16 6 -15 28 0 c16 0 44 11 63 24 l35 23 103 7 c56 4 102 6 102 4 -1 -19 -34 -86 -67 -136 -23 -35 -51 -82 -63 -105 -12 -23 -32 -60 -46 -82 -14 -22 -27 -47 -30 -57 -3 -9 -15 -19 -27 -22 l-21 -5 -60 33 c-34 18 -85 47 -114 64 -29 18 -58 32 -64 32 l-10 0 8 -17 c4 -10 9 -36 12 -58 l4 -40 -22 -28 -21 -27 -40 0 -40 0 -74 43 -75 42 -15 32 -16 32 7 26 c8 34 61 73 104 77 l35 3 -78 45 c-43 25 -99 59 -125 75 l-47 30 -3 21 c-3 23 5 39 138 269 94 163 149 261 180 318 22 39 59 64 82 54 7 -4 31 -18 53 -31 22 -14 66 -39 98 -57 59 -33 71 -49 37 -49 -35 0 -69 -22 -85 -55 -19 -42 -19 -53 3 -90 l19 -30 57 -30 c31 -17 67 -36 79 -42 12 -7 35 -13 50 -13 l29 0 29 29 29 29 0 37 c0 20 -5 45 -11 57 -6 11 -9 21 -7 23 2 1 32 -15 67 -36 35 -22 66 -37 68 -35 3 2 -4 40 -15 83 l-21 78 6 232 6 231 29 4 c16 3 35 0 43 -6 l14 -11 11 -70 12 -70 -4 -135 -3 -136 34 -52 c18 -29 35 -51 36 -50 1 2 39 122 84 268 45 145 87 268 94 272 14 9 47 11 47 2z m-2304 -241 c17 -94 37 -188 44 -209 l13 -38 17 21 17 21 6 104 c4 57 15 137 25 178 l17 75 34 0 34 0 -2 -105 -2 -106 123 -81 c68 -44 124 -79 126 -78 2 2 -1 12 -7 23 -6 12 -11 41 -11 65 l0 44 19 17 c10 9 34 19 54 23 l35 5 53 -28 c29 -16 70 -45 91 -65 l38 -36 0 -37 0 -37 -24 -24 -23 -23 -47 -7 -46 -7 120 -80 c66 -44 120 -86 120 -94 0 -17 -140 -234 -152 -234 -4 0 -8 16 -8 36 l0 36 -29 29 -29 29 -27 0 c-14 0 -39 -7 -54 -15 l-28 -14 -47 -74 -46 -75 0 -32 0 -32 30 -30 31 -30 49 4 50 5 0 -9 c0 -6 -9 -22 -21 -36 -43 -56 -99 -136 -99 -142 0 -4 -11 -12 -24 -19 l-23 -13 -54 32 c-30 17 -89 53 -133 81 l-78 50 -14 -18 c-17 -23 -18 -21 10 -74 l25 -46 -11 -37 -11 -36 16 -36 c24 -50 22 -66 -20 -118 l-38 -46 -34 -6 -33 -7 -32 15 c-17 9 -46 28 -63 42 l-32 27 -7 37 c-8 46 -19 60 -61 77 l-33 14 -12 25 -11 26 11 25 c7 14 12 34 12 45 l0 19 -35 12 -36 13 -5 23 c-8 30 8 75 55 155 l39 67 -24 18 -25 18 70 105 c39 58 71 112 71 122 l0 16 -51 -1 -51 -2 -24 28 -24 28 0 33 0 33 50 77 50 77 31 11 31 11 -6 51 c-11 101 -19 254 -13 271 l7 16 32 -3 31 -3 33 -172z m3471 -679 l14 -19 -7 -120 -7 -120 -13 -27 c-22 -44 -114 -99 -114 -68 0 9 -51 40 -66 40 -3 0 -4 -7 0 -15 3 -8 1 -15 -4 -15 -11 0 -25 25 -34 62 l-6 27 70 45 70 46 0 29 c0 39 -18 51 -84 58 l-55 6 8 16 c5 9 7 30 4 46 l-5 30 108 -1 107 -1 14 -19z m-261 -301 c19 -26 17 -43 -6 -43 l-20 0 0 -21 c0 -37 -18 -55 -90 -88 l-70 -33 -11 -21 c-7 -12 -13 -23 -14 -25 -2 -2 -17 4 -35 13 -17 9 -38 14 -46 11 -18 -7 -18 -4 6 37 17 28 116 107 134 107 3 0 31 18 63 39 67 46 71 47 89 24z m-1209 -81 c-22 -24 -21 -38 3 -69 l20 -26 6 32 c8 38 11 38 45 5 l26 -25 6 31 7 31 34 14 c19 8 42 12 50 9 l15 -6 -16 -24 -15 -24 16 -22 c9 -13 28 -38 41 -57 l25 -34 0 -37 0 -37 -22 -20 c-36 -32 -63 -43 -110 -43 l-44 0 -24 16 c-14 10 -30 24 -37 32 l-12 14 -47 4 c-25 2 -61 12 -78 22 l-31 18 0 19 0 18 39 13 c21 8 45 19 52 25 17 14 18 51 2 67 l-12 12 34 35 c34 35 58 41 27 7z m1313 -34 c26 -43 25 -48 -5 -48 l-25 0 0 -15 c0 -8 -11 -22 -24 -30 l-25 -16 -20 11 c-12 6 -27 24 -36 39 l-14 29 19 25 c20 25 39 33 88 36 l22 1 20 -32z m80 -100 l20 -33 0 -36 0 -36 -19 -17 c-11 -10 -34 -22 -53 -26 -18 -5 -43 -12 -54 -15 l-21 -7 -7 17 c-3 9 -3 28 0 41 l6 25 39 20 39 19 0 20 c0 11 5 20 11 20 l10 0 -6 20 -6 20 10 0 c6 0 20 -15 31 -32z m-4758 -3 l-4 -25 16 -6 c9 -3 16 -12 16 -19 0 -8 7 -21 16 -29 l15 -16 41 0 41 0 19 -17 c10 -9 18 -21 18 -28 l0 -12 -80 -6 -80 -6 -26 11 c-29 14 -54 56 -54 92 0 23 43 86 60 86 4 0 5 -11 2 -25z"/>
<path d="M940 1795 l0 -74 14 5 c17 6 36 48 36 77 0 25 -26 67 -41 67 l-9 0 0 -75z"/>
<path d="M2240 1544 c-47 -22 -129 -44 -160 -44 -15 0 -31 -5 -38 -12 l-11 -11 25 -24 26 -24 -6 -14 -5 -15 20 0 21 0 5 20 c7 27 76 67 141 80 53 12 87 34 77 51 -9 14 -56 10 -95 -7z"/>
<path d="M2113 1070 c-9 -16 -23 -30 -31 -30 l-14 0 7 -30 7 -30 -11 0 c-6 0 -11 -9 -11 -20 l0 -21 30 -17 30 -17 6 -37 c4 -21 12 -42 20 -48 l13 -11 12 22 11 22 -5 54 -6 53 -21 27 -22 28 7 42 c7 51 2 54 -22 13z"/>
</g>
<g id="layer116" fill="#77dbf8" stroke="none">
<path d="M0 1530 l0 -1530 3060 0 3060 0 0 1530 0 1530 -3060 0 -3060 0 0 -1530z m5674 934 c36 -14 10 -59 -70 -124 l-30 -25 -32 -165 c-18 -91 -33 -177 -33 -190 -1 -50 -21 -217 -35 -299 -8 -46 -14 -86 -14 -89 0 -2 -7 1 -15 8 l-15 12 0 -21 c0 -30 -26 -78 -49 -91 -28 -15 -73 -12 -99 5 -12 9 -40 46 -62 84 l-40 67 0 32 0 31 24 27 23 28 24 -44 23 -45 14 38 15 37 18 0 c22 0 23 4 8 28 l-12 18 94 265 c51 145 98 269 104 274 7 6 22 27 35 48 12 22 41 52 63 68 45 33 40 31 61 23z m-4951 -29 c1 -6 -8 -11 -20 -13 -13 -2 -23 -7 -23 -12 0 -5 -12 -15 -27 -22 l-28 -14 1 -19 c3 -42 127 -480 144 -507 l17 -29 11 43 c6 24 24 138 40 253 17 116 37 228 45 250 l15 40 44 7 c63 10 158 9 158 -1 0 -4 -26 -14 -58 -20 -32 -6 -67 -18 -78 -25 l-19 -14 -5 -204 c-3 -112 -4 -205 -2 -207 1 -3 16 5 32 17 16 12 31 22 34 22 3 0 22 11 42 25 20 14 43 25 50 25 7 0 32 -33 55 -72 24 -40 55 -93 71 -117 l27 -44 5 14 c2 8 7 26 10 42 4 15 15 36 26 47 l20 20 33 0 c42 -1 68 -22 111 -95 l36 -60 0 -36 0 -37 -18 -23 -19 -22 -34 -1 c-19 -1 -47 3 -63 7 l-28 8 27 -48 c15 -26 41 -68 58 -93 l30 -45 1 -38 1 -39 -70 -44 c-38 -24 -79 -49 -90 -54 -11 -6 -30 -17 -43 -24 l-23 -13 42 -6 41 -5 24 -23 24 -22 0 -36 0 -36 -18 -22 c-20 -26 -142 -93 -168 -93 -11 0 -34 9 -51 20 l-33 20 0 46 c0 25 5 54 10 65 6 10 9 19 6 19 -2 0 -41 -23 -84 -51 l-80 -51 -41 -5 -41 -6 -21 19 c-18 16 -41 51 -109 169 -70 121 -132 221 -141 230 l-12 10 6 -10 c8 -15 -17 -116 -28 -115 -5 1 -11 -4 -14 -11 l-4 -12 12 7 11 7 -6 -15 c-3 -8 -13 -17 -21 -21 l-16 -6 -8 12 -7 12 -11 -8 -12 -7 17 39 c35 83 61 166 57 184 -3 10 -11 24 -19 30 -16 13 -18 62 -4 89 6 10 33 31 60 46 l50 27 0 31 c0 17 -11 65 -24 106 -29 92 -57 315 -61 484 0 6 14 13 30 18 17 4 43 18 60 32 l29 23 28 -1 c16 -1 29 -6 31 -11z m1382 -10 c-24 -19 -80 -35 -122 -35 l-33 0 0 15 0 14 38 6 c20 4 44 8 52 10 8 1 31 3 50 4 l35 0 -20 -14z m320 -2 l30 -6 -40 -12 -40 -12 -67 5 -68 4 0 20 0 20 78 -7 c42 -3 91 -9 107 -12z m1640 -3 c4 -6 -1 -20 -11 -31 -23 -26 -26 -50 -9 -63 l14 -11 11 -70 12 -70 -4 -135 -3 -136 34 -52 c18 -29 35 -51 36 -50 1 2 39 122 84 268 45 145 87 268 94 272 l11 7 -19 6 c-11 4 -35 13 -53 21 l-34 14 5 13 4 12 81 3 82 3 0 -17 c0 -9 -6 -22 -14 -28 l-14 -11 -46 -342 c-25 -188 -43 -350 -40 -360 3 -10 11 -28 17 -41 l10 -22 -43 -178 c-48 -196 -66 -246 -111 -303 -33 -42 -49 -48 -69 -24 -7 8 -18 15 -25 15 l-13 0 5 -20 5 -20 -11 0 c-6 0 -10 6 -8 13 1 6 -3 11 -8 10 -16 -2 -85 107 -85 134 l0 23 -22 0 -23 0 -11 -23 c-17 -36 -76 -140 -93 -167 -9 -14 -23 -37 -31 -53 -7 -15 -24 -30 -36 -33 l-22 -6 -44 25 c-23 13 -60 34 -80 46 -121 68 -118 68 -98 15 6 -14 8 -41 5 -58 l-6 -32 -33 -22 c-18 -12 -40 -22 -50 -22 -28 0 -146 62 -183 96 l-33 31 0 35 0 34 30 29 29 28 38 6 37 6 -49 32 c-28 17 -79 46 -114 65 -35 18 -70 43 -78 55 l-15 23 16 32 c17 34 62 113 89 158 8 14 31 57 52 95 21 39 43 77 49 85 7 8 26 41 42 73 16 31 49 88 74 125 l45 67 21 3 c18 3 129 -49 144 -67 3 -3 23 -16 45 -28 50 -27 54 -39 16 -48 -16 -3 -41 -17 -55 -30 l-26 -24 0 -34 0 -34 21 -27 c11 -14 57 -44 102 -66 l82 -40 29 8 c16 4 39 20 50 35 l20 27 -11 53 c-12 57 -10 65 9 49 23 -18 110 -64 114 -60 2 3 -5 38 -15 78 l-20 74 6 233 c3 129 10 236 15 239 4 3 8 12 8 20 l0 14 -27 0 c-32 0 -97 36 -89 49 3 5 46 9 95 10 l89 2 7 -11z m974 -15 l29 -14 5 -43 c2 -24 12 -63 22 -88 20 -53 55 -227 55 -273 l0 -33 -50 -27 -50 -27 -4 12 c-3 7 -7 45 -11 83 -3 39 -14 128 -24 198 l-19 128 -16 18 c-10 10 -38 27 -64 36 -56 21 -67 29 -57 45 l8 13 74 -7 c40 -3 87 -12 102 -21z m-2973 -302 c17 -94 37 -188 44 -209 l13 -38 17 21 17 21 6 104 c4 57 15 137 25 178 l17 75 34 0 34 0 -2 -105 -2 -106 123 -81 c68 -44 124 -79 126 -78 2 2 -1 12 -7 23 -6 12 -11 41 -11 65 l0 44 19 17 c10 9 34 19 54 23 l35 5 53 -28 c29 -16 70 -45 91 -65 l38 -36 0 -37 0 -37 -24 -24 -23 -23 -47 -7 -46 -7 120 -80 c66 -44 120 -86 120 -94 0 -17 -140 -234 -152 -234 -4 0 -8 16 -8 36 l0 36 -29 29 -29 29 -27 0 c-14 0 -39 -7 -54 -15 l-28 -14 -47 -74 -46 -75 0 -32 0 -32 30 -30 31 -30 49 4 50 5 0 -9 c0 -6 -9 -22 -21 -36 -43 -56 -99 -136 -99 -142 0 -4 -11 -12 -24 -19 l-23 -13 -54 32 c-30 17 -89 53 -133 81 -43 27 -80 48 -81 47 -1 -2 -7 -12 -13 -24 l-11 -21 24 -45 24 -45 -11 -36 -11 -37 18 -39 17 -40 -6 -25 c-3 -13 -21 -41 -40 -61 l-34 -36 -34 -5 -33 -5 -36 15 c-20 8 -50 31 -68 51 l-31 36 0 28 0 28 -17 15 c-10 8 -30 19 -46 26 -15 6 -32 23 -39 37 l-11 25 11 25 c7 14 12 34 12 44 l0 18 -40 16 -40 15 0 30 c0 16 16 61 35 98 19 38 35 74 35 80 0 7 8 15 18 19 l17 7 -28 22 -27 22 70 104 c38 58 70 112 70 122 l0 16 -51 -1 -51 -2 -24 28 -24 28 0 33 0 33 50 77 50 77 31 11 31 11 -6 51 c-11 101 -19 254 -13 271 l7 16 32 -3 31 -3 33 -172z m3042 -642 l48 -19 67 1 67 2 0 -21 c0 -11 -6 -28 -13 -38 l-14 -19 -21 12 c-11 6 -44 10 -72 9 l-51 -2 -11 -13 c-6 -7 -15 -13 -21 -13 -5 0 -2 9 7 19 20 22 18 23 -47 41 -51 14 -62 23 -53 45 l5 15 30 0 c17 0 52 -9 79 -19z m429 -37 l13 -18 0 -51 c0 -29 -3 -87 -7 -130 l-6 -78 -37 -37 c-20 -20 -51 -43 -68 -51 l-30 -13 -5 -31 -5 -30 33 -35 c43 -46 55 -71 55 -114 l0 -35 -26 -20 c-15 -12 -35 -21 -45 -21 -10 0 -30 -5 -44 -12 l-26 -12 -10 15 c-5 8 -6 26 -3 41 l5 26 -10 6 c-5 4 -16 19 -23 34 -8 15 -26 48 -41 73 l-27 46 30 39 c33 40 44 45 100 46 l35 0 -19 13 c-10 8 -24 11 -30 9 -17 -6 -32 14 -40 53 l-7 31 70 46 71 46 0 29 c0 39 -19 52 -90 58 l-62 6 7 21 c4 12 9 32 12 46 l5 25 105 -1 106 -1 14 -19z m-254 -310 l14 -27 -25 -38 -26 -39 -80 -39 -81 -40 -17 -30 -16 -29 -41 20 c-23 11 -41 21 -41 23 0 1 7 17 16 35 l17 32 86 55 c47 31 102 66 121 79 46 30 57 29 73 -2z m-1193 -42 c0 -10 -9 -23 -20 -30 -11 -7 -20 -17 -20 -24 0 -7 7 -3 15 8 l14 19 1 -13 c0 -7 8 -15 18 -19 9 -3 29 -17 43 -30 l26 -24 6 31 7 31 34 14 c19 8 42 12 50 9 l15 -6 -16 -24 -15 -24 16 -22 c9 -13 28 -38 41 -57 l25 -34 0 -37 0 -37 -22 -20 c-36 -32 -63 -43 -110 -43 l-44 0 -24 16 c-14 10 -30 24 -37 32 l-12 14 -45 4 c-52 4 -104 27 -113 51 l-6 16 17 12 17 13 -14 5 -14 5 0 26 c0 14 3 26 8 26 5 0 9 10 9 23 0 26 31 56 71 67 31 9 36 3 17 -20 -7 -8 -1 -4 15 9 15 14 27 33 27 43 l0 19 10 -6 c6 -3 10 -14 10 -23z m-3253 -24 c-3 -13 -9 -35 -13 -50 l-6 -28 16 0 16 0 10 -26 10 -27 -13 -53 -14 -54 19 -16 c10 -10 18 -22 18 -29 l0 -12 -81 -6 -81 -7 -27 14 c-54 28 -66 97 -25 145 l26 31 24 0 24 0 0 50 0 50 17 20 17 20 34 0 34 0 -5 -22z m4200 -191 c2 -3 -14 -33 -36 -67 l-41 -63 0 -27 c0 -15 -5 -41 -11 -59 l-11 -32 -13 5 c-8 3 -19 -2 -25 -10 -14 -16 -36 -18 -45 -4 -3 5 5 26 17 47 44 73 88 174 88 203 l0 23 36 -6 c20 -3 38 -8 41 -10z"/>
<path d="M3972 1355 c-15 -32 -16 -58 -2 -50 6 3 10 15 10 26 l0 20 10 -6 c12 -7 13 5 2 23 l-9 13 -11 -26z"/>
<path d="M4070 1358 c15 -18 12 -32 -11 -46 l-20 -13 3 15 c2 8 -1 15 -6 16 -15 1 -15 -24 0 -45 l14 -18 19 22 c11 12 23 23 28 24 12 3 4 19 -18 40 -10 9 -14 12 -9 5z"/>
</g>
<g id="layer117" fill="#6eedf3" stroke="none">
<path d="M0 1530 l0 -1530 3060 0 3060 0 0 1530 0 1530 -3060 0 -3060 0 0 -1530z m5674 934 c9 -3 16 -15 16 -25 l0 -19 -52 -50 c-29 -28 -56 -50 -60 -50 -4 0 -8 -15 -8 -32 0 -18 -5 -51 -10 -73 -28 -113 -51 -248 -55 -324 -5 -88 -19 -189 -37 -274 l-10 -48 -13 11 -12 10 -7 -42 c-7 -44 -32 -82 -47 -72 -5 3 -9 0 -9 -5 0 -15 -34 -14 -74 3 l-33 14 -41 75 -42 76 0 31 0 32 29 29 29 29 29 -1 28 -2 -27 -4 c-32 -5 -34 -13 -12 -56 l17 -31 14 37 15 37 19 0 c22 0 25 13 5 29 l-13 11 55 153 c30 83 73 204 96 267 22 63 46 120 52 125 6 6 21 27 34 48 12 22 41 52 63 68 45 33 40 31 61 23z m-4953 -29 c0 -6 -8 -12 -18 -14 -10 -2 -22 -9 -26 -17 -4 -8 -14 -14 -21 -14 -8 0 -19 -7 -26 -15 l-13 -16 11 -22 c6 -12 17 -51 26 -87 42 -171 96 -359 113 -394 l20 -38 11 43 c6 24 24 139 40 254 17 116 37 228 45 250 l15 40 44 7 c63 10 158 9 158 -1 0 -4 -26 -14 -58 -20 -32 -6 -67 -18 -78 -25 l-19 -14 -5 -204 c-3 -112 -4 -205 -2 -207 1 -3 16 5 32 17 16 12 31 22 34 22 3 0 22 11 42 25 20 14 43 25 50 25 7 0 32 -33 55 -72 24 -40 55 -93 71 -117 l27 -44 5 14 c2 8 7 26 10 42 4 15 15 36 26 47 l20 20 33 0 c42 -1 68 -22 111 -95 l36 -60 0 -36 0 -37 -18 -23 -19 -22 -34 -1 c-19 -1 -47 3 -63 7 l-28 8 27 -48 c15 -26 41 -68 58 -93 l30 -45 1 -38 1 -39 -70 -44 c-38 -24 -79 -49 -90 -54 -11 -6 -30 -17 -43 -24 l-23 -13 42 -6 41 -5 24 -23 24 -22 0 -36 0 -36 -18 -22 c-20 -26 -142 -93 -168 -93 -11 0 -34 9 -51 20 l-33 20 0 46 c0 25 5 54 10 65 24 44 -31 6 -73 -52 -30 -40 -106 -86 -152 -91 -33 -3 -45 -14 -45 -40 l0 -18 15 0 c9 0 20 -12 25 -26 l10 -27 -13 -53 -14 -54 19 -16 c10 -10 18 -22 18 -29 l0 -12 -81 -6 -81 -7 -27 14 c-54 28 -66 97 -25 145 l26 31 24 0 24 0 0 43 0 42 -49 2 c-60 2 -98 21 -139 67 -37 42 -98 166 -107 217 l-7 37 10 6 c5 3 15 -1 22 -9 16 -19 33 -19 70 0 l30 16 0 -54 0 -53 34 -33 33 -32 7 32 c3 17 6 63 6 100 l0 69 -31 55 c-17 30 -36 58 -41 62 -6 3 -9 2 -5 -3 8 -13 -17 -115 -28 -114 -5 1 -11 -4 -14 -11 l-4 -12 12 7 11 7 -6 -15 c-3 -8 -13 -17 -21 -21 l-16 -6 -8 12 -7 12 -11 -8 -12 -7 17 39 c35 83 61 166 57 184 -3 10 -11 24 -19 30 -16 13 -18 62 -4 89 6 10 33 31 60 46 l50 27 0 21 c0 12 -7 46 -15 76 -38 138 -52 239 -67 484 l-3 50 30 8 c17 4 43 18 60 32 l29 23 28 -1 c16 -1 28 -6 29 -11z m1384 -10 c-24 -19 -80 -35 -122 -35 l-33 0 0 15 0 14 38 6 c20 4 44 8 52 10 8 1 31 3 50 4 l35 0 -20 -14z m320 -2 l30 -6 -40 -12 -40 -12 -67 5 -68 4 0 20 0 20 78 -7 c42 -3 91 -9 107 -12z m1640 -3 c4 -6 -1 -20 -11 -31 -23 -25 -26 -50 -10 -63 8 -6 19 -32 25 -58 l11 -47 0 -162 0 -162 31 -49 c17 -27 33 -47 34 -46 1 2 39 122 84 268 45 145 87 268 94 272 l11 7 -19 6 c-11 4 -35 13 -53 21 l-34 14 5 13 4 12 81 3 82 3 0 -17 c0 -9 -6 -22 -14 -28 l-14 -11 -46 -342 -46 -342 10 -25 c5 -13 14 -27 19 -31 13 -7 14 2 -35 -205 -39 -166 -79 -268 -121 -312 -30 -32 -45 -35 -63 -13 -7 8 -18 15 -25 15 l-13 0 5 -20 5 -20 -11 0 c-6 0 -10 4 -8 9 1 5 -2 11 -8 13 -13 4 -52 41 -54 51 0 4 -7 20 -16 37 -8 16 -15 38 -15 50 l0 20 -22 0 -23 0 -11 -23 c-17 -36 -76 -140 -93 -167 -9 -14 -23 -37 -31 -53 -7 -15 -24 -30 -36 -33 l-22 -6 -44 25 c-23 13 -60 34 -80 46 -121 68 -118 68 -98 15 6 -14 8 -41 5 -58 l-6 -32 -33 -22 c-18 -12 -40 -22 -50 -22 -28 0 -146 62 -183 96 l-33 31 0 35 0 34 30 29 29 28 38 6 37 6 -49 32 c-28 17 -79 46 -114 65 -35 18 -70 43 -78 55 l-15 23 16 32 c17 34 62 113 89 158 8 14 31 57 52 95 21 39 43 77 49 85 7 8 26 41 42 73 16 31 49 88 74 125 l45 67 21 3 c18 3 129 -49 144 -67 3 -3 23 -16 45 -28 50 -27 54 -39 16 -48 -16 -3 -41 -17 -55 -30 l-26 -24 0 -34 0 -34 21 -27 c11 -14 57 -44 102 -66 l82 -40 29 8 c16 4 39 20 50 35 l20 27 -11 53 c-12 57 -10 65 9 49 21 -17 109 -64 113 -60 2 2 -5 35 -15 73 l-19 70 6 238 c3 131 10 240 15 243 4 3 8 12 8 20 l0 14 -27 0 c-32 0 -97 36 -89 49 3 5 46 9 95 10 l89 2 7 -11z m974 -15 l29 -14 5 -43 c3 -24 14 -68 25 -99 11 -31 28 -103 37 -160 9 -57 21 -112 26 -121 l9 -18 -14 0 c-18 0 -96 -41 -96 -51 0 -4 -6 -9 -12 -12 l-13 -4 -2 86 c0 47 -10 146 -21 219 l-20 133 -16 18 c-10 10 -38 27 -64 36 -56 21 -67 29 -57 45 l8 13 74 -7 c40 -3 87 -12 102 -21z m-2973 -302 c17 -94 37 -188 44 -208 l12 -37 18 26 17 27 6 97 c4 53 15 131 25 172 l17 75 34 0 34 0 -2 -105 -2 -105 115 -72 c64 -40 117 -73 120 -73 3 0 0 15 -5 32 -14 49 -11 64 17 97 l26 31 44 0 45 0 73 -49 c77 -52 86 -64 86 -112 0 -57 -31 -87 -99 -98 l-34 -6 114 -75 114 -75 -1 -25 0 -25 -67 -102 c-37 -57 -71 -103 -76 -103 -5 0 -11 17 -15 38 l-6 38 -25 24 -25 24 -38 -1 -37 -1 -33 -39 c-88 -100 -107 -179 -56 -230 l25 -25 55 7 56 7 -11 -19 c-5 -10 -39 -58 -73 -108 l-64 -90 -24 -3 -25 -3 -45 29 c-65 42 -183 117 -196 125 l-11 6 -11 -23 -11 -24 24 -45 24 -44 -11 -36 -11 -37 18 -39 17 -40 -6 -25 c-3 -13 -21 -41 -40 -61 l-34 -36 -34 -5 -33 -5 -36 15 c-20 8 -50 31 -68 51 l-31 36 0 28 0 28 -17 15 c-10 8 -30 19 -46 26 -15 6 -32 23 -39 37 l-11 25 11 25 c7 14 12 34 12 44 l0 18 -40 16 -40 15 0 30 c0 16 16 61 35 98 19 38 35 74 35 80 0 7 8 15 17 18 l17 7 -28 22 -28 23 71 109 c39 61 71 115 71 121 l0 11 -49 -5 -50 -4 -25 27 -26 28 0 42 0 41 48 70 47 69 33 15 33 15 -5 50 c-12 107 -19 254 -13 270 l7 16 32 -3 31 -3 33 -172z m3014 -626 c8 -1 21 -8 29 -15 l13 -13 20 7 21 6 -6 -9 -6 -9 70 0 69 1 0 -21 c0 -12 -9 -32 -20 -45 l-20 -24 -11 18 -10 17 -55 -2 c-31 -1 -58 -7 -61 -12 l-6 -9 13 8 13 8 -7 -12 c-4 -6 -12 -9 -17 -6 -5 4 -9 1 -9 -4 0 -6 -7 -11 -15 -11 -18 0 -20 26 -3 36 l11 7 -8 -14 -9 -14 17 14 c19 15 14 33 -7 25 -8 -3 -17 -1 -20 5 -4 6 -13 8 -21 4 -8 -3 -15 -1 -15 5 0 5 -9 12 -20 15 l-20 5 0 19 c0 29 11 35 45 28 16 -4 37 -8 45 -8z m355 -32 l100 0 3 -17 c2 -10 7 -18 11 -18 4 0 5 -16 3 -35 l-4 -35 18 6 19 6 -17 -11 -17 -11 -7 -91 -7 -92 -37 -37 c-20 -20 -51 -43 -68 -51 l-30 -13 -5 -31 -5 -30 40 -42 41 -42 5 -49 4 -49 -27 -21 c-15 -12 -36 -22 -47 -22 -10 0 -32 -7 -48 -15 l-29 -15 -6 11 c-4 6 -4 25 -1 44 l7 33 -10 6 c-5 4 -16 19 -23 34 -8 15 -26 48 -41 73 l-27 46 30 39 c33 40 44 45 100 46 l35 0 -19 13 c-10 8 -24 11 -30 9 -19 -7 -36 19 -39 60 l-2 37 43 24 c24 13 52 31 63 41 l19 17 0 27 c0 37 -17 49 -81 55 -29 3 -55 8 -57 10 -3 2 1 18 8 34 l12 30 -7 22 -7 22 18 -9 c11 -5 64 -9 119 -9z m-826 -87 c-2 -2 -17 -14 -34 -28 l-30 -25 24 28 c14 15 29 27 34 27 6 0 8 -1 6 -2z m670 -239 l19 -31 -26 -39 -26 -39 -80 -39 -81 -40 -17 -30 -16 -29 -41 20 c-23 11 -41 21 -41 22 0 13 43 86 51 86 6 0 26 12 45 26 30 23 184 123 192 124 1 0 11 -14 21 -31z m-1189 -47 c0 -10 -9 -23 -20 -30 -11 -7 -20 -17 -20 -24 0 -7 7 -3 15 8 l14 19 1 -13 c0 -7 8 -15 18 -19 9 -3 29 -17 43 -30 l26 -24 6 31 7 31 33 14 c19 8 43 12 54 9 l21 -6 -19 -19 c-25 -25 -24 -32 10 -71 39 -46 51 -71 51 -111 l0 -34 -22 -20 c-36 -32 -63 -43 -109 -43 l-42 0 -32 20 c-18 11 -35 26 -38 34 l-5 13 -30 -5 -30 -4 -46 21 c-25 11 -49 28 -53 37 l-6 17 17 12 17 13 -14 5 -14 5 0 26 c0 14 3 26 8 26 5 0 9 10 9 23 0 26 31 56 71 67 31 9 36 3 17 -20 -7 -8 -1 -4 15 9 15 14 27 33 27 43 l0 19 10 -6 c6 -3 10 -14 10 -23z m947 -215 c2 -3 -14 -33 -36 -67 l-41 -63 0 -27 c0 -15 -5 -41 -11 -59 l-11 -32 -13 5 c-8 3 -19 -2 -25 -10 -14 -16 -36 -18 -45 -4 -3 5 5 26 17 47 44 73 88 174 88 203 l0 23 36 -6 c20 -3 38 -8 41 -10z"/>
<path d="M805 1080 l-20 -9 23 0 c12 -1 22 4 22 9 0 6 -1 10 -2 9 -2 0 -12 -4 -23 -9z"/>
</g>
<g id="layer118" fill="#f6b3ab" stroke="none">
<path d="M0 1530 l0 -1530 3060 0 3060 0 0 1530 0 1530 -3060 0 -3060 0 0 -1530z m5674 934 c9 -3 16 -15 16 -25 l0 -19 -52 -50 c-29 -28 -56 -50 -60 -50 -4 0 -8 -15 -8 -32 0 -18 -5 -51 -10 -73 -28 -113 -51 -248 -55 -324 -5 -84 -15 -158 -36 -272 l-11 -55 41 -67 c23 -37 41 -72 41 -77 0 -6 4 -10 9 -10 5 0 14 -14 21 -31 l13 -31 -16 -9 -16 -9 -7 -91 -7 -92 -37 -37 c-20 -20 -51 -43 -68 -51 l-30 -13 -5 -31 -5 -30 40 -42 41 -42 5 -49 4 -49 -27 -21 c-15 -12 -36 -22 -47 -22 -10 0 -32 -7 -48 -15 l-29 -15 -6 11 c-4 6 -4 25 -1 44 l7 33 -10 6 c-5 4 -16 19 -23 34 -8 15 -26 48 -41 73 l-27 46 30 39 c33 40 44 45 100 46 l35 0 -19 14 c-10 7 -23 11 -28 8 -15 -10 -36 15 -42 51 l-7 35 -18 -12 -19 -11 18 -29 18 -30 -26 -39 -26 -39 -80 -39 -81 -40 -17 -30 -16 -29 -41 20 c-23 11 -41 21 -41 23 0 1 7 16 15 31 l15 29 -32 5 -33 5 -60 99 c-34 55 -66 101 -73 104 l-12 4 0 -24 c0 -12 -9 -37 -19 -54 l-19 -31 -26 -7 -26 -6 -34 14 -34 14 -31 46 c-18 25 -39 63 -47 83 l-15 36 6 26 c4 14 16 36 27 49 l21 22 34 0 c19 0 43 -5 55 -11 11 -6 22 -9 24 -6 2 2 -25 51 -61 108 -68 109 -76 136 -47 161 9 8 113 75 231 148 l214 133 -7 86 c-3 47 -15 144 -25 215 l-19 128 -18 19 c-11 10 -41 27 -69 37 l-50 20 0 13 0 14 77 -2 76 -2 30 -15 30 -15 5 -43 c3 -24 14 -70 26 -103 11 -33 29 -109 39 -169 l19 -110 14 -7 c8 -4 22 -10 32 -13 14 -5 54 -59 103 -142 l10 -18 53 150 c122 342 136 379 147 389 6 6 21 27 34 48 12 22 41 52 63 68 45 33 40 31 61 23z m-4953 -29 c0 -6 -8 -12 -18 -14 -10 -2 -22 -9 -26 -17 -4 -8 -14 -14 -21 -14 -8 0 -19 -7 -26 -15 l-13 -16 11 -22 c6 -12 17 -51 26 -87 42 -171 96 -359 113 -394 l20 -38 11 43 c6 24 24 139 40 254 17 116 37 228 45 250 l15 40 44 7 c63 10 158 9 158 -1 0 -4 -26 -14 -58 -20 -32 -6 -67 -18 -78 -25 l-19 -14 -5 -204 c-3 -112 -4 -205 -2 -207 1 -3 16 5 32 17 16 12 31 22 34 22 3 0 22 11 42 25 20 14 43 25 50 25 7 0 32 -33 55 -72 24 -40 55 -93 71 -117 l27 -44 5 14 c2 8 7 26 10 42 4 15 15 36 26 47 l20 20 33 0 c42 -1 68 -22 111 -95 l36 -60 0 -36 0 -37 -18 -23 -19 -22 -34 -1 c-19 -1 -47 3 -63 7 l-28 8 27 -48 c15 -26 41 -68 58 -93 l30 -45 1 -38 1 -39 -70 -44 c-38 -24 -79 -49 -90 -54 -11 -6 -30 -17 -43 -24 l-23 -13 42 -6 41 -5 24 -23 24 -22 0 -36 0 -36 -18 -22 c-20 -26 -142 -93 -168 -93 -11 0 -34 9 -51 20 l-33 20 0 46 c0 25 5 54 10 65 24 44 -31 6 -73 -52 -30 -40 -106 -86 -152 -91 -33 -3 -45 -14 -45 -40 l0 -18 15 0 c9 0 20 -12 25 -26 l10 -27 -13 -53 -14 -54 19 -16 c10 -10 18 -22 18 -29 l0 -12 -81 -6 -81 -7 -27 14 c-54 28 -66 97 -25 145 l26 31 24 0 24 0 0 43 0 42 -49 2 c-60 2 -98 21 -139 67 -37 42 -98 166 -107 217 l-7 37 10 6 c5 3 15 -1 22 -9 16 -19 33 -19 70 0 l30 16 0 -54 0 -53 34 -33 33 -32 7 32 c3 17 6 63 6 100 l0 69 -31 55 c-17 30 -36 58 -41 62 -6 3 -9 2 -5 -3 8 -13 -17 -115 -28 -114 -5 1 -11 -4 -14 -11 l-4 -12 12 7 11 7 -6 -15 c-3 -8 -13 -17 -21 -21 l-16 -6 -8 12 -7 12 -11 -8 -12 -7 17 39 c35 83 61 166 57 184 -3 10 -11 24 -19 30 -16 13 -18 62 -4 89 6 10 33 31 60 46 l50 27 0 21 c0 12 -7 46 -15 76 -38 138 -52 239 -67 484 l-3 50 30 8 c17 4 43 18 60 32 l29 23 28 -1 c16 -1 28 -6 29 -11z m1384 -10 c-24 -19 -80 -35 -122 -35 l-33 0 0 15 0 14 38 6 c20 4 44 8 52 10 8 1 31 3 50 4 l35 0 -20 -14z m320 -2 l30 -6 -40 -12 -40 -12 -67 5 -68 4 0 20 0 20 78 -7 c42 -3 91 -9 107 -12z m1640 -3 c4 -6 -1 -20 -11 -31 -23 -25 -26 -50 -10 -63 8 -6 19 -32 25 -58 l11 -47 0 -162 0 -162 31 -49 c17 -27 33 -47 34 -46 1 2 39 122 84 268 45 145 87 268 94 272 l11 7 -19 6 c-11 4 -35 13 -53 21 l-34 14 5 13 4 12 81 3 82 3 0 -17 c0 -9 -6 -22 -14 -28 l-14 -11 -46 -342 -46 -342 10 -25 c5 -13 14 -27 19 -31 13 -7 14 2 -35 -205 -39 -166 -79 -268 -121 -312 -30 -32 -45 -35 -63 -13 -7 8 -18 15 -25 15 l-13 0 5 -20 5 -20 -11 0 c-6 0 -10 4 -8 9 1 5 -2 11 -8 13 -13 4 -52 41 -54 51 0 4 -7 20 -16 37 -8 16 -15 38 -15 50 l0 20 -22 0 -23 0 -11 -23 c-17 -36 -76 -140 -93 -167 -9 -14 -23 -37 -31 -53 -7 -15 -24 -30 -36 -33 l-22 -6 -44 25 c-23 13 -60 34 -80 46 -121 68 -118 68 -98 15 6 -14 8 -41 5 -58 l-6 -32 -33 -22 c-18 -12 -40 -22 -50 -22 -28 0 -146 62 -183 96 l-33 31 0 35 0 34 30 29 29 28 38 6 37 6 -49 32 c-28 17 -79 46 -114 65 -35 18 -70 43 -78 55 l-15 23 16 32 c17 34 62 113 89 158 8 14 31 57 52 95 21 39 43 77 49 85 7 8 26 41 42 73 16 31 49 88 74 125 l45 67 21 3 c18 3 129 -49 144 -67 3 -3 23 -16 45 -28 50 -27 54 -39 16 -48 -16 -3 -41 -17 -55 -30 l-26 -24 0 -34 0 -34 21 -27 c11 -14 57 -44 102 -66 l82 -40 29 8 c16 4 39 20 50 35 l20 27 -11 53 c-12 57 -10 65 9 49 21 -17 109 -64 113 -60 2 2 -5 35 -15 73 l-19 70 6 238 c3 131 10 240 15 243 4 3 8 12 8 20 l0 14 -27 0 c-32 0 -97 36 -89 49 3 5 46 9 95 10 l89 2 7 -11z m-1999 -317 c17 -94 37 -188 44 -208 l12 -37 18 26 17 27 6 97 c4 53 15 131 25 172 l17 75 34 0 34 0 -2 -105 -2 -105 115 -72 c64 -40 117 -73 120 -73 3 0 0 15 -5 32 -14 49 -11 64 17 97 l26 31 44 0 45 0 73 -49 c77 -52 86 -64 86 -112 0 -57 -31 -87 -99 -98 l-34 -6 114 -75 114 -75 -1 -25 0 -25 -67 -102 c-37 -57 -71 -103 -76 -103 -5 0 -11 17 -15 38 l-6 38 -25 24 -25 24 -38 -1 -37 -1 -33 -39 c-88 -100 -107 -179 -56 -230 l25 -25 55 7 56 7 -11 -19 c-5 -10 -39 -58 -73 -108 l-64 -90 -24 -3 -25 -3 -45 29 c-65 42 -183 117 -196 125 l-11 6 -11 -23 -11 -24 24 -45 24 -44 -11 -36 -11 -37 18 -39 17 -40 -6 -25 c-3 -13 -21 -41 -40 -61 l-34 -36 -34 -5 -33 -5 -36 15 c-20 8 -50 31 -68 51 l-31 36 0 28 0 28 -17 15 c-10 8 -30 19 -46 26 -15 6 -32 23 -39 37 l-11 25 11 25 c7 14 12 34 12 44 l0 18 -40 16 -40 15 0 30 c0 16 16 61 35 98 19 38 35 74 35 80 0 7 8 15 17 18 l17 7 -28 22 -28 23 71 109 c39 61 71 115 71 121 l0 11 -49 -5 -50 -4 -25 27 -26 28 0 42 0 41 48 70 47 69 33 15 33 15 -5 50 c-12 107 -19 254 -13 270 l7 16 32 -3 31 -3 33 -172z m2024 -1031 c0 -10 -9 -23 -20 -30 -11 -7 -20 -17 -20 -24 0 -7 7 -3 15 8 l14 19 1 -13 c0 -7 8 -15 18 -19 9 -3 29 -17 43 -30 l26 -24 6 31 7 31 33 14 c19 8 43 12 54 9 l21 -6 -19 -19 c-25 -25 -24 -32 10 -71 39 -46 51 -71 51 -111 l0 -34 -22 -20 c-36 -32 -63 -43 -109 -43 l-42 0 -32 20 c-18 11 -35 26 -38 34 l-5 13 -30 -5 -30 -4 -46 21 c-25 11 -49 28 -53 37 l-6 17 17 12 17 13 -14 5 -14 5 0 26 c0 14 3 26 8 26 5 0 9 10 9 23 0 26 31 56 71 67 31 9 36 3 17 -20 -7 -8 -1 -4 15 9 15 14 27 33 27 43 l0 19 10 -6 c6 -3 10 -14 10 -23z m947 -215 c2 -3 -14 -33 -36 -67 l-41 -63 0 -27 c0 -15 -5 -41 -11 -59 l-11 -32 -13 5 c-8 3 -19 -2 -25 -10 -14 -16 -36 -18 -45 -4 -3 5 5 26 17 47 44 73 88 174 88 203 l0 23 36 -6 c20 -3 38 -8 41 -10z"/>
<path d="M5290 1429 c0 -13 -7 -35 -16 -47 -9 -13 -14 -25 -11 -28 8 -8 37 26 43 52 l7 25 -12 12 -11 11 0 -25z"/>
<path d="M940 1793 l1 -78 25 29 26 29 -7 36 c-7 37 -21 61 -36 61 -5 0 -9 -35 -9 -77z"/>
<path d="M700 902 c0 -11 4 -23 8 -26 10 -6 9 30 -1 40 -4 4 -7 -2 -7 -14z"/>
<path d="M3853 1413 c-24 -2 -43 -9 -43 -14 l0 -11 29 7 30 6 20 -10 20 -11 6 11 c4 6 17 14 29 19 l21 9 -35 -1 c-19 -1 -54 -3 -77 -5z"/>
<path d="M3725 1386 c-16 -8 -42 -17 -57 -20 l-28 -6 0 -15 c0 -7 5 -17 11 -20 11 -8 139 54 139 67 0 12 -32 9 -65 -6z"/>
<path d="M3972 1355 c-7 -14 -12 -34 -11 -43 0 -9 7 -1 14 18 7 19 14 29 14 21 1 -8 4 -12 7 -8 3 3 2 13 -3 22 l-9 16 -12 -26z"/>
<path d="M4068 1360 c17 -20 15 -33 -9 -48 l-20 -13 3 15 c2 8 -1 15 -6 16 -15 1 -15 -28 -1 -40 l14 -12 25 19 c31 22 32 35 4 59 -13 10 -17 12 -10 4z"/>
<path d="M2240 1543 c-19 -9 -66 -23 -103 -32 l-68 -17 19 -25 c11 -13 22 -33 25 -44 l5 -20 1 17 1 17 43 25 c23 14 66 30 95 36 53 12 87 34 77 51 -9 14 -56 10 -95 -8z"/>
<path d="M2106 1057 l-30 -32 3 -22 c1 -13 -2 -23 -8 -23 -19 0 -12 -39 8 -50 35 -18 51 -41 51 -70 0 -34 15 -47 35 -30 l15 12 0 43 0 42 -26 49 -26 49 5 32 c3 18 5 33 4 33 -1 -1 -15 -15 -31 -33z"/>
<path d="M4083 993 c-18 -7 -16 -20 2 -20 8 0 15 6 15 14 0 7 -1 13 -2 12 -2 0 -9 -3 -15 -6z"/>
<path d="M3996 929 l7 -11 -24 7 -24 7 11 -12 12 -12 21 7 c21 6 20 25 0 25 -6 0 -7 -5 -3 -11z"/>
</g>
<g id="layer119" fill="#ffffff" stroke="none">
<path d="M0 1530 l0 -1530 3060 0 3060 0 0 1530 0 1530 -3060 0 -3060 0 0 -1530z m5674 934 c9 -3 16 -15 16 -25 l0 -19 -52 -50 c-29 -28 -56 -50 -60 -50 -4 0 -8 -15 -8 -32 0 -18 -5 -51 -10 -73 -28 -113 -51 -248 -55 -324 -5 -84 -15 -158 -36 -272 l-11 -56 61 -99 c65 -105 70 -119 46 -128 l-15 -5 0 -71 0 -71 -14 -32 c-15 -37 -59 -78 -106 -98 l-30 -14 0 -35 0 -34 36 -37 37 -38 5 -49 4 -49 -27 -21 c-15 -12 -36 -22 -47 -22 -10 0 -32 -7 -48 -15 l-29 -15 -6 9 c-3 6 -5 22 -3 38 l2 28 -46 85 c-25 47 -43 91 -41 98 7 18 1 16 -81 -24 l-74 -36 -7 -26 c-3 -14 -20 -41 -36 -59 -40 -46 -79 -126 -79 -162 0 -33 -19 -81 -32 -81 -4 0 -8 5 -8 12 l0 11 -18 -16 c-20 -18 -48 -22 -56 -9 -3 5 13 37 34 73 22 35 51 96 64 136 l25 73 -9 5 c-5 3 2 24 15 48 l25 42 -33 5 -32 5 -60 99 c-34 55 -66 101 -73 104 l-12 4 0 -24 c0 -12 -9 -37 -19 -54 l-19 -31 -26 -7 -26 -6 -34 14 -34 14 -31 46 c-18 25 -39 63 -47 83 l-15 36 6 26 c4 14 16 36 27 49 l21 22 34 0 c19 0 43 -5 55 -11 11 -6 22 -9 24 -6 2 2 -25 51 -61 108 -68 109 -76 136 -47 161 9 8 113 75 231 148 l214 133 -7 86 c-3 47 -15 144 -25 215 l-19 128 -18 19 c-11 10 -41 27 -69 37 l-50 20 0 13 0 14 77 -2 76 -2 30 -15 30 -15 5 -43 c3 -24 14 -70 26 -103 11 -33 29 -109 39 -169 l19 -110 14 -7 c8 -4 22 -10 32 -13 14 -5 54 -59 103 -142 l10 -18 53 150 c122 342 136 379 147 389 6 6 21 27 34 48 12 22 41 52 63 68 45 33 40 31 61 23z m-4953 -29 c0 -6 -8 -12 -18 -14 -10 -2 -22 -9 -26 -17 -4 -8 -14 -14 -21 -14 -8 0 -19 -7 -26 -15 l-13 -16 11 -22 c6 -12 17 -51 26 -87 42 -171 96 -359 113 -394 l20 -38 11 43 c6 24 24 139 40 254 17 116 37 228 45 250 l15 40 44 7 c63 10 158 9 158 -1 0 -4 -27 -14 -61 -20 l-60 -12 -20 -20 -19 -19 0 -195 c0 -107 3 -195 6 -195 3 0 37 18 75 41 38 23 75 39 82 36 7 -2 41 -53 77 -112 l64 -108 13 39 c7 22 23 47 34 57 l21 17 37 0 38 0 20 -22 c28 -32 81 -123 89 -152 l6 -24 -16 -31 c-26 -48 -80 -66 -128 -40 -11 6 -21 9 -22 7 -2 -2 23 -46 55 -98 l58 -95 0 -31 1 -31 -17 -14 c-10 -8 -34 -23 -53 -34 -19 -10 -62 -36 -95 -57 l-60 -38 35 0 35 0 30 -24 30 -24 0 -40 c0 -50 -12 -64 -96 -113 l-67 -39 -32 0 -32 0 -30 30 -30 31 5 32 c3 18 8 40 12 50 l7 18 -23 -11 c-14 -6 -35 -27 -49 -46 -27 -40 -105 -89 -156 -99 l-34 -6 0 -17 c0 -9 9 -23 20 -30 l20 -12 0 -56 c0 -30 -5 -64 -11 -75 l-11 -21 16 -17 c9 -10 16 -22 16 -28 l0 -10 -81 -6 -81 -7 -27 14 c-73 38 -63 140 17 178 l27 13 0 30 0 29 -55 11 c-69 14 -89 25 -128 69 -35 40 -96 163 -107 214 l-7 34 20 21 c10 12 35 61 54 109 l36 87 -20 31 -19 32 3 37 3 36 50 33 c28 18 54 41 58 51 l9 18 -17 64 c-40 145 -52 238 -68 493 l-2 40 30 8 c17 4 43 18 60 32 l29 23 28 -1 c16 -1 28 -6 29 -11z m1387 -8 c-10 -7 -35 -24 -57 -39 l-39 -28 9 -37 c5 -21 23 -110 39 -198 17 -88 38 -184 46 -214 l15 -54 18 27 18 27 6 97 c4 53 17 142 31 197 13 55 27 118 30 140 4 22 9 53 12 68 l6 28 86 -7 c48 -4 95 -10 105 -13 l18 -7 -75 -22 c-41 -13 -79 -29 -85 -36 l-11 -13 -6 -149 -6 -149 115 -72 c64 -40 118 -73 121 -73 3 0 0 15 -5 32 -14 49 -11 64 17 97 l26 31 44 0 45 0 73 -49 c77 -52 86 -64 86 -112 0 -57 -31 -87 -99 -98 l-34 -6 114 -75 114 -75 -1 -25 0 -25 -67 -102 c-37 -57 -71 -103 -76 -103 -5 0 -11 17 -15 38 l-6 38 -25 24 -25 24 -35 -1 c-42 -1 -46 -4 -86 -55 l-33 -41 47 6 c26 4 61 14 78 23 l31 16 10 -10 9 -9 -25 -21 c-14 -11 -47 -23 -73 -26 -27 -4 -62 -14 -79 -21 l-32 -15 -4 -22 c-2 -13 0 -38 4 -55 l9 -33 24 -16 24 -16 52 7 51 7 -11 -18 c-5 -11 -39 -59 -73 -109 l-64 -90 -24 -3 -25 -3 -65 42 c-36 23 -92 59 -125 80 l-59 39 -8 -13 c-13 -21 -9 -48 14 -85 l21 -35 -11 -43 -12 -44 16 -34 17 -34 -7 -28 c-4 -15 -24 -45 -45 -66 l-39 -38 -31 0 c-17 0 -46 6 -64 14 -39 16 -97 79 -97 106 0 35 -12 50 -56 69 l-43 20 -7 25 c-3 14 -1 41 6 60 14 43 9 52 -36 71 l-34 14 0 29 c0 34 23 94 51 134 11 14 19 33 19 41 0 8 8 18 17 21 l17 7 -28 22 -28 23 71 109 c39 61 71 115 71 121 l0 11 -49 -5 -50 -4 -25 27 -26 28 0 42 0 41 48 70 47 69 33 15 33 15 -6 55 c-4 30 -9 119 -10 198 -2 78 -6 160 -10 182 l-7 39 39 6 c21 4 45 8 53 10 8 1 31 3 50 4 l35 0 -17 -12z m1957 -7 c4 -6 -1 -20 -11 -31 l-17 -19 18 -52 19 -53 5 -190 6 -190 29 -43 c16 -23 30 -41 31 -40 5 6 165 531 165 541 0 7 -19 20 -41 29 l-41 17 4 13 5 13 81 3 82 3 0 -17 c0 -10 -6 -25 -14 -33 l-14 -16 -46 -337 -46 -337 10 -25 c5 -13 14 -27 19 -31 12 -7 14 2 -35 -205 l-36 -155 -33 -70 -32 -70 -41 -37 c-23 -20 -42 -42 -41 -50 0 -7 18 -28 39 -46 l37 -32 7 30 6 31 33 14 c19 8 43 12 54 9 l21 -6 -19 -19 c-25 -25 -24 -32 10 -71 39 -46 51 -71 51 -111 l0 -34 -22 -20 c-36 -32 -63 -43 -110 -43 l-44 0 -24 16 c-14 10 -30 24 -37 32 l-12 14 -43 2 -44 2 -34 20 -35 20 -3 67 -3 68 18 30 18 30 25 6 c29 7 50 21 50 35 0 5 -12 20 -27 34 -15 14 -28 30 -29 37 -6 32 -35 85 -50 91 -9 4 -17 5 -18 4 -1 -2 -7 -14 -15 -28 -8 -14 -28 -50 -44 -80 -17 -30 -37 -66 -46 -80 -9 -14 -23 -37 -31 -53 -7 -15 -24 -30 -36 -33 l-22 -6 -44 25 c-23 13 -60 34 -80 46 -121 68 -118 68 -98 15 6 -14 8 -41 5 -58 l-6 -32 -33 -22 c-18 -12 -40 -22 -50 -22 -28 0 -146 62 -183 96 l-33 31 0 35 0 34 30 29 29 28 38 6 37 6 -49 32 c-28 17 -79 46 -114 65 -35 18 -70 43 -78 55 l-15 23 16 32 c17 34 62 113 89 158 8 14 31 57 52 95 21 39 43 77 49 85 7 8 26 41 42 73 16 31 49 88 74 125 l45 67 21 3 c18 3 129 -49 144 -67 3 -3 23 -16 45 -28 50 -27 54 -39 16 -48 -16 -3 -41 -17 -55 -30 l-26 -24 0 -34 0 -34 21 -27 c11 -14 57 -44 102 -66 l82 -40 29 8 c16 4 39 20 50 35 l20 27 -11 53 c-12 57 -10 65 9 49 21 -17 109 -64 113 -60 2 2 -5 35 -15 73 l-19 70 6 238 6 238 9 5 9 6 -12 14 c-6 8 -19 14 -28 14 -23 0 -83 38 -77 49 3 5 46 9 95 10 l89 2 7 -11z"/>
<path d="M5240 1740 c0 -6 7 -25 16 -42 l16 -32 14 33 c19 46 18 51 -16 51 -16 0 -30 -5 -30 -10z"/>
<path d="M940 1795 l0 -79 21 21 21 20 1 37 1 36 -22 22 -22 22 0 -79z"/>
<path d="M575 1443 c-4 -21 -11 -53 -15 -71 l-8 -32 9 5 9 6 0 -53 0 -54 34 -33 33 -32 7 32 c3 17 6 62 6 100 l0 69 -31 50 c-17 27 -32 50 -34 50 -2 0 -7 -17 -10 -37z"/>
<path d="M3965 1340 c-4 -12 -5 -24 -2 -27 3 -2 8 5 12 17 4 12 5 24 2 27 -3 2 -8 -5 -12 -17z"/>
<path d="M4164 920 c-1 -17 -11 -45 -23 -61 l-22 -29 25 0 25 0 15 22 c21 29 20 51 -1 77 l-18 22 -1 -31z"/>
</g>


</svg>