<!DOCTYPE svg PUBLIC "-//W3C//DTD SVG 20010904//EN" "http://www.w3.org/TR/2001/REC-SVG-20010904/DTD/svg10.dtd">
<svg version="1.0" xmlns="http://www.w3.org/2000/svg" width="1200px" height="630px" viewBox="0 0 12000 6300" preserveAspectRatio="xMidYMid meet">
<g id="layer101" fill="#111211" stroke="none">
<path d="M5810 5450 c-200 -27 -322 -56 -515 -122 -90 -30 -314 -135 -390 -182 -22 -14 -54 -32 -70 -41 -113 -57 -424 -337 -541 -486 l-60 -75 -34 -330 c-35 -334 -40 -435 -26 -490 l8 -31 -156 -112 c-86 -62 -164 -124 -173 -137 l-16 -25 -29 -377 c-16 -207 -32 -402 -36 -432 l-7 -55 -51 -6 c-54 -7 -83 -19 -104 -43 l-12 -16 -72 0 -72 0 -30 -22 c-44 -33 -112 -96 -166 -152 l-48 -50 0 -248 0 -248 374 0 c206 0 381 -3 390 -6 l16 -6 0 232 0 233 36 41 c34 38 98 110 165 182 16 17 29 33 29 35 0 2 -81 4 -179 4 -99 0 -183 3 -186 7 -4 4 8 56 28 115 19 59 72 237 117 394 l82 286 52 31 c28 17 65 40 82 52 l30 20 68 -293 c37 -160 74 -321 83 -356 l16 -64 41 -61 c47 -70 117 -126 196 -158 l55 -23 422 -3 422 -3 6 -57 c4 -31 11 -81 16 -111 5 -30 9 -65 9 -77 l0 -23 -18 -5 c-10 -3 -26 -20 -36 -37 l-18 -31 5 -35 c4 -20 14 -44 23 -54 l17 -19 31 0 31 -1 33 -56 32 -56 0 -42 0 -42 18 -16 c10 -10 23 -17 28 -17 5 0 28 -23 52 -50 l43 -50 49 -25 c27 -14 73 -28 103 -31 l54 -6 58 17 58 16 57 57 56 57 17 48 c9 26 23 55 32 64 l17 16 -6 41 c-9 63 -9 68 5 123 l13 51 29 6 28 6 14 34 15 35 -10 28 c-6 15 -26 42 -44 58 l-34 30 -7 78 -6 77 185 0 186 0 -10 -26 c-23 -59 0 -135 57 -191 l33 -32 35 -7 c44 -8 93 -1 139 21 l35 17 27 46 26 47 -6 63 -5 62 67 1 c37 0 166 5 287 11 121 5 267 11 325 11 l104 2 208 -270 c115 -148 256 -333 314 -409 l106 -139 -7 -41 c-4 -23 -8 -77 -9 -121 l-3 -80 -27 -67 c-15 -37 -26 -77 -24 -89 3 -22 10 -27 58 -47 14 -5 47 -20 73 -31 27 -12 61 -24 77 -27 l28 -6 17 26 c10 14 24 26 31 26 l14 0 0 43 c0 23 5 49 10 57 l9 14 24 -22 c13 -12 26 -22 30 -22 13 0 7 31 -13 70 l-20 39 10 27 10 26 23 -16 c12 -9 30 -21 40 -26 l17 -11 6 16 6 15 -28 23 c-15 12 -32 25 -37 28 l-10 7 18 51 19 50 -19 21 c-10 11 -23 20 -30 20 -6 0 -34 11 -62 24 l-50 25 -232 577 c-128 317 -243 594 -256 614 -13 20 -42 53 -64 72 l-41 35 -195 63 -195 64 0 27 0 27 -87 20 c-49 11 -125 28 -170 38 l-83 17 0 13 c0 7 -15 32 -34 57 -36 47 -50 78 -51 114 l-1 22 75 7 76 7 62 -13 62 -12 38 12 c55 18 91 47 112 88 10 21 78 209 152 419 l134 383 15 0 15 0 19 73 c10 39 18 95 19 124 l0 51 -28 34 c-15 18 -34 37 -42 41 -23 14 -111 17 -162 6 -25 -5 -82 -16 -126 -25 -44 -8 -87 -17 -95 -19 l-15 -5 3 184 3 184 -43 33 c-24 19 -47 39 -53 45 -35 41 -404 250 -490 277 -11 3 -36 13 -55 20 -58 23 -152 54 -215 70 -33 9 -78 20 -100 26 -22 6 -83 17 -135 26 l-95 16 -230 4 c-126 2 -259 0 -295 -5z m1144 -537 c22 -114 68 -424 64 -428 -3 -3 -30 -8 -59 -11 -98 -10 -138 -34 -171 -103 -10 -20 -17 -34 -18 -31 0 3 -18 131 -40 285 -21 153 -38 280 -36 282 6 7 166 31 208 32 l46 1 6 -27z m-293 -26 c-13 -13 -26 -3 -16 12 3 6 11 8 17 5 l10 -6 -11 -11z m39 -232 c0 -8 -4 -15 -10 -15 -5 0 -10 7 -10 15 0 8 5 15 10 15 6 0 10 -7 10 -15z m30 -205 c0 -5 -4 -10 -9 -10 -6 0 -13 5 -16 10 l-6 10 15 0 c9 0 16 -4 16 -10z m320 -121 l0 -21 -15 12 c-15 12 -12 30 6 30 5 0 9 -10 9 -21z m535 -9 c-3 -10 -21 -54 -40 -97 l-34 -78 -1 98 0 97 41 0 40 0 -6 -20z m-500 -130 c50 -54 91 -108 93 -120 l4 -22 -64 -56 c-34 -31 -101 -95 -148 -141 l-85 -83 -122 128 c-68 71 -123 132 -123 136 0 4 24 29 53 55 28 26 76 72 105 103 l53 55 13 -17 12 -16 32 15 c17 8 41 25 54 38 13 13 25 23 28 23 3 0 46 -44 95 -98z m35 -287 c1 -49 35 -197 55 -240 14 -31 25 -68 25 -83 l0 -28 -47 15 -48 15 -88 -6 -89 -6 -44 -19 -44 -20 -10 40 -11 41 16 25 c9 14 44 50 77 82 33 31 90 86 127 122 64 64 81 77 81 62z m-16 -717 c47 -14 86 -41 86 -58 0 -12 -22 -10 -39 6 -18 15 -96 36 -135 36 l-26 0 0 15 0 15 33 0 c19 0 55 -6 81 -14z m-1065 -810 c25 -16 -3 -26 -68 -24 l-68 1 -33 -17 c-40 -20 -50 -20 -50 -2 l0 13 59 20 c59 19 136 23 160 9z m-2091 -383 l2 -183 -290 0 -290 0 0 178 c0 98 3 182 7 185 4 4 133 6 287 5 l281 -3 3 -182z"/>
</g>
<g id="layer102" fill="#323131" stroke="none">
<path d="M5810 5450 c-36 -5 -96 -14 -134 -21 l-69 -11 13 -8 13 -8 -13 -170 -13 -170 -211 -7 c-116 -3 -303 -5 -416 -3 l-205 3 38 24 c21 13 36 25 33 28 -14 14 -269 -190 -396 -316 -53 -53 -123 -130 -156 -172 l-60 -75 -34 -330 c-35 -334 -40 -435 -26 -490 l8 -31 -156 -112 c-86 -62 -164 -124 -173 -137 l-16 -25 -29 -377 c-16 -207 -32 -402 -36 -432 l-7 -55 -51 -6 c-54 -7 -83 -19 -104 -43 l-12 -16 -71 0 -71 0 -38 -26 c-36 -25 -53 -44 -25 -28 6 4 3 -2 -7 -14 -20 -23 -32 -30 -21 -12 12 20 -2 9 -31 -22 l-29 -33 28 24 c51 46 27 9 -48 -72 l-75 -80 0 -229 0 -228 374 0 c206 0 381 -3 390 -6 l16 -6 0 232 0 233 36 41 c34 38 98 110 165 182 16 17 29 33 29 35 0 2 -81 4 -179 4 -99 0 -183 3 -186 7 -4 4 8 56 28 115 19 59 72 237 117 394 l82 286 52 31 c28 17 65 40 82 52 l30 20 68 -293 c37 -160 74 -321 83 -356 l16 -64 41 -61 c47 -70 117 -126 196 -158 l55 -23 423 -3 423 -3 -8 28 c-3 15 -7 51 -7 79 l-1 50 25 37 c14 20 39 44 56 52 34 16 439 76 521 77 l53 1 35 -27 c19 -15 42 -40 50 -55 14 -28 34 -157 36 -241 1 -25 4 -35 6 -22 l4 22 183 0 182 0 45 43 44 42 -36 32 c-20 18 -51 60 -68 93 l-33 61 -5 74 -6 74 17 53 c10 29 24 63 32 76 l15 23 14 -11 14 -11 20 10 20 11 -6 48 -5 47 21 19 20 19 -10 19 c-6 11 -8 22 -5 25 3 3 11 -6 17 -21 l12 -26 -18 -20 -18 -20 -3 -82 c-3 -94 10 -177 36 -228 40 -78 119 -129 200 -130 l45 0 50 24 c87 40 147 105 159 170 3 15 10 34 16 41 l11 13 -7 28 -7 27 18 13 17 13 -6 28 -7 28 11 -15 c15 -22 12 -51 -6 -65 l-17 -12 13 -22 12 -23 -18 -19 -17 -18 17 -26 17 -26 21 7 21 6 -6 -53 c-7 -69 -45 -156 -91 -207 -43 -48 -137 -98 -201 -108 l-46 -6 4 -11 3 -11 65 3 c35 2 168 7 294 13 127 6 277 11 335 12 l104 1 208 -270 c115 -148 256 -333 314 -409 l106 -139 -7 -41 c-4 -23 -8 -77 -9 -121 l-3 -80 -27 -67 c-15 -37 -26 -77 -24 -89 3 -22 10 -27 58 -47 14 -5 47 -20 73 -31 27 -12 61 -24 77 -27 l28 -6 17 26 c10 14 24 26 31 26 l14 0 0 43 c0 23 5 49 10 57 l9 14 24 -22 c13 -12 26 -22 30 -22 13 0 7 31 -13 70 l-20 39 10 27 10 26 23 -16 c12 -9 30 -21 40 -26 l17 -11 6 16 6 15 -28 23 c-15 12 -32 25 -37 28 l-10 7 18 51 19 50 -19 21 c-10 11 -23 20 -30 20 -6 0 -34 11 -62 24 l-50 25 -232 577 c-128 317 -243 594 -256 614 -13 20 -42 53 -64 72 l-41 35 -195 63 -195 64 0 27 0 27 -87 20 c-49 11 -125 28 -170 38 l-83 17 0 13 c0 7 -15 32 -34 57 -36 47 -50 78 -51 114 l-1 22 75 7 76 7 62 -13 62 -12 38 12 c55 18 91 47 112 88 10 21 78 209 152 419 l134 383 15 0 15 0 19 73 c10 39 18 95 19 124 l0 51 -28 34 c-15 18 -34 37 -42 41 -23 14 -111 17 -162 6 -25 -5 -82 -16 -126 -25 -44 -8 -87 -17 -95 -19 l-15 -5 3 184 3 184 -43 33 c-24 19 -47 39 -53 45 -35 41 -404 250 -490 277 -11 3 -36 13 -55 20 -58 23 -152 54 -215 70 -33 9 -78 20 -100 26 -22 6 -83 17 -135 26 l-95 16 -230 4 c-126 2 -259 0 -295 -5z m-14 -239 l-18 -19 4 -77 3 -76 -60 3 -59 3 -18 85 c-9 47 -17 88 -18 93 0 4 41 7 92 7 l91 0 -17 -19z m364 -23 c0 -24 3 -53 6 -65 l6 -23 -16 0 -16 0 0 28 c-1 15 -7 44 -14 65 l-14 37 24 0 24 0 0 -42z m794 -275 c22 -114 68 -424 64 -428 -3 -3 -30 -8 -59 -11 -98 -10 -138 -34 -171 -103 -10 -20 -17 -34 -18 -31 0 3 -18 131 -40 285 -21 153 -38 280 -36 282 6 7 166 31 208 32 l46 1 6 -27z m-293 -26 c-13 -13 -26 -3 -16 12 3 6 11 8 17 5 l10 -6 -11 -11z m39 -232 c0 -8 -4 -15 -10 -15 -5 0 -10 7 -10 15 0 8 5 15 10 15 6 0 10 -7 10 -15z m30 -205 c0 -5 -4 -10 -9 -10 -6 0 -13 5 -16 10 l-6 10 15 0 c9 0 16 -4 16 -10z m320 -121 l0 -21 -15 12 c-15 12 -12 30 6 30 5 0 9 -10 9 -21z m535 -9 c-3 -10 -21 -54 -40 -97 l-34 -78 -1 98 0 97 41 0 40 0 -6 -20z m-500 -130 c50 -54 91 -108 93 -120 l4 -22 -64 -56 c-34 -31 -101 -95 -148 -141 l-85 -83 -122 128 c-68 71 -123 132 -123 136 0 4 24 29 53 55 28 26 76 72 105 103 l53 55 13 -17 12 -16 32 15 c17 8 41 25 54 38 13 13 25 23 28 23 3 0 46 -44 95 -98z m-2551 -136 c3 -26 6 -57 6 -70 l0 -24 -61 -45 c-34 -25 -65 -42 -70 -39 -5 3 -9 33 -9 67 l0 62 20 33 c18 30 66 61 96 62 l11 0 7 -46z m1130 -107 l20 -27 4 -59 4 -58 -16 -59 c-24 -86 -30 -99 -171 -374 -41 -80 -75 -149 -75 -153 0 -5 -6 -23 -14 -40 -21 -49 -36 -107 -41 -162 -7 -80 -26 -136 -67 -201 -68 -108 -147 -167 -268 -196 -187 -46 -384 56 -468 242 l-25 55 -6 86 c-3 48 -2 106 2 130 7 39 4 179 -7 264 -8 64 -17 121 -21 135 l-5 15 83 53 83 52 75 10 c41 5 84 10 97 10 l22 0 0 -87 -1 -88 -40 -28 -40 -27 -39 -62 c-22 -33 -40 -65 -40 -70 0 -4 -11 -8 -25 -8 l-26 0 -5 -14 c-3 -8 -6 -20 -8 -28 -1 -7 -12 -30 -24 -49 -28 -46 -28 -51 2 -43 l23 5 36 -14 36 -15 15 -31 c18 -34 21 -74 6 -100 l-9 -18 37 -24 37 -24 26 -52 27 -52 17 20 c10 10 42 31 71 45 l54 26 74 -4 75 -3 5 30 c14 71 80 135 140 135 l28 0 -7 28 c-3 15 -7 44 -8 65 l-3 38 -14 9 c-8 6 -21 10 -27 10 -7 0 -13 7 -13 15 0 31 -43 128 -76 171 l-35 45 3 102 3 101 90 27 90 26 23 -8 c37 -14 83 -10 128 10 l41 19 21 34 c12 19 31 76 43 127 l21 92 21 -14 c12 -8 30 -26 41 -40z m1456 -44 c1 -49 35 -197 55 -240 14 -31 25 -68 25 -83 l0 -28 -47 15 -48 15 -88 -6 -89 -6 -44 -19 -44 -20 -10 40 -11 41 16 25 c9 14 44 50 77 82 33 31 90 86 127 122 64 64 81 77 81 62z m-31 -688 l18 5 13 -15 12 -15 34 0 34 0 0 -19 c0 -48 -20 -63 -49 -37 -18 15 -96 36 -135 36 l-26 0 0 16 c0 8 4 24 10 34 l10 19 30 -15 c16 -9 38 -13 49 -9z m-2199 -85 l0 -20 -19 0 c-11 0 -23 5 -26 10 -9 15 4 30 26 30 l19 0 0 -20z m187 -16 l6 -16 -14 -9 -14 -8 -14 13 c-7 8 -10 19 -7 25 10 16 36 13 43 -5z m-205 -70 l29 6 -6 -10 c-16 -25 -95 -3 -95 27 l0 17 21 -23 22 -23 29 6z m228 -19 l-12 -15 -32 0 c-33 0 -65 15 -55 25 4 3 18 0 32 -6 l26 -12 23 15 c27 19 36 15 18 -7z m1828 -41 c27 -8 29 -24 3 -24 -26 0 -51 10 -51 21 0 10 16 11 48 3z m-20 -102 c12 -8 22 -19 22 -24 0 -5 -12 0 -26 11 -15 12 -33 21 -40 21 -7 0 -15 4 -18 9 l-6 9 22 -6 c13 -3 33 -12 46 -20z m245 11 c18 -6 24 -23 7 -23 -17 0 -60 23 -60 33 l0 9 18 -7 c9 -4 25 -10 35 -12z m-37 -89 c10 -8 12 -12 4 -8 -8 5 -33 11 -55 15 l-40 6 36 2 35 1 20 -16z m-3168 -811 l2 -183 -290 0 -290 0 0 178 c0 98 3 182 7 185 4 4 133 6 287 5 l281 -3 3 -182z m4596 -682 c3 -5 1 -22 -4 -38 l-10 -29 -19 0 -19 0 3 21 c6 47 33 72 49 46z"/>
<path d="M5511 5399 c-53 -16 -31 -19 29 -5 30 8 44 14 30 14 -14 0 -40 -4 -59 -9z"/>
<path d="M5332 5343 c-24 -8 -41 -17 -39 -19 2 -2 28 5 58 15 30 11 47 20 39 19 -8 0 -34 -6 -58 -15z"/>
<path d="M5205 5295 c-66 -31 -54 -31 21 0 32 13 52 24 44 24 -8 0 -37 -11 -65 -24z"/>
<path d="M5028 5214 c-27 -13 -48 -27 -48 -29 0 -5 99 42 109 51 13 11 -20 0 -61 -22z"/>
<path d="M4930 5159 l-25 -20 20 10 c33 17 51 31 40 31 -5 0 -21 -10 -35 -21z"/>
<path d="M6675 2390 c-4 -17 -5 -34 -2 -36 2 -3 7 10 11 27 8 42 0 50 -9 9z"/>
<path d="M6043 2373 c4 -3 1 -13 -6 -22 l-12 -16 18 14 c20 15 22 31 5 31 -6 0 -8 -3 -5 -7z"/>
<path d="M3250 2310 c-23 -27 -40 -50 -37 -50 3 0 24 23 47 50 23 28 40 50 37 50 -3 0 -24 -22 -47 -50z"/>
<path d="M5562 2315 l0 -30 5 18 c2 9 2 23 0 30 -3 6 -5 -1 -5 -18z"/>
<path d="M7018 2307 l-6 -29 10 10 c6 6 8 18 6 28 l-4 19 -6 -28z"/>
<path d="M5913 2290 l-5 -20 -52 1 -52 2 -29 -14 c-34 -16 -55 -52 -55 -95 l0 -31 -20 -18 -20 -18 -15 13 c-8 7 -15 18 -15 25 0 7 -13 18 -29 25 l-30 12 -4 26 -4 27 -2 -32 -1 -32 -18 -5 c-10 -3 -26 -20 -36 -37 l-18 -31 5 -35 c4 -20 14 -44 23 -54 l17 -19 31 0 31 -1 33 -56 32 -56 0 -42 0 -42 18 -16 c10 -10 23 -17 28 -17 5 0 28 -23 52 -50 l43 -50 49 -25 c27 -14 73 -28 103 -31 l54 -6 58 17 58 16 57 57 56 57 17 48 c9 26 23 55 32 64 l17 16 -6 41 c-9 63 -9 68 5 123 l13 51 29 6 28 6 15 35 14 35 -14 34 c-7 18 -27 42 -42 53 l-29 20 -24 -4 c-32 -5 -48 -18 -55 -49 -9 -33 -23 -23 -38 27 -14 49 -40 69 -91 69 l-38 0 -26 -27 -27 -26 -4 11 c-2 7 -16 12 -32 12 l-28 0 -6 15 c-3 8 -15 15 -27 15 l-21 0 -5 -20z m235 -192 l-5 -13 -41 -3 -42 -3 0 10 c0 5 17 12 38 14 20 2 41 4 45 5 5 1 7 -4 5 -10z m-278 -37 c0 -11 -25 -21 -51 -21 -29 0 -23 18 9 23 15 2 30 5 35 6 4 0 7 -3 7 -8z m300 -63 l0 -13 -37 -3 c-20 -1 -47 -9 -60 -17 -28 -19 -33 -19 -33 -1 0 16 64 45 103 45 l27 1 0 -12z m-259 -38 c10 -6 19 -15 19 -21 l0 -10 -21 12 -21 11 -44 -7 -44 -6 0 10 c0 19 80 27 111 11z"/>
<path d="M5572 2255 l0 -30 5 18 c2 9 2 23 0 30 -3 6 -5 -1 -5 -18z"/>
<path d="M6962 2220 c-18 -17 -30 -30 -27 -30 12 0 54 32 59 46 7 19 6 18 -32 -16z"/>
<path d="M6754 2195 c11 -8 24 -15 30 -15 5 0 1 7 -10 15 -10 8 -23 14 -29 14 -5 0 -1 -6 9 -14z"/>
<path d="M6823 2173 c15 -2 37 -2 50 0 12 2 0 4 -28 4 -27 0 -38 -2 -22 -4z"/>
</g>
<g id="layer103" fill="#4d3025" stroke="none">
<path d="M6911 5271 l-14 -9 25 -153 25 -154 -10 -6 -9 -7 11 -3 11 -4 36 -223 c20 -122 35 -225 32 -228 -3 -2 -30 -7 -59 -10 -98 -10 -138 -34 -171 -103 -10 -20 -17 -34 -18 -31 0 3 -18 131 -40 285 -22 154 -50 352 -62 440 -11 88 -25 171 -30 184 l-9 24 -58 -6 -58 -5 -79 -42 c-43 -23 -99 -54 -124 -70 -25 -16 -64 -39 -87 -51 l-42 -22 -16 13 -15 13 -10 -30 -11 -29 -30 -18 -31 -18 -117 1 -116 2 -22 15 -22 14 -64 0 -64 0 -19 103 -19 102 -8 -91 -9 -91 -150 -6 c-83 -4 -273 -7 -422 -7 l-271 0 45 30 c25 16 40 30 35 30 -17 0 -215 -153 -321 -248 -94 -84 -220 -222 -269 -294 l-23 -33 -33 -325 c-34 -331 -39 -431 -25 -486 l8 -31 -156 -112 c-86 -62 -164 -124 -173 -137 l-16 -25 -29 -377 c-16 -207 -32 -402 -36 -432 l-7 -55 -51 -6 c-54 -7 -83 -19 -104 -43 l-12 -16 -75 0 -74 0 -25 -25 c-13 -13 -27 -25 -29 -25 -5 0 -5 -13 -1 -17 1 -2 15 11 31 27 l29 30 147 0 147 0 12 -15 c6 -8 9 -19 5 -25 l-6 -10 -139 0 -138 0 -72 -78 -73 -77 309 -3 309 -3 72 78 72 78 -134 3 -135 3 0 8 c0 5 3 16 6 25 l6 16 32 1 31 2 -27 4 c-34 5 -34 6 -5 91 13 37 66 211 117 388 l92 321 52 31 c28 17 65 40 82 52 l30 20 68 -293 c37 -160 74 -321 83 -356 l16 -64 41 -61 c47 -70 117 -126 196 -158 l55 -23 423 -3 423 -3 -8 28 c-3 15 -7 51 -7 79 l-1 50 25 37 c14 20 39 44 56 52 34 16 439 76 521 77 l53 1 35 -27 c19 -15 42 -40 50 -57 l16 -29 11 -108 11 -107 187 3 187 3 44 42 44 42 -36 32 c-20 18 -51 60 -68 93 l-33 61 -5 74 -6 74 17 53 c10 29 24 63 32 76 l15 23 14 -11 14 -11 20 10 20 11 -6 48 -5 47 21 19 20 19 -10 19 c-6 11 -8 22 -5 25 3 3 11 -6 17 -21 l12 -26 -18 -20 -18 -20 -3 -82 c-3 -94 10 -177 36 -228 40 -78 119 -129 200 -130 l45 0 50 24 c87 40 147 105 159 170 3 15 10 34 16 41 l11 13 -7 28 -7 27 18 13 17 13 -6 28 -7 28 11 -15 c15 -22 12 -51 -6 -65 l-17 -12 13 -22 12 -23 -18 -19 -17 -18 17 -26 17 -26 21 7 21 6 -6 -53 c-7 -69 -45 -156 -91 -207 -43 -48 -137 -98 -201 -108 l-46 -6 4 -11 3 -11 65 3 c35 2 168 7 294 13 127 6 277 11 335 12 l104 1 208 -270 c115 -148 256 -333 314 -409 l106 -139 -7 -41 c-4 -23 -8 -77 -9 -121 l-3 -80 -27 -67 c-15 -37 -26 -77 -24 -89 3 -22 10 -27 58 -47 14 -5 47 -20 73 -31 27 -12 61 -24 77 -27 l28 -6 17 26 c10 14 24 26 31 26 l14 0 0 43 c0 23 5 49 10 57 l9 14 24 -22 c13 -12 26 -22 30 -22 13 0 7 31 -13 70 l-20 39 10 27 10 26 23 -16 c12 -9 30 -21 40 -26 l17 -11 6 16 6 15 -28 23 c-15 12 -32 25 -37 28 l-10 7 18 51 19 50 -19 21 c-10 11 -23 20 -30 20 -6 0 -34 11 -62 24 l-50 25 -232 577 c-128 317 -243 594 -256 614 -13 20 -42 53 -64 72 l-41 35 -195 63 -195 64 0 27 0 27 -87 20 c-49 11 -125 28 -170 38 l-83 17 0 13 c0 7 -15 32 -34 57 -36 47 -50 78 -51 114 l-1 22 75 7 76 7 62 -13 62 -12 38 12 c55 18 91 47 112 88 10 21 78 209 152 419 l134 383 15 0 15 0 19 73 c10 39 18 95 19 124 l0 51 -28 34 c-15 18 -34 37 -42 41 -23 14 -111 17 -162 6 -25 -5 -82 -16 -126 -25 -44 -8 -87 -17 -95 -19 l-15 -5 3 184 3 184 -43 33 c-24 19 -47 39 -53 45 -22 26 -202 136 -324 198 -126 64 -161 75 -190 57z m-250 -384 c-13 -13 -26 -3 -16 12 3 6 11 8 17 5 l10 -6 -11 -11z m39 -232 c0 -8 -4 -15 -10 -15 -5 0 -10 7 -10 15 0 8 5 15 10 15 6 0 10 -7 10 -15z m30 -205 c0 -5 -4 -10 -9 -10 -6 0 -13 5 -16 10 l-6 10 15 0 c9 0 16 -4 16 -10z m320 -121 l0 -21 -15 12 c-15 12 -12 30 6 30 5 0 9 -10 9 -21z m535 -9 c-3 -10 -21 -54 -40 -97 l-34 -78 -1 98 0 97 41 0 40 0 -6 -20z m-500 -130 c50 -54 91 -108 93 -120 l4 -22 -64 -56 c-34 -31 -101 -95 -148 -141 l-85 -83 -122 128 c-68 71 -123 132 -123 136 0 4 24 29 53 55 28 26 76 72 105 103 l53 55 13 -17 12 -16 32 15 c17 8 41 25 54 38 13 13 25 23 28 23 3 0 46 -44 95 -98z m-2551 -127 c3 -21 6 -54 6 -73 l-1 -35 -61 -42 c-34 -23 -65 -40 -70 -37 -4 3 -8 35 -8 72 l0 67 20 33 c21 33 49 50 86 51 l21 1 7 -37z m1140 -133 c20 -51 20 -121 1 -191 -24 -82 -31 -97 -170 -369 -41 -80 -75 -149 -75 -153 0 -5 -6 -23 -14 -40 -22 -51 -35 -107 -41 -172 -9 -100 -44 -179 -118 -260 l-55 -61 -53 -26 c-106 -53 -199 -63 -309 -36 l-56 14 -60 41 c-136 92 -186 195 -182 374 3 211 3 267 -4 324 -9 81 -18 137 -23 155 l-4 15 80 53 80 53 72 9 c40 5 84 10 100 10 l27 0 0 -86 0 -86 -51 -46 c-28 -25 -64 -69 -81 -99 l-30 -53 -24 0 -25 0 -8 -22 c-5 -13 -7 -26 -4 -31 2 -4 -5 -19 -16 -33 -12 -15 -21 -32 -21 -38 l0 -11 41 -1 42 0 29 -33 30 -33 -4 -52 -3 -52 36 -32 c20 -18 45 -49 54 -70 10 -20 19 -39 21 -41 1 -1 20 11 41 27 21 17 63 38 93 46 l55 17 51 -7 51 -6 7 36 7 36 30 35 31 35 49 17 49 18 -7 20 c-4 11 -8 36 -8 55 l0 34 -27 15 -26 15 -12 40 c-17 58 -54 128 -79 150 l-21 19 0 111 0 111 91 27 92 26 24 -9 c39 -15 83 -11 129 12 l43 20 20 33 c11 18 27 64 36 102 8 38 18 79 20 92 l5 22 29 -14 29 -15 16 -41z m1446 -27 c1 -49 35 -197 55 -240 14 -31 25 -68 25 -83 l0 -28 -47 15 -48 15 -88 -6 -89 -6 -44 -19 -44 -20 -10 40 -11 41 16 25 c9 14 44 50 77 82 33 31 90 86 127 122 64 64 81 77 81 62z m-31 -688 l18 5 13 -15 12 -15 34 0 34 0 0 -19 c0 -48 -20 -63 -49 -37 -18 15 -96 36 -135 36 l-26 0 0 16 c0 8 4 24 10 34 l10 19 30 -15 c16 -9 38 -13 49 -9z m-2199 -85 l0 -20 -19 0 c-11 0 -23 5 -26 10 -9 15 4 30 26 30 l19 0 0 -20z m187 -16 l6 -16 -14 -9 -14 -8 -14 13 c-7 8 -10 19 -7 25 10 16 36 13 43 -5z m-209 -64 c36 0 43 -15 12 -25 l-20 -6 -27 13 c-15 7 -29 22 -32 33 l-3 20 19 -17 20 -18 31 0z m242 -14 c0 -7 -13 -19 -28 -25 l-28 -12 -27 10 c-15 6 -27 15 -27 21 0 12 2 12 33 1 l24 -9 24 13 c13 7 25 13 27 14 1 1 2 -5 2 -13z m1823 -53 c24 -7 22 -23 -4 -23 -28 0 -61 19 -53 31 l6 10 17 -6 c9 -4 24 -10 34 -12z m-48 -87 c18 -8 39 -25 46 -37 l12 -23 -32 27 c-18 15 -41 27 -52 27 -10 0 -19 5 -19 10 0 13 4 13 45 -4z m260 2 c24 -11 34 -28 16 -28 -20 0 -61 20 -61 30 0 13 13 13 45 -2z m-22 -92 c28 -21 20 -28 -14 -10 -17 9 -42 14 -55 11 -13 -2 -24 0 -24 4 0 14 73 10 93 -5z m1423 -1500 c3 -8 -2 -28 -11 -46 -27 -51 -57 -23 -36 33 11 29 38 36 47 13z"/>
<path d="M5867 2455 c-41 -29 -47 -50 -17 -60 l21 -7 24 16 25 16 25 -6 c33 -8 75 3 75 20 0 17 -59 46 -92 46 -13 0 -40 -11 -61 -25z"/>
<path d="M5913 2291 l-5 -19 -70 -4 -70 -4 -18 -24 c-10 -13 -20 -42 -23 -63 l-5 -40 -21 -21 -21 -20 -34 37 c-18 20 -38 37 -44 37 -6 0 -13 10 -15 23 l-4 22 -2 -27 -1 -27 -18 -5 c-10 -3 -26 -20 -36 -37 l-18 -31 5 -35 c4 -20 14 -44 23 -54 l17 -19 31 0 31 -1 33 -56 32 -56 0 -42 0 -42 18 -16 c10 -10 23 -17 28 -17 5 0 28 -23 52 -50 l43 -50 49 -25 c27 -14 73 -28 103 -31 l54 -6 58 17 58 16 57 57 56 57 17 48 c9 26 23 55 32 64 l17 16 -6 41 c-9 63 -9 68 5 123 l13 51 29 6 28 6 15 35 14 35 -14 34 c-7 18 -27 42 -42 53 l-29 20 -33 -9 -33 -9 -11 -29 c-12 -36 -23 -32 -38 18 -7 20 -22 45 -34 54 l-21 18 -38 0 -38 0 -26 -27 -27 -26 -4 11 c-2 7 -16 12 -32 12 l-28 0 -6 15 c-3 8 -15 15 -27 15 l-21 0 -5 -19z m235 -193 l-5 -13 -41 -3 -42 -3 0 10 c0 5 17 12 38 14 20 2 41 4 45 5 5 1 7 -4 5 -10z m-270 -40 c-3 -7 -21 -14 -41 -16 l-37 -3 0 10 c0 8 19 14 68 20 8 0 12 -5 10 -11z m292 -61 l0 -14 -32 -1 c-17 0 -44 -10 -59 -21 -27 -20 -39 -19 -39 5 0 15 65 43 103 43 l27 1 0 -13z m-240 -42 c19 -23 6 -28 -33 -14 l-34 12 -31 -11 c-34 -12 -47 -6 -31 15 l11 13 53 0 53 0 12 -15z"/>
</g>
<g id="layer104" fill="#613e31" stroke="none">
<path d="M5511 5399 c-18 -6 -31 -12 -29 -14 2 -2 26 2 53 10 28 7 41 13 30 13 -11 0 -35 -4 -54 -9z"/>
<path d="M6911 5271 l-14 -9 25 -153 25 -154 -10 -6 -9 -7 11 -3 11 -4 36 -223 c20 -122 35 -225 32 -228 -3 -2 -30 -7 -59 -10 -98 -10 -138 -34 -171 -103 -10 -20 -17 -34 -18 -31 0 3 -18 131 -40 285 -22 154 -50 352 -62 440 -11 88 -25 171 -30 184 l-9 24 -58 -6 -58 -5 -79 -42 c-43 -23 -99 -55 -124 -71 -25 -16 -52 -32 -60 -35 -8 -4 -28 -16 -44 -28 l-30 -20 -4 12 c-2 7 -10 12 -18 12 l-14 0 0 -25 c0 -14 -5 -25 -10 -25 -6 0 -22 -7 -35 -16 l-25 -16 -118 1 -117 2 -22 15 -22 14 -64 0 -64 0 -19 103 -19 102 -8 -91 -9 -91 -150 -6 c-83 -4 -273 -7 -422 -7 l-271 0 45 30 c25 16 40 30 35 30 -17 0 -215 -153 -321 -248 -94 -84 -220 -222 -269 -294 l-23 -33 -33 -325 c-34 -331 -39 -431 -25 -486 l8 -31 -156 -112 c-86 -62 -164 -124 -173 -137 l-16 -25 -29 -377 c-16 -207 -32 -402 -36 -432 l-7 -55 -51 -6 c-54 -7 -83 -19 -104 -43 l-12 -16 -75 0 -74 0 -25 -25 c-13 -13 -27 -25 -29 -25 -5 0 -5 -13 -1 -17 1 -2 15 11 31 27 l29 30 147 0 147 0 12 -15 c6 -8 9 -19 5 -25 l-6 -10 -139 0 -138 0 -72 -78 -73 -77 309 -3 309 -3 72 78 72 78 -134 3 -135 3 0 8 c0 5 3 16 6 25 l6 16 32 1 31 2 -27 4 c-34 5 -34 6 -5 91 13 37 66 211 117 388 l92 321 52 31 c28 17 65 40 82 52 l30 20 68 -293 c37 -160 74 -321 83 -356 l16 -64 41 -61 c47 -70 117 -126 196 -158 l55 -23 423 -3 423 -3 -8 28 c-3 15 -7 51 -7 79 l-1 50 25 37 c14 20 39 44 56 52 34 16 439 76 521 77 l53 1 35 -27 c19 -15 42 -40 50 -57 l16 -29 11 -108 11 -107 187 3 187 3 44 42 44 42 -36 32 c-20 18 -51 61 -70 95 l-34 63 0 95 0 95 25 50 25 50 29 -3 29 -4 7 13 c5 7 4 23 -1 36 -13 34 -12 38 15 70 l25 29 -10 15 c-14 23 -10 36 6 15 20 -27 19 -43 -5 -73 l-20 -26 6 -19 c3 -10 7 -63 8 -116 l2 -97 26 -51 c32 -60 83 -106 137 -123 50 -15 67 -14 128 4 l51 15 51 46 c54 49 81 89 81 123 0 11 8 27 17 36 l17 17 -14 21 -13 21 22 17 22 18 -7 27 -7 27 12 -7 c6 -4 11 -20 11 -36 l0 -29 -17 -10 -18 -10 13 -12 c16 -17 15 -39 -3 -53 l-15 -11 16 -23 16 -24 21 6 20 5 -6 -58 -5 -59 -31 -65 -31 -65 -40 -35 c-51 -47 -124 -83 -183 -92 l-48 -7 4 -11 3 -11 65 3 c35 2 168 7 294 13 127 6 277 11 335 12 l104 1 208 -270 c115 -148 256 -333 314 -409 l106 -139 -7 -41 c-4 -23 -8 -77 -9 -121 l-3 -80 -27 -67 c-15 -37 -26 -77 -24 -89 3 -22 10 -27 58 -47 14 -5 47 -20 73 -31 27 -12 61 -24 77 -27 l28 -6 17 26 c10 14 24 26 31 26 l14 0 0 43 c0 23 5 49 10 57 l9 14 24 -22 c13 -12 26 -22 30 -22 13 0 7 31 -13 70 l-20 39 10 27 10 26 23 -16 c12 -9 30 -21 40 -26 l17 -11 6 16 6 15 -28 23 c-15 12 -32 25 -37 28 l-10 7 18 51 19 50 -19 21 c-10 11 -23 20 -30 20 -6 0 -34 11 -62 24 l-50 25 -232 577 c-128 317 -243 594 -256 614 -13 20 -42 53 -64 72 l-41 35 -195 63 -195 64 0 27 0 27 -87 20 c-49 11 -125 28 -170 38 l-83 17 0 13 c0 7 -15 32 -34 57 -19 24 -37 53 -40 63 -7 23 -65 64 -89 64 -10 0 -43 -13 -74 -30 -31 -16 -62 -30 -69 -30 -6 0 -35 -18 -64 -41 l-51 -40 5 58 5 58 -30 123 -30 124 16 25 c9 14 44 50 77 82 34 31 92 86 131 123 39 38 72 67 73 65 2 -2 10 -45 18 -96 l15 -93 26 -55 c14 -30 25 -68 25 -84 l0 -29 -26 11 c-15 5 -29 8 -31 5 -2 -2 10 -8 26 -14 l31 -11 0 -71 0 -71 80 7 81 7 58 -13 59 -12 38 12 c56 18 92 46 113 88 10 21 78 209 152 419 l134 383 15 0 15 0 19 73 c10 39 18 95 19 124 l0 51 -28 34 c-15 18 -34 37 -42 41 -23 14 -111 17 -162 6 -25 -5 -82 -16 -126 -25 -44 -8 -87 -17 -95 -19 l-15 -5 3 184 3 184 -43 33 c-24 19 -47 39 -53 45 -22 26 -202 136 -324 198 -126 64 -161 75 -190 57z m-250 -384 c-13 -13 -26 -3 -16 12 3 6 11 8 17 5 l10 -6 -11 -11z m39 -232 c0 -8 -4 -15 -10 -15 -5 0 -10 7 -10 15 0 8 5 15 10 15 6 0 10 -7 10 -15z m30 -205 c0 -5 -4 -10 -9 -10 -6 0 -13 5 -16 10 l-6 10 15 0 c9 0 16 -4 16 -10z m320 -121 l0 -21 -15 12 c-15 12 -12 30 6 30 5 0 9 -10 9 -21z m535 -9 c-3 -10 -21 -54 -40 -97 l-34 -78 -1 98 0 97 41 0 40 0 -6 -20z m-500 -130 c50 -54 91 -108 93 -120 l4 -22 -64 -56 c-34 -31 -101 -95 -148 -141 l-85 -83 -122 128 c-68 71 -123 132 -123 136 0 4 24 29 53 55 28 26 76 72 105 103 l53 55 13 -17 12 -16 32 15 c17 8 41 25 54 38 13 13 25 23 28 23 3 0 46 -44 95 -98z m-2551 -127 c3 -21 6 -54 6 -73 l-1 -35 -60 -43 c-33 -23 -64 -40 -69 -37 -6 4 -10 36 -10 73 l0 67 20 33 c21 33 49 50 86 51 l21 1 7 -37z m1111 -86 l27 -22 13 -51 13 -51 -13 -69 c-18 -92 -36 -137 -148 -354 -100 -194 -157 -341 -157 -407 0 -93 -53 -208 -133 -291 l-52 -53 -60 -30 c-33 -16 -89 -34 -125 -41 l-65 -11 -60 12 c-33 6 -87 25 -121 41 l-61 30 -52 55 c-29 30 -63 80 -77 110 l-26 55 -6 93 c-4 51 -3 117 1 147 8 51 4 182 -8 255 -12 74 -23 150 -21 151 0 1 36 24 78 53 l78 52 72 9 c40 5 85 10 101 10 l27 0 0 -86 0 -86 -51 -46 c-28 -25 -64 -69 -81 -99 l-30 -53 -17 0 c-22 0 -41 -19 -41 -43 0 -10 -9 -30 -20 -44 -11 -14 -20 -31 -20 -37 l0 -11 41 -1 42 0 29 -33 30 -33 -4 -52 -3 -52 36 -32 c20 -18 45 -49 54 -70 10 -20 19 -39 21 -41 1 -1 20 11 41 27 21 17 63 38 93 46 l55 17 51 -7 51 -6 7 36 c4 20 20 52 37 71 l30 34 47 17 c26 10 48 18 50 19 1 1 -3 15 -9 31 -6 16 -12 43 -13 59 l-1 30 -21 3 -22 3 -6 32 c-9 48 -53 136 -87 174 l-30 34 3 101 3 101 95 29 95 28 43 -11 43 -12 38 12 39 11 35 39 35 39 12 59 c19 95 30 133 40 133 5 0 21 -10 35 -23z m1430 -757 c14 0 37 -7 50 -16 l25 -16 25 4 25 5 0 -23 c0 -51 -19 -66 -49 -40 -18 15 -96 36 -135 36 l-26 0 0 23 c0 13 5 28 12 35 l11 11 18 -9 c10 -6 29 -10 44 -10z m-2185 -90 l0 -20 -19 0 c-11 0 -23 5 -26 10 -9 15 4 30 26 30 l19 0 0 -20z m190 -19 c0 -22 -21 -33 -40 -21 l-13 8 6 16 c4 9 16 16 27 16 l20 0 0 -19z m-212 -61 c36 0 43 -15 12 -25 l-20 -6 -27 13 c-15 7 -29 22 -32 33 l-3 20 19 -17 20 -18 31 0z m242 -14 c0 -7 -13 -19 -28 -25 l-28 -12 -27 10 c-15 6 -27 15 -27 21 0 12 2 12 33 1 l24 -9 24 13 c13 7 25 13 27 14 1 1 2 -5 2 -13z m1833 -53 c17 -10 5 -23 -22 -23 -28 0 -57 21 -44 33 6 6 49 0 66 -10z m-24 -108 c14 -13 22 -27 19 -31 -4 -3 -16 4 -27 15 -12 12 -35 24 -51 28 -17 3 -30 10 -30 16 l0 10 33 -7 c17 -4 43 -17 56 -31z m245 14 c5 -5 7 -12 3 -16 -11 -10 -60 10 -65 26 l-5 14 29 -7 c16 -4 33 -12 38 -17z m-30 -89 c18 -18 0 -20 -33 -4 -17 9 -39 13 -47 10 -9 -3 -21 -3 -27 1 l-12 7 25 6 c27 7 78 -4 94 -20z m1412 -1494 c3 -8 -2 -28 -11 -46 -27 -51 -57 -23 -36 33 11 29 38 36 47 13z"/>
<path d="M6880 3550 l-15 -10 17 0 c9 0 20 5 23 10 8 13 -5 13 -25 0z"/>
<path d="M5915 2291 l-6 -19 -70 -4 -71 -4 -18 -24 c-10 -13 -20 -42 -23 -63 l-5 -40 -21 -21 -21 -20 -34 37 c-18 20 -38 37 -44 37 -6 0 -13 10 -15 23 l-4 22 -2 -27 -1 -27 -18 -5 c-10 -3 -26 -20 -36 -37 l-18 -31 5 -35 c4 -20 14 -44 23 -54 l17 -19 31 0 31 -1 33 -56 32 -56 0 -42 0 -42 18 -16 c10 -10 23 -17 28 -17 5 0 28 -23 52 -50 l43 -50 49 -25 c27 -14 73 -28 103 -31 l54 -6 58 17 58 16 57 57 56 57 17 48 c9 26 23 55 32 64 l17 16 -6 41 c-9 63 -9 68 5 123 l13 51 29 6 28 6 15 35 14 35 -14 34 c-7 18 -27 42 -42 53 l-29 20 -33 -9 -33 -9 -11 -29 c-12 -36 -23 -32 -38 18 -7 20 -22 45 -34 54 l-21 18 -38 0 -38 0 -26 -26 -25 -26 -11 11 c-6 6 -21 11 -34 11 -13 0 -26 7 -29 15 -9 21 -42 19 -49 -4z m233 -193 l-5 -13 -41 -3 -42 -3 0 10 c0 5 17 12 38 14 20 2 41 4 45 5 5 1 7 -4 5 -10z m-270 -40 c-3 -7 -21 -14 -41 -16 l-37 -3 0 10 c0 8 19 14 68 20 8 0 12 -5 10 -11z m292 -61 l0 -14 -32 -1 c-17 0 -44 -10 -59 -21 -27 -20 -39 -19 -39 5 0 15 65 43 103 43 l27 1 0 -13z m-240 -42 c19 -23 6 -28 -33 -14 l-34 12 -31 -11 c-34 -12 -47 -6 -31 15 l11 13 53 0 53 0 12 -15z"/>
</g>
<g id="layer105" fill="#4d4e4e" stroke="none">
<path d="M6911 5271 l-14 -9 25 -153 25 -154 -10 -6 -9 -7 11 -3 11 -4 35 -213 c19 -117 35 -219 35 -227 l0 -15 -22 0 c-12 0 -18 -3 -15 -6 4 -4 32 -2 64 5 32 6 148 27 258 47 110 20 203 42 207 48 4 6 8 90 8 188 l0 176 -42 34 c-24 18 -47 38 -53 44 -22 26 -202 136 -324 198 -126 64 -161 75 -190 57z"/>
<path d="M6520 5261 c-31 -10 -150 -73 -210 -112 -25 -16 -52 -32 -60 -35 -8 -4 -28 -16 -44 -27 l-28 -20 4 -66 c3 -37 11 -78 19 -91 l14 -25 5 55 c3 30 9 55 15 55 5 0 18 -29 27 -65 l18 -65 3 -104 2 -104 -12 -4 -13 -5 0 15 c0 9 -9 18 -19 22 -10 3 -21 15 -24 25 l-5 20 -20 0 -20 0 -23 53 -24 52 2 103 1 103 -33 -21 -32 -20 -104 0 -104 0 -38 20 -37 20 -59 0 -59 0 -10 48 c-6 26 -14 65 -18 87 l-8 40 -7 -78 c-4 -43 -8 -79 -10 -81 -2 -2 -195 -6 -428 -10 l-423 -6 13 17 c24 29 -149 -107 -250 -198 -91 -82 -217 -220 -266 -291 l-23 -33 -33 -325 c-34 -331 -39 -431 -25 -486 l8 -31 -156 -112 c-86 -62 -164 -124 -173 -137 l-16 -25 -29 -377 c-16 -207 -32 -402 -36 -432 l-7 -55 -51 -6 c-54 -7 -83 -19 -104 -43 l-12 -16 -75 0 -74 0 -25 -25 c-13 -13 -27 -25 -29 -25 -8 0 -10 -8 -4 -14 3 -3 18 8 34 24 l29 30 147 0 147 0 12 -15 c6 -8 9 -19 5 -25 l-6 -10 -139 0 -138 0 -72 -77 -73 -78 309 -3 309 -3 72 78 72 78 -138 5 -138 5 8 22 8 23 33 1 33 2 -27 4 c-34 5 -34 6 -5 91 13 37 66 211 117 388 l92 321 52 31 c28 17 65 40 82 52 l30 20 68 -293 c37 -160 74 -321 83 -356 l16 -64 41 -61 c47 -70 117 -126 196 -158 l55 -23 423 -3 423 -3 -8 28 c-3 15 -7 51 -7 79 l-1 50 25 37 c14 20 39 44 56 52 34 16 439 76 521 77 l53 1 35 -27 c19 -15 42 -40 50 -57 l16 -29 11 -108 11 -107 187 3 187 3 44 42 44 42 -36 32 c-20 18 -51 61 -70 95 l-34 63 0 95 0 95 42 87 43 86 34 33 35 32 -10 20 c-6 10 -8 21 -6 24 3 2 11 -5 17 -17 l12 -22 31 49 31 48 7 65 8 65 -30 123 -30 124 16 25 c9 14 44 50 77 82 34 31 92 86 131 123 39 38 72 67 73 65 2 -2 10 -45 18 -96 l15 -93 26 -55 25 -55 0 -105 0 -104 80 7 81 7 58 -13 59 -12 38 12 c56 18 92 46 113 88 10 21 78 209 152 419 l134 383 16 0 16 0 7 39 c3 22 9 48 13 58 l6 18 -29 -26 c-16 -15 -40 -32 -53 -39 l-25 -13 -136 7 -135 7 -42 -98 -42 -98 -1 98 0 97 22 0 c12 0 19 2 17 4 -2 2 -101 12 -220 21 l-217 17 -35 -11 -34 -12 5 -27 5 -27 -17 14 -16 14 -20 -18 -20 -18 74 -76 c101 -104 126 -136 126 -159 l0 -20 -32 -25 c-18 -14 -85 -75 -148 -137 l-115 -111 -122 128 c-68 70 -123 131 -123 135 0 4 24 29 53 55 28 26 75 71 103 100 28 29 55 53 60 53 6 0 23 14 39 30 l29 30 -11 11 -11 11 -31 -7 c-35 -7 -61 -38 -61 -72 0 -12 -4 -24 -9 -28 -17 -10 -32 33 -30 83 1 26 -17 173 -40 327 -23 154 -51 352 -63 440 -11 88 -25 170 -29 183 l-9 22 -42 -1 c-24 0 -54 -4 -68 -8z m141 -374 c-13 -13 -26 -3 -16 12 3 6 11 8 17 5 l10 -6 -11 -11z m-487 -202 l13 -18 13 8 13 8 -7 -12 -8 -12 15 -17 c22 -26 26 -45 12 -62 -7 -8 -78 -126 -159 -262 -81 -137 -151 -248 -157 -248 -5 0 -23 7 -39 15 l-29 15 -24 -42 c-14 -24 -47 -83 -74 -133 l-50 -90 -8 -50 c-11 -75 -39 -142 -146 -350 -103 -199 -159 -346 -159 -413 0 -51 -30 -148 -63 -204 -36 -61 -128 -145 -191 -174 -30 -14 -83 -30 -118 -36 l-63 -11 -60 12 c-171 35 -297 151 -339 315 l-15 57 6 182 5 182 -16 99 c-9 55 -13 103 -9 107 4 4 43 29 85 57 l76 49 74 7 c40 4 83 10 96 13 l22 5 0 -92 0 -92 -57 -56 c-32 -32 -69 -79 -83 -105 l-25 -47 -14 5 c-19 7 -41 -13 -41 -39 0 -11 -9 -32 -20 -46 -27 -34 -25 -40 10 -40 17 0 44 -7 59 -15 l28 -14 18 -37 c16 -34 16 -58 1 -94 l-6 -15 35 -24 35 -23 22 -47 23 -46 48 32 c27 18 67 38 90 44 l42 11 56 -6 57 -5 6 39 6 39 36 36 35 35 44 12 43 12 -10 25 c-6 14 -11 42 -12 61 l-1 35 -22 3 -23 3 -11 42 c-14 54 -51 126 -83 165 l-26 30 0 104 0 103 99 29 99 28 35 -11 36 -12 39 10 c22 6 51 20 66 32 44 34 51 54 102 293 l17 80 211 241 c116 132 229 263 251 291 l40 50 17 -1 c10 -1 24 -10 32 -20z m526 -30 c0 -8 -4 -15 -10 -15 -5 0 -10 7 -10 15 0 8 5 15 10 15 6 0 10 -7 10 -15z m30 -205 c0 -5 -4 -10 -9 -10 -6 0 -13 5 -16 10 l-6 10 15 0 c9 0 16 -4 16 -10z m-2196 -372 c3 -13 8 -44 11 -70 l6 -47 -68 -50 -68 -49 -7 11 c-4 7 -8 41 -8 77 l0 65 20 33 c21 34 49 50 87 51 l23 1 4 -22z m354 -942 c5 -24 -10 -38 -31 -30 -17 6 -23 35 -10 48 12 12 38 1 41 -18z m190 -30 l-3 -21 -20 0 -20 0 -3 19 c-4 21 14 37 35 29 l14 -6 -3 -21z m-258 -41 l12 -15 35 0 35 0 -4 -12 c-3 -7 -18 -14 -34 -16 l-29 -3 -23 21 c-23 21 -29 40 -13 40 5 0 14 -7 21 -15z m300 -24 c0 -31 -84 -53 -108 -29 -21 21 -13 28 27 22 l38 -6 7 11 c9 13 36 15 36 2z"/>
<path d="M7301 3158 c5 -18 9 -63 9 -101 l0 -68 16 -31 16 -31 -4 -106 -4 -106 -32 -66 -32 -67 -39 -35 c-47 -43 -108 -75 -170 -91 -24 -6 -46 -16 -48 -22 l-3 -10 32 3 c51 5 540 25 658 27 l104 1 208 -270 c115 -148 256 -333 314 -409 l106 -139 -7 -41 c-4 -23 -8 -77 -9 -121 l-3 -80 -27 -67 c-15 -37 -26 -77 -24 -89 3 -22 10 -27 58 -47 14 -5 47 -20 73 -31 27 -12 61 -24 77 -27 l28 -6 17 26 c10 14 24 26 31 26 l14 0 0 43 c0 23 5 49 10 57 l9 14 24 -22 c13 -12 26 -22 30 -22 13 0 7 31 -13 70 l-20 39 10 27 10 26 23 -16 c12 -9 30 -21 40 -26 l17 -11 6 16 6 15 -28 23 c-15 12 -32 25 -37 28 l-10 7 18 51 19 50 -19 21 c-10 11 -23 20 -30 20 -6 0 -34 11 -62 24 l-50 25 -232 577 c-128 317 -243 594 -256 614 -13 20 -42 53 -64 72 l-41 35 -195 63 -195 64 0 28 c0 15 -1 28 -3 28 -2 0 -74 16 -160 35 -86 19 -161 35 -166 35 l-10 0 10 -32z m1245 -1852 c3 -8 -2 -28 -11 -46 -27 -51 -57 -23 -36 33 11 29 38 36 47 13z"/>
<path d="M4144 2408 c-17 -18 -37 -42 -45 -53 l-14 -20 18 14 c19 15 81 91 75 91 -2 0 -18 -15 -34 -32z"/>
<path d="M3315 2338 l-40 -43 43 40 c39 36 47 45 39 45 -2 0 -21 -19 -42 -42z"/>
<path d="M4025 2275 l-47 -55 -384 0 -384 0 0 -225 0 -225 374 0 c206 0 381 -3 390 -6 l16 -6 0 235 0 235 15 12 c20 17 78 90 72 90 -3 0 -27 -25 -52 -55z m-77 -282 l2 -183 -290 0 -290 0 0 178 c0 98 3 182 7 185 4 4 133 6 287 5 l281 -3 3 -182z"/>
<path d="M5914 2285 l-22 -24 -49 5 -49 6 -32 -27 -32 -27 0 -37 c0 -42 -23 -81 -48 -81 -9 0 -25 14 -34 30 l-17 30 -20 0 -20 0 -4 28 -4 27 -2 -27 -1 -27 -18 -5 c-10 -3 -26 -20 -36 -37 l-18 -31 5 -35 c4 -20 14 -44 23 -54 l17 -19 31 0 31 -1 33 -56 32 -56 0 -42 0 -42 18 -16 c10 -10 23 -17 28 -17 5 0 28 -23 52 -50 l43 -50 49 -25 c27 -14 73 -28 103 -31 l54 -6 58 17 58 16 57 57 56 57 17 48 c9 26 23 55 32 64 l17 16 -6 41 c-9 63 -9 68 5 123 l13 51 29 6 28 6 15 35 14 35 -14 34 c-7 18 -27 42 -42 53 l-29 20 -25 -7 c-14 -3 -34 -20 -46 -37 l-21 -32 -12 12 c-6 6 -11 19 -11 30 0 10 -13 32 -29 48 l-29 29 -31 0 -30 0 -35 -30 -34 -30 -6 15 -5 15 -24 0 c-14 0 -30 7 -37 15 -17 20 -21 19 -46 -10z m236 -190 l0 -15 -45 0 c-54 0 -60 17 -7 23 20 2 40 4 45 5 4 1 7 -5 7 -13z m-272 -37 c-3 -7 -21 -14 -41 -16 l-37 -3 0 10 c0 8 19 14 68 20 8 0 12 -5 10 -11z m292 -61 l0 -14 -32 -1 c-17 0 -44 -10 -59 -21 -27 -20 -39 -19 -39 5 0 15 65 43 103 43 l27 1 0 -13z m-240 -42 c19 -23 6 -28 -34 -14 l-35 13 -26 -12 c-15 -7 -31 -10 -36 -6 l-10 6 12 14 11 14 53 0 53 0 12 -15z"/>
</g>
<g id="layer106" fill="#c8344a" stroke="none">
<path d="M6509 5255 c-25 -8 -108 -52 -185 -98 l-139 -84 1 -69 0 -69 15 -25 14 -25 5 55 c3 30 9 55 15 55 26 0 67 -266 51 -329 -7 -30 -26 -35 -26 -7 l0 20 -20 6 c-11 3 -20 13 -20 21 0 20 -27 29 -45 14 l-15 -12 11 -20 11 -20 13 6 14 5 -5 -13 c-3 -8 3 -20 13 -27 24 -18 27 -38 10 -58 -8 -9 -80 -127 -161 -263 -81 -137 -151 -248 -157 -248 -5 0 -23 7 -39 15 l-29 15 -24 -42 c-14 -24 -46 -81 -72 -128 l-47 -85 -8 -50 c-13 -78 -45 -154 -151 -360 -103 -199 -159 -346 -159 -413 0 -51 -30 -148 -63 -204 -36 -61 -128 -145 -191 -174 -30 -14 -83 -30 -118 -36 l-63 -11 -60 12 c-171 35 -297 151 -339 315 l-15 57 6 182 5 182 -16 99 c-9 55 -13 103 -9 107 4 4 43 29 85 57 l76 49 74 7 c40 4 83 10 96 13 l22 5 0 -92 0 -92 -57 -56 c-32 -32 -69 -79 -83 -105 l-25 -47 -14 5 c-19 7 -41 -13 -41 -39 0 -11 -9 -32 -20 -46 -27 -34 -25 -40 10 -40 17 0 44 -7 59 -15 l28 -14 18 -37 c16 -34 16 -58 1 -94 l-6 -15 35 -24 35 -23 22 -47 23 -46 48 32 c27 18 67 38 90 44 l42 11 56 -6 57 -5 6 39 6 39 36 36 35 35 44 12 43 12 -10 25 c-6 14 -11 42 -12 61 l-1 35 -22 3 -23 3 -11 42 c-14 54 -51 126 -83 165 l-26 30 0 104 0 103 99 29 99 28 35 -11 36 -12 39 10 c22 6 51 20 66 32 44 34 51 54 102 294 l17 79 206 236 c114 129 227 260 252 291 24 30 49 54 55 52 6 -2 17 3 24 12 l12 15 -23 53 -24 52 2 103 1 103 -33 -21 -32 -20 -104 0 -104 0 -38 20 -37 20 -59 0 -59 0 -10 48 c-6 26 -14 65 -18 87 l-8 40 -7 -78 c-4 -43 -8 -79 -10 -81 -2 -2 -195 -6 -428 -10 l-423 -6 13 17 c24 29 -149 -107 -250 -198 -91 -82 -217 -220 -266 -291 l-23 -33 -33 -325 c-34 -331 -39 -431 -25 -486 l8 -31 -156 -112 c-86 -62 -164 -124 -173 -137 l-16 -25 -29 -377 c-16 -207 -32 -402 -36 -432 l-7 -55 -25 -3 c-67 -7 -92 -15 -118 -37 l-29 -24 -74 -4 -74 -3 151 -2 152 -2 12 -15 13 -16 -22 -22 c-11 -13 -21 -31 -21 -40 l0 -16 45 27 44 27 10 28 10 27 33 1 33 2 -27 4 c-34 5 -34 6 -5 91 13 37 66 211 117 388 l92 321 52 31 c28 17 65 40 82 52 l30 20 68 -293 c37 -160 74 -321 83 -356 l16 -64 41 -61 c47 -70 117 -126 196 -158 l55 -23 423 -3 423 -3 -8 28 c-3 15 -7 51 -7 79 l-1 50 25 37 c14 20 39 44 56 52 34 16 439 76 521 77 l53 1 35 -27 c19 -15 42 -40 50 -57 l16 -29 11 -108 11 -107 187 3 187 3 44 42 44 42 -36 32 c-20 18 -51 61 -70 95 l-34 63 0 95 0 95 42 87 43 86 34 33 35 32 -10 20 c-6 10 -8 21 -6 24 3 2 11 -5 17 -17 l12 -22 31 49 31 48 7 67 8 67 -30 118 c-16 65 -29 121 -29 125 0 4 14 24 32 45 l32 38 -37 -34 -37 -35 -23 10 c-12 5 -84 73 -160 151 l-137 143 0 19 0 19 139 134 140 133 1 55 c1 30 -16 181 -39 335 -23 154 -51 352 -63 440 -11 88 -25 170 -29 183 l-9 22 -37 -1 c-21 0 -58 -7 -84 -14z m152 -368 c-13 -13 -26 -3 -16 12 3 6 11 8 17 5 l10 -6 -11 -11z m39 -232 c0 -8 -4 -15 -10 -15 -5 0 -10 7 -10 15 0 8 5 15 10 15 6 0 10 -7 10 -15z m30 -205 c0 -5 -4 -10 -9 -10 -6 0 -13 5 -16 10 l-6 10 15 0 c9 0 16 -4 16 -10z m-2196 -372 c3 -13 8 -44 11 -70 l6 -47 -68 -50 c-37 -28 -71 -50 -75 -51 -3 0 -9 27 -13 60 l-7 60 24 48 23 47 25 12 c14 7 35 13 47 13 l23 0 4 -22z m354 -942 c5 -24 -10 -38 -31 -30 -17 6 -23 35 -10 48 12 12 38 1 41 -18z m190 -30 l-3 -21 -20 0 -20 0 -3 19 c-4 21 14 37 35 29 l14 -6 -3 -21z m-258 -41 l12 -15 35 0 35 0 -4 -12 c-3 -7 -18 -14 -34 -16 l-29 -3 -23 21 c-23 21 -29 40 -13 40 5 0 14 -7 21 -15z m300 -24 c0 -31 -84 -53 -108 -29 -21 21 -13 28 27 22 l38 -6 7 11 c9 13 36 15 36 2z"/>
<path d="M7048 3258 c-46 -16 -29 -38 30 -38 15 0 36 -7 46 -15 21 -16 66 -20 66 -7 0 14 -41 53 -67 63 -29 11 -39 11 -75 -3z"/>
<path d="M5885 2464 c-30 -16 -55 -41 -55 -56 0 -12 68 -10 75 2 l7 11 33 -7 c36 -6 75 2 75 16 0 14 -41 37 -75 44 l-30 5 -30 -15z"/>
<path d="M5914 2285 l-22 -24 -49 5 -49 6 -32 -27 -32 -27 0 -37 c0 -42 -23 -81 -48 -81 -9 0 -25 14 -34 30 l-17 30 -20 0 -20 0 -4 18 -5 17 -1 -17 c0 -9 -9 -19 -19 -22 -10 -3 -26 -20 -36 -37 l-18 -31 5 -35 c4 -20 14 -44 23 -54 l17 -19 31 0 31 -1 33 -56 32 -56 0 -42 0 -42 18 -16 c10 -10 23 -17 28 -17 5 0 28 -23 52 -50 l43 -50 49 -25 c27 -14 73 -28 103 -31 l54 -6 58 17 58 16 57 57 56 57 17 48 c9 26 23 55 32 64 l17 16 -6 41 c-9 63 -9 68 5 123 l13 51 29 6 28 6 15 35 14 35 -14 34 c-7 18 -27 42 -42 53 l-29 20 -25 -7 c-14 -3 -34 -20 -46 -37 l-21 -32 -12 12 c-6 6 -11 19 -11 30 0 10 -13 32 -29 48 l-29 29 -31 0 -30 0 -35 -30 -34 -30 -6 15 -5 15 -24 0 c-14 0 -30 7 -37 15 -17 20 -21 19 -46 -10z m236 -190 l0 -15 -45 0 c-75 0 -54 22 28 29 l17 1 0 -15z m-272 -37 c-3 -7 -21 -14 -41 -16 l-37 -3 0 10 c0 10 22 18 58 20 l24 1 -4 -12z m302 -63 l0 -15 -39 0 -38 0 -27 -21 -26 -20 -6 16 c-4 9 -5 17 -3 19 2 1 15 10 29 19 l24 17 43 0 43 0 0 -15z m-252 -37 c7 -7 12 -15 12 -18 0 -4 -124 -5 -149 -1 -2 1 2 8 9 16 l12 15 52 0 52 0 12 -12z"/>
</g>
<g id="layer107" fill="#9d684e" stroke="none">
<path d="M6509 5255 c-25 -8 -108 -52 -185 -98 l-139 -84 1 -69 0 -69 15 -25 14 -25 5 55 c3 30 9 55 15 55 26 0 67 -266 51 -329 -7 -30 -26 -35 -26 -7 l0 20 -20 6 c-11 3 -20 13 -20 21 0 20 -27 29 -45 14 l-15 -12 11 -20 11 -20 13 6 14 5 -5 -13 c-3 -8 3 -20 13 -27 24 -18 27 -38 10 -58 -8 -9 -80 -127 -161 -263 -81 -137 -151 -248 -157 -248 -5 0 -23 7 -39 15 l-29 15 -24 -42 c-14 -24 -46 -81 -72 -128 l-47 -85 -8 -50 c-13 -78 -45 -154 -151 -360 -103 -199 -159 -346 -159 -413 0 -51 -30 -148 -63 -204 -36 -61 -128 -145 -191 -174 -30 -14 -83 -30 -118 -36 l-63 -11 -60 12 c-171 35 -297 151 -339 315 l-15 57 6 182 5 182 -16 97 c-9 54 -16 100 -16 103 0 6 153 109 165 111 6 1 42 5 80 8 39 4 80 10 93 13 l22 5 0 -92 0 -92 -57 -56 c-32 -32 -69 -79 -83 -105 l-25 -47 -22 0 -23 0 -6 -27 c-4 -16 -15 -40 -25 -55 -25 -35 -24 -38 11 -38 17 0 44 -7 59 -15 l28 -14 18 -37 c16 -34 16 -58 1 -94 l-6 -15 35 -24 35 -23 22 -47 23 -46 48 32 c27 18 67 38 90 44 l42 11 56 -6 57 -5 6 39 6 39 36 36 35 35 44 12 43 12 -10 25 c-6 14 -11 40 -12 56 l-1 30 -23 10 -23 10 -10 40 c-14 52 -51 124 -83 163 l-26 30 0 103 0 104 93 27 92 27 65 -5 65 -5 35 19 35 19 21 39 c12 21 36 103 53 182 l31 143 208 237 c114 130 228 262 253 293 24 30 49 54 55 52 6 -2 17 3 24 12 l12 15 -23 53 -24 52 2 103 1 103 -33 -21 -32 -20 -104 0 -104 0 -38 20 -37 20 -59 0 -59 0 -10 48 c-6 26 -14 65 -18 87 l-8 40 -7 -78 c-4 -43 -8 -79 -10 -81 -2 -2 -195 -6 -428 -10 l-423 -6 13 17 c24 29 -149 -107 -250 -198 -91 -82 -217 -220 -266 -291 l-23 -33 -33 -325 c-34 -331 -39 -431 -25 -486 l8 -31 -156 -112 c-86 -62 -164 -124 -173 -137 l-16 -25 -29 -377 c-16 -207 -32 -402 -36 -432 l-7 -55 -25 -3 c-67 -7 -92 -15 -118 -37 l-29 -24 -74 -4 -74 -3 151 -2 152 -2 12 -15 13 -16 -22 -22 c-11 -13 -21 -31 -21 -40 l0 -16 45 27 44 27 10 28 10 27 33 1 33 2 -27 4 c-34 5 -34 6 -5 91 13 37 66 211 117 388 l92 321 52 31 c28 17 65 40 82 52 l30 20 68 -293 c37 -160 74 -321 83 -356 l16 -64 41 -61 c47 -70 117 -126 196 -158 l55 -23 423 -3 423 -3 -8 28 c-3 15 -7 51 -7 79 l-1 50 25 37 c14 20 39 44 56 52 34 16 439 76 521 77 l53 1 35 -27 c19 -15 42 -40 50 -57 l16 -29 11 -108 11 -107 187 3 187 3 44 42 44 42 -36 32 c-20 18 -51 61 -70 95 l-34 63 0 95 0 95 42 87 43 86 34 33 35 32 -10 20 c-6 10 -8 21 -6 24 3 2 11 -5 17 -17 l12 -22 31 49 31 48 7 67 8 67 -30 118 c-16 65 -29 121 -29 125 0 4 14 24 32 45 l32 38 -37 -34 -37 -35 -23 10 c-12 5 -84 73 -160 151 l-137 143 0 19 0 19 139 134 140 133 1 55 c1 30 -16 181 -39 335 -23 154 -51 352 -63 440 -11 88 -25 170 -29 183 l-9 22 -37 -1 c-21 0 -58 -7 -84 -14z m152 -368 c-13 -13 -26 -3 -16 12 3 6 11 8 17 5 l10 -6 -11 -11z m39 -232 c0 -8 -4 -15 -10 -15 -5 0 -10 7 -10 15 0 8 5 15 10 15 6 0 10 -7 10 -15z m30 -205 c0 -5 -4 -10 -9 -10 -6 0 -13 5 -16 10 l-6 10 15 0 c9 0 16 -4 16 -10z m-2195 -372 c2 -13 6 -45 7 -72 l3 -50 -64 -48 c-35 -26 -67 -48 -71 -48 -5 0 -11 27 -15 60 l-7 60 24 48 23 47 25 12 c14 7 35 13 47 13 l23 0 5 -22z m353 -942 c5 -24 -10 -38 -31 -30 -17 6 -23 35 -10 48 12 12 38 1 41 -18z m190 -30 l-3 -21 -20 0 -20 0 -3 19 c-4 21 14 37 35 29 l14 -6 -3 -21z m-258 -41 l12 -15 35 0 35 0 -4 -12 c-3 -7 -18 -14 -34 -16 l-29 -3 -23 21 c-23 21 -29 40 -13 40 5 0 14 -7 21 -15z m300 -24 c0 -31 -84 -53 -108 -29 -21 21 -13 28 27 22 l38 -6 7 11 c9 13 36 15 36 2z"/>
<path d="M7050 3092 l-15 -7 0 -52 c-1 -62 9 -68 25 -17 7 19 18 38 26 41 l14 5 -11 19 c-10 20 -15 22 -39 11z"/>
<path d="M5914 2285 l-22 -24 -49 5 -49 6 -32 -27 -32 -27 0 -37 c0 -42 -23 -81 -48 -81 -9 0 -25 14 -34 30 l-17 30 -20 0 -20 0 -4 18 -5 17 -1 -17 c0 -9 -9 -19 -19 -22 -10 -3 -26 -20 -36 -37 l-18 -31 5 -35 c4 -20 14 -44 23 -54 l17 -19 32 0 31 0 17 -32 c9 -18 25 -48 36 -66 l19 -32 11 14 c12 15 30 18 207 41 65 8 142 20 169 25 28 6 84 14 124 19 l75 10 16 -9 16 -8 1 16 c0 9 7 40 14 69 l13 51 29 6 28 6 15 35 14 35 -14 34 c-7 18 -27 42 -42 53 l-29 20 -25 -7 c-14 -3 -34 -20 -46 -37 l-21 -32 -12 12 c-6 6 -11 19 -11 30 0 10 -13 32 -29 48 l-29 29 -31 0 -30 0 -35 -30 -34 -30 -6 15 -5 15 -24 0 c-14 0 -30 7 -37 15 -17 20 -21 19 -46 -10z m236 -190 l0 -15 -45 0 c-75 0 -54 22 28 29 l17 1 0 -15z m-272 -37 c-3 -7 -21 -14 -41 -16 l-37 -3 0 10 c0 10 22 18 58 20 l24 1 -4 -12z m302 -63 l0 -15 -39 0 -38 0 -27 -21 -26 -20 -6 16 c-4 9 -5 17 -3 19 2 1 15 10 29 19 l24 17 43 0 43 0 0 -15z m-252 -37 c7 -7 12 -15 12 -18 0 -4 -124 -5 -149 -1 -2 1 2 8 9 16 l12 15 52 0 52 0 12 -12z"/>
</g>
<g id="layer108" fill="#5658af" stroke="none">
<path d="M6590 3995 c-23 -24 -41 -48 -39 -53 7 -17 235 -252 245 -252 5 0 32 21 59 46 28 25 45 43 39 40 -10 -5 -94 76 -211 205 l-52 56 -41 -42z"/>
<path d="M7301 3158 c5 -18 9 -63 9 -101 l0 -68 16 -31 16 -31 -4 -106 -4 -106 -32 -66 -32 -67 -39 -35 c-47 -43 -108 -75 -170 -91 -24 -6 -46 -16 -48 -22 l-3 -10 32 3 c51 5 540 25 658 27 l104 1 208 -270 c115 -148 256 -333 314 -409 l106 -139 -7 -41 c-4 -23 -8 -77 -9 -121 l-3 -80 -27 -67 c-15 -37 -26 -77 -24 -89 3 -22 10 -27 58 -47 14 -5 47 -20 73 -31 27 -12 61 -24 77 -27 l28 -6 17 26 c10 14 24 26 31 26 l14 0 0 43 c0 23 5 49 10 57 l9 14 24 -22 c13 -12 26 -22 30 -22 13 0 7 31 -13 70 l-20 39 10 27 10 26 23 -16 c12 -9 30 -21 40 -26 l17 -11 6 16 6 15 -28 23 c-15 12 -32 25 -37 28 l-10 7 18 51 19 50 -19 21 c-10 11 -23 20 -30 20 -6 0 -34 11 -62 24 l-50 25 -232 577 c-128 317 -243 594 -256 614 -13 20 -42 53 -64 72 l-41 35 -195 63 -195 64 0 28 c0 15 -1 28 -3 28 -2 0 -74 16 -160 35 -86 19 -161 35 -166 35 l-10 0 10 -32z m1245 -1870 c-7 -38 -29 -63 -45 -54 -27 17 -3 86 31 86 l21 0 -7 -32z"/>
<path d="M3242 1993 l3 -188 72 0 c39 0 67 3 62 6 l-10 6 3 181 3 182 -68 0 -67 0 2 -187z"/>
</g>
<g id="layer109" fill="#e84757" stroke="none">
<path d="M6509 5255 c-25 -8 -108 -52 -185 -98 l-139 -84 1 -69 0 -69 15 -25 14 -25 5 55 c3 30 9 55 15 55 26 0 67 -266 51 -329 -7 -30 -26 -35 -26 -7 l0 20 -20 6 c-11 3 -20 13 -20 21 0 20 -27 29 -45 14 l-15 -12 11 -20 11 -20 13 6 14 5 -5 -13 -5 -14 23 -16 c12 -9 19 -16 14 -16 -5 0 -3 -6 3 -14 l12 -14 -14 -5 c-12 -4 -263 -416 -305 -499 l-13 -28 -39 20 -39 20 -24 -43 c-14 -23 -46 -80 -72 -127 l-47 -85 -8 -50 c-13 -78 -45 -154 -151 -360 -103 -199 -159 -346 -159 -413 0 -51 -30 -148 -63 -204 -36 -61 -128 -145 -191 -174 -30 -14 -83 -30 -118 -36 l-63 -11 -60 12 c-171 35 -297 151 -339 315 l-15 57 6 182 5 182 -16 97 c-9 54 -16 100 -16 102 0 3 36 29 79 59 l79 55 74 6 c40 4 85 9 100 12 l26 5 4 89 3 90 31 31 31 30 40 6 41 5 37 -12 37 -12 19 -32 19 -31 0 -82 0 -83 10 0 c5 0 44 11 87 25 l78 24 70 -5 70 -5 35 19 35 19 21 39 c12 21 36 103 53 182 l31 143 208 237 c114 130 228 262 253 293 24 30 49 54 55 52 6 -2 17 3 24 12 l12 15 -9 13 c-6 6 -18 41 -27 76 l-18 65 7 73 7 73 -14 0 c-7 0 -22 -7 -32 -15 l-20 -15 -105 0 -106 0 -29 15 -28 15 -68 0 -69 0 -11 58 c-7 31 -16 73 -20 92 l-8 35 -1 -78 -1 -78 -12 -3 c-7 -3 -201 -7 -432 -10 l-419 -6 14 17 c24 29 -149 -107 -250 -198 -91 -82 -217 -220 -266 -291 l-23 -33 -33 -325 c-34 -331 -39 -431 -25 -486 l8 -31 -156 -112 c-86 -62 -164 -124 -173 -137 l-16 -25 -29 -377 c-16 -207 -32 -402 -36 -432 l-7 -55 -51 -6 c-54 -7 -83 -19 -104 -43 l-12 -16 -77 -2 -76 -2 160 -6 160 -5 3 -18 4 -19 -21 -14 c-19 -13 -30 -44 -16 -44 3 0 23 11 45 25 l40 25 6 25 6 25 37 1 36 2 -27 4 c-34 5 -34 6 -5 91 13 37 66 211 117 388 l92 321 52 31 c28 17 65 40 82 52 l30 20 68 -293 c37 -160 74 -321 83 -356 l16 -64 41 -61 c47 -70 117 -126 196 -158 l55 -23 417 -3 418 -3 -3 79 -2 78 25 37 c14 20 39 44 56 52 34 16 439 76 521 77 l53 1 35 -27 c48 -37 62 -69 75 -172 6 -49 13 -97 16 -106 l5 -18 183 0 182 0 45 43 44 42 -36 32 c-20 18 -51 61 -70 95 l-34 63 0 95 0 95 42 87 43 86 34 33 35 32 -10 20 c-6 10 -8 21 -6 24 3 2 11 -5 17 -17 l12 -22 31 49 31 48 7 67 8 67 -30 118 c-16 65 -29 121 -29 125 0 4 14 24 32 45 l32 38 -37 -34 -37 -35 -23 10 c-12 5 -84 73 -160 151 l-137 143 0 19 0 19 139 134 140 133 1 55 c1 30 -16 181 -39 335 -23 154 -51 352 -63 440 -11 88 -25 170 -29 183 l-9 22 -37 -1 c-21 0 -58 -7 -84 -14z m152 -368 c-13 -13 -26 -3 -16 12 3 6 11 8 17 5 l10 -6 -11 -11z m39 -232 c0 -8 -4 -15 -10 -15 -5 0 -10 7 -10 15 0 8 5 15 10 15 6 0 10 -7 10 -15z m30 -205 c0 -5 -4 -10 -9 -10 -6 0 -13 5 -16 10 l-6 10 15 0 c9 0 16 -4 16 -10z m-2195 -372 c2 -13 6 -45 7 -72 l3 -50 -64 -48 c-35 -26 -67 -48 -71 -48 -5 0 -11 27 -15 60 l-7 60 24 48 23 47 25 12 c14 7 35 13 47 13 l23 0 5 -22z"/>
<path d="M4894 3501 l-89 -59 -31 -44 c-17 -24 -39 -58 -48 -75 l-17 -33 -24 0 -25 0 -6 -27 c-8 -37 -11 -44 -30 -70 l-16 -23 42 0 42 0 28 -29 c35 -34 46 -71 33 -114 l-9 -32 36 -26 c29 -21 47 -47 77 -107 0 -2 19 10 42 26 22 16 60 35 85 42 l46 13 55 -5 55 -5 10 37 c6 21 19 49 31 64 22 28 87 66 114 66 l15 0 0 19 c0 11 -4 23 -10 26 -5 3 -9 20 -7 38 l2 31 -27 14 -28 13 0 20 c0 11 -13 48 -29 84 l-29 64 -75 76 -75 75 -24 0 -25 0 -89 -59z m147 -112 c19 -10 31 -46 18 -55 -5 -3 -22 4 -38 15 -32 23 -56 27 -66 11 -3 -5 -15 -10 -26 -10 l-19 0 0 19 c0 11 6 21 13 24 21 7 101 5 118 -4z m-41 -104 c0 -8 7 -15 15 -15 8 0 15 -5 15 -10 0 -6 -7 -13 -15 -16 -8 -4 -15 -16 -15 -28 0 -11 -3 -31 -6 -44 l-7 -23 -21 3 -21 3 0 42 c0 22 -3 45 -7 49 -13 13 -9 34 7 34 8 0 15 5 15 10 0 6 9 10 20 10 l20 0 0 -15z m-110 -140 l12 -15 -12 -15 c-25 -30 -61 -7 -46 30 3 8 12 15 19 15 8 0 20 -7 27 -15z m189 -19 c15 -18 3 -46 -20 -46 -22 0 -34 22 -25 45 7 19 30 19 45 1z m-209 -72 c33 6 44 -2 29 -21 -16 -19 -63 -16 -90 5 l-22 19 7 18 7 18 21 -22 21 -23 27 6z m250 -13 c0 -15 -42 -41 -66 -41 -33 0 -54 10 -54 26 l0 14 39 -6 38 -6 7 11 c9 13 36 15 36 2z"/>
<path d="M5923 2291 c-6 -24 -29 -30 -85 -24 l-44 5 -32 -27 -32 -27 0 -37 c0 -42 -23 -81 -48 -81 -9 0 -25 14 -34 30 l-17 30 -20 0 -20 0 -4 18 -5 17 -1 -17 c0 -9 -9 -19 -19 -22 -10 -3 -26 -20 -36 -37 l-18 -31 5 -35 c4 -20 14 -44 23 -54 l17 -19 32 0 31 0 17 -32 c9 -18 25 -48 36 -66 l19 -32 11 14 c12 15 30 18 207 41 65 8 142 20 169 25 28 6 84 14 124 19 l75 10 16 -9 16 -8 1 16 c0 9 7 40 14 69 l13 51 29 6 28 6 15 35 14 35 -14 34 c-7 18 -27 42 -42 53 l-29 20 -25 -7 c-14 -3 -34 -20 -46 -37 l-21 -32 -12 12 c-6 6 -11 19 -11 30 0 10 -13 32 -29 48 l-29 29 -31 0 -30 0 -35 -30 -34 -30 -6 15 -5 15 -30 0 -29 0 -6 15 c-8 21 -27 19 -33 -4z m227 -196 l0 -15 -45 0 c-75 0 -54 22 28 29 l17 1 0 -15z m-272 -37 c-3 -7 -21 -14 -41 -16 l-37 -3 0 10 c0 10 22 18 58 20 l24 1 -4 -12z m302 -63 l0 -15 -39 0 -38 0 -27 -21 -26 -20 -6 16 c-4 9 -5 17 -3 19 2 1 15 10 29 19 l24 17 43 0 43 0 0 -15z m-252 -37 c7 -7 12 -15 12 -18 0 -4 -124 -5 -149 -1 -2 1 2 8 9 16 l12 15 52 0 52 0 12 -12z"/>
<path d="M6265 1840 c-16 -5 -144 -25 -284 -46 l-254 -37 -16 10 c-8 5 -19 21 -22 34 l-7 24 -1 -21 c-1 -21 27 -54 45 -54 5 0 28 -23 52 -50 l43 -50 49 -25 c27 -14 73 -28 103 -31 l54 -6 58 17 58 16 57 57 57 57 17 52 c9 28 23 54 29 57 19 7 -5 5 -38 -4z"/>
</g>
<g id="layer110" fill="#689096" stroke="none">
<path d="M6911 5271 l-14 -9 25 -154 26 -153 -10 -4 -10 -3 11 -7 c9 -6 81 -401 81 -446 l0 -15 -22 0 c-12 0 -18 -3 -15 -6 4 -4 32 -2 64 5 32 6 148 27 258 47 110 20 203 42 207 48 4 6 8 90 8 188 l0 176 -42 34 c-24 18 -47 38 -53 44 -22 26 -202 136 -324 198 -127 65 -161 75 -190 57z"/>
<path d="M6509 5255 c-25 -8 -108 -52 -185 -98 l-139 -84 1 -69 0 -69 15 -25 14 -25 5 55 c3 30 9 55 15 55 26 0 67 -266 51 -329 -7 -30 -26 -35 -26 -7 l0 20 -20 6 c-11 3 -20 13 -20 21 0 20 -27 29 -45 14 l-15 -12 11 -20 11 -20 13 6 14 5 -5 -13 -5 -14 23 -16 c12 -9 19 -16 14 -16 -5 0 -3 -6 3 -14 l12 -14 -14 -5 c-12 -4 -263 -416 -305 -499 l-13 -28 -39 20 -39 20 -24 -43 c-14 -23 -46 -80 -72 -127 l-47 -85 -8 -50 c-13 -78 -45 -154 -151 -360 -103 -199 -159 -346 -159 -413 0 -51 -30 -148 -63 -204 -36 -61 -128 -145 -191 -174 -30 -14 -83 -30 -118 -36 l-63 -11 -60 12 c-171 35 -297 151 -339 315 l-15 57 6 182 5 182 -15 94 c-9 51 -18 95 -20 98 -3 2 -30 -12 -60 -32 -31 -20 -60 -34 -66 -31 -9 6 -143 196 -164 232 l-6 11 95 68 96 68 -7 63 -6 63 19 43 c23 53 40 67 86 75 l35 5 5 -23 c3 -13 16 -113 30 -222 13 -109 26 -201 29 -204 5 -5 157 9 244 23 l31 5 4 89 3 90 31 31 31 30 40 6 41 5 37 -12 37 -12 19 -32 19 -31 0 -82 0 -83 9 0 c6 0 45 11 88 24 43 14 106 32 141 42 34 9 64 20 66 23 2 3 18 119 36 256 17 138 33 255 35 262 l4 11 63 -15 c35 -9 67 -19 71 -23 4 -3 1 -34 -7 -68 -8 -34 -13 -62 -11 -62 5 0 400 452 456 521 24 30 49 54 55 52 6 -2 17 3 24 12 l12 15 -9 13 c-6 6 -18 41 -27 76 l-18 65 7 73 7 73 -14 0 c-7 0 -22 -7 -32 -15 l-20 -15 -105 0 -106 0 -29 15 -28 15 -68 0 -69 0 -11 58 c-7 31 -16 73 -20 92 l-8 35 -1 -78 -1 -78 -12 -3 c-7 -3 -201 -7 -432 -10 l-419 -6 14 17 c24 29 -149 -107 -250 -198 -91 -82 -217 -220 -266 -291 l-23 -33 -33 -325 c-34 -331 -39 -431 -25 -486 l8 -31 -156 -112 c-86 -62 -164 -124 -173 -137 l-16 -25 -29 -377 c-16 -207 -32 -402 -36 -432 l-7 -55 -51 -6 c-54 -7 -83 -19 -104 -43 l-12 -16 -77 -2 -76 -2 160 -6 160 -5 3 -18 4 -19 -21 -14 c-19 -13 -30 -44 -16 -44 3 0 23 11 45 25 l40 25 6 25 6 25 37 1 36 2 -27 4 c-34 5 -34 6 -5 91 13 37 66 211 117 388 l92 321 52 31 c28 17 65 40 82 52 l30 20 68 -293 c37 -160 74 -321 83 -356 l16 -64 41 -61 c47 -70 117 -126 196 -158 l55 -23 417 -3 418 -3 -3 79 -2 78 25 37 c14 20 39 44 56 52 34 16 439 76 521 77 l53 1 35 -27 c48 -37 62 -69 75 -172 6 -49 13 -97 16 -106 l5 -18 183 0 182 0 45 43 44 42 -36 32 c-20 18 -51 61 -70 95 l-34 63 0 95 0 95 42 87 43 86 34 33 35 32 -10 20 c-6 10 -8 21 -6 24 3 2 11 -5 17 -17 l12 -22 31 49 31 48 7 67 8 67 -30 118 c-16 65 -29 121 -29 125 0 4 14 24 32 45 l32 38 -37 -34 -37 -35 -23 10 c-12 5 -84 73 -160 151 l-137 143 0 19 0 19 139 134 140 133 1 55 c1 30 -16 181 -39 335 -23 154 -51 352 -63 440 -11 88 -25 170 -29 183 l-9 22 -37 -1 c-21 0 -58 -7 -84 -14z m152 -368 c-13 -13 -26 -3 -16 12 3 6 11 8 17 5 l10 -6 -11 -11z m39 -232 c0 -8 -4 -15 -10 -15 -5 0 -10 7 -10 15 0 8 5 15 10 15 6 0 10 -7 10 -15z m30 -205 c0 -5 -4 -10 -9 -10 -6 0 -13 5 -16 10 l-6 10 15 0 c9 0 16 -4 16 -10z"/>
<path d="M7944 4379 c-10 -12 -32 -28 -48 -36 l-30 -16 -136 7 -135 7 -42 -98 -42 -98 -1 98 0 97 22 0 c12 0 19 2 17 4 -2 2 -101 12 -220 21 l-217 17 -35 -11 -34 -12 5 -27 5 -27 -19 15 c-23 18 130 -151 180 -199 l36 -35 0 -22 0 -21 -70 -63 c-38 -35 -67 -66 -65 -70 3 -4 11 -49 19 -99 l15 -93 26 -55 25 -55 0 -105 0 -104 80 7 81 7 58 -13 59 -12 38 12 c56 18 92 46 113 88 10 21 78 209 152 419 l134 383 16 0 15 0 11 53 c6 28 10 53 9 55 -2 1 -11 -7 -22 -19z"/>
<path d="M6890 4285 l-12 -15 10 0 c12 0 26 19 19 26 -2 2 -10 -2 -17 -11z"/>
<path d="M6605 4010 l-27 -28 8 -15 c5 -8 62 -69 126 -135 l117 -120 38 35 c21 19 33 32 27 29 -10 -5 -94 77 -211 205 l-52 56 -26 -27z"/>
<path d="M6553 3954 l-6 -16 19 -16 18 -17 -13 17 c-7 10 -11 25 -7 33 3 8 3 15 0 15 -2 0 -7 -7 -11 -16z"/>
<path d="M7026 3834 c-37 -36 -60 -61 -50 -56 19 10 132 122 124 122 -3 -1 -36 -30 -74 -66z"/>
<path d="M7301 3158 c5 -18 9 -63 9 -101 l0 -68 16 -31 16 -31 -4 -106 -4 -106 -32 -66 -32 -67 -39 -35 c-47 -43 -108 -75 -170 -91 -24 -6 -46 -16 -48 -22 l-3 -10 32 3 c51 5 540 25 658 27 l104 1 208 -270 c115 -148 256 -333 314 -409 l106 -139 -7 -41 c-10 -58 -12 -205 -3 -199 5 2 11 -9 14 -26 l7 -31 13 0 c12 0 17 11 29 72 1 9 -2 19 -8 21 l-10 3 16 67 c9 36 17 77 17 90 0 13 9 32 20 42 l19 17 23 -4 c13 -3 30 -9 39 -12 l16 -7 -228 568 c-126 312 -239 588 -251 612 -13 23 -44 62 -69 85 l-47 42 -196 64 -196 64 0 28 c0 15 -1 28 -3 28 -2 0 -74 16 -160 35 -86 19 -161 35 -166 35 l-10 0 10 -32z"/>
<path d="M3242 1993 l3 -188 72 0 c39 0 67 3 62 6 l-10 6 3 181 3 182 -42 0 -43 0 0 -185 0 -185 -20 0 -21 0 3 185 c2 102 0 185 -5 185 -4 0 -6 -84 -5 -187z"/>
</g>
<g id="layer111" fill="#efa704" stroke="none">
<path d="M6537 5259 c-49 -12 -118 -47 -251 -127 l-108 -67 4 -65 c3 -36 11 -77 19 -90 l14 -25 5 55 c3 30 9 55 15 55 5 0 18 -29 28 -65 l19 -65 4 -137 3 -137 -32 -3 -32 -3 -143 -240 c-79 -132 -147 -250 -152 -263 l-10 -23 -39 21 -40 20 -24 -43 c-88 -154 -116 -211 -122 -249 -13 -77 -55 -178 -156 -372 -103 -200 -159 -346 -159 -414 0 -51 -30 -148 -63 -204 -36 -61 -128 -145 -191 -174 -30 -14 -83 -30 -118 -36 l-63 -11 -60 12 c-171 35 -297 151 -339 315 l-15 57 6 182 5 182 -15 94 c-9 51 -18 95 -20 98 -3 2 -30 -12 -60 -32 -31 -20 -60 -34 -66 -31 -9 6 -143 196 -164 232 l-6 11 95 68 96 68 -7 63 -6 63 19 43 c23 53 40 67 86 75 l35 5 5 -23 c3 -13 16 -113 30 -222 13 -109 26 -201 29 -204 5 -5 157 9 244 23 l31 5 4 89 3 90 31 31 31 30 40 6 41 5 37 -12 37 -12 19 -32 19 -31 0 -82 0 -83 9 0 c6 0 45 11 88 24 43 14 106 32 141 42 34 9 64 20 66 23 2 3 18 119 36 256 17 138 33 255 35 262 l4 11 63 -15 c35 -9 67 -19 71 -23 4 -3 1 -34 -7 -68 -8 -34 -13 -62 -11 -62 4 0 389 440 453 517 l43 53 -6 19 -6 19 21 15 21 15 -16 57 -17 57 7 74 7 74 -14 0 c-7 0 -22 -7 -32 -15 l-20 -15 -105 0 -106 0 -29 15 -28 15 -68 0 -69 0 -11 58 c-7 31 -16 73 -20 92 l-8 35 -1 -78 -1 -78 -12 -3 c-7 -3 -201 -7 -432 -10 l-419 -6 14 17 c24 29 -149 -107 -250 -198 -91 -82 -217 -220 -266 -291 l-23 -33 -33 -325 c-34 -331 -39 -431 -25 -486 l8 -31 -156 -112 c-86 -62 -164 -124 -173 -137 l-16 -25 -29 -377 c-16 -207 -32 -402 -36 -432 l-7 -55 -51 -6 c-54 -7 -83 -19 -104 -43 l-12 -16 -77 -2 -76 -2 160 -6 160 -5 3 -18 4 -19 -21 -14 c-19 -13 -30 -44 -16 -44 3 0 23 11 45 25 l40 25 6 25 6 25 37 1 36 2 -27 4 c-34 5 -34 6 -5 91 13 37 66 211 117 388 l92 321 52 31 c28 17 65 40 82 52 l30 20 68 -293 c37 -160 74 -321 83 -356 l16 -64 41 -61 c47 -70 117 -126 196 -158 l55 -23 417 -3 418 -3 -3 79 -2 78 25 37 c14 20 39 44 56 52 34 16 439 76 521 77 l53 1 35 -27 c48 -37 62 -69 75 -172 6 -49 13 -97 16 -106 l5 -18 183 0 182 0 45 43 44 42 -36 32 c-20 18 -51 61 -70 95 l-34 63 0 95 0 95 42 87 43 86 34 33 35 32 -10 20 c-6 10 -8 21 -6 24 3 2 11 -5 17 -17 l12 -22 31 49 31 48 7 67 8 67 -30 118 c-16 65 -29 121 -29 125 0 4 15 24 32 45 l33 38 -42 -37 -43 -38 -13 6 c-8 3 -63 57 -121 120 -59 63 -113 114 -119 114 -7 1 -24 20 -40 44 l-27 44 5 15 c4 8 65 70 138 137 73 68 135 129 139 135 16 26 8 126 -30 385 -86 582 -94 635 -96 637 -9 9 -67 10 -99 2z m124 -372 c-13 -13 -26 -3 -16 12 3 6 11 8 17 5 l10 -6 -11 -11z m39 -232 c0 -8 -4 -15 -10 -15 -5 0 -10 7 -10 15 0 8 5 15 10 15 6 0 10 -7 10 -15z m30 -205 c0 -5 -4 -10 -9 -10 -6 0 -13 5 -16 10 l-6 10 15 0 c9 0 16 -4 16 -10z"/>
<path d="M7301 3158 c5 -18 9 -63 9 -101 l0 -68 16 -31 16 -31 -4 -106 -4 -106 -32 -66 -32 -67 -39 -35 c-47 -43 -108 -75 -170 -91 -24 -6 -46 -16 -48 -22 l-3 -10 32 3 c51 5 540 25 658 27 l104 1 208 -270 c115 -148 256 -333 314 -409 l106 -139 -7 -41 c-10 -58 -12 -205 -3 -199 5 2 11 -9 14 -26 l7 -31 13 0 c17 0 25 32 22 90 -2 45 16 154 33 199 l10 23 32 -4 c17 -3 39 -8 48 -12 l16 -7 -228 568 c-126 312 -239 588 -251 612 -13 23 -44 62 -69 85 l-47 42 -196 64 -196 64 0 28 c0 15 -1 28 -3 28 -2 0 -74 16 -160 35 -86 19 -161 35 -166 35 l-10 0 10 -32z"/>
</g>
<g id="layer112" fill="#b88468" stroke="none">
<path d="M5621 5137 l-1 -78 -12 -3 c-7 -3 -201 -7 -432 -10 l-419 -6 14 17 c24 29 -149 -107 -250 -198 -91 -82 -217 -220 -266 -291 l-23 -33 -33 -325 c-34 -331 -39 -431 -25 -486 l8 -31 -156 -112 c-86 -62 -164 -124 -173 -137 l-16 -25 -29 -377 c-16 -207 -32 -402 -36 -432 l-7 -55 -51 -6 c-54 -7 -83 -19 -104 -43 l-12 -16 -77 -2 -76 -2 160 -6 160 -5 3 -18 4 -19 -21 -14 c-19 -13 -30 -44 -16 -44 3 0 23 11 45 25 l40 25 6 25 6 25 37 1 36 2 -27 4 c-34 5 -34 6 -5 91 13 37 66 211 117 387 l93 320 128 85 c71 47 136 90 145 97 l16 12 -74 108 c-41 59 -78 113 -81 119 l-6 11 95 68 96 68 -7 63 -6 63 19 43 c23 53 40 67 86 75 l35 5 5 -23 c3 -13 16 -113 30 -222 13 -109 26 -201 29 -204 5 -5 157 9 244 23 l31 5 4 89 3 90 31 31 31 30 40 6 41 5 37 -12 37 -12 19 -32 19 -31 0 -82 0 -83 9 0 c6 0 45 11 88 24 43 14 106 32 141 42 34 9 64 20 66 23 2 3 18 119 36 256 17 138 33 255 35 262 l4 11 61 -15 c33 -9 63 -13 66 -10 3 3 26 98 50 212 l43 206 -50 252 c-27 139 -51 257 -54 262 -2 6 -4 -25 -4 -68z"/>
<path d="M4894 3501 c-88 -59 -116 -87 -160 -164 l-22 -40 11 -19 12 -18 -11 -18 -11 -17 -33 -1 -33 0 -20 -25 -19 -24 47 -6 48 -5 23 -28 c30 -35 39 -69 27 -109 l-9 -32 36 -26 c29 -21 47 -47 77 -107 0 -2 19 10 42 26 22 16 60 35 85 42 l46 13 55 -5 55 -5 10 37 c6 21 19 49 31 64 22 28 87 66 114 66 l15 0 0 19 c0 23 -15 34 -48 36 -37 1 -55 42 -29 67 l14 12 -7 32 c-4 17 -19 57 -33 87 l-26 57 -74 75 -75 75 -24 0 -25 0 -89 -59z m147 -112 c19 -10 31 -46 18 -55 -5 -3 -22 4 -38 15 -32 23 -56 27 -66 11 -3 -5 -15 -10 -26 -10 l-19 0 0 19 c0 11 6 21 13 24 21 7 101 5 118 -4z m-41 -104 c0 -8 7 -15 15 -15 8 0 15 -5 15 -10 0 -6 -7 -13 -15 -16 -8 -4 -15 -16 -15 -28 0 -11 -3 -31 -6 -44 l-7 -23 -21 3 -21 3 0 42 c0 22 -3 45 -7 49 -13 13 -9 34 7 34 8 0 15 5 15 10 0 6 9 10 20 10 l20 0 0 -15z m-110 -140 l12 -15 -12 -15 c-25 -30 -61 -7 -46 30 3 8 12 15 19 15 8 0 20 -7 27 -15z m189 -19 c15 -18 3 -46 -20 -46 -22 0 -34 22 -25 45 7 19 30 19 45 1z m-209 -72 c33 6 44 -2 29 -21 -16 -19 -63 -16 -90 5 l-22 19 7 18 7 18 21 -22 21 -23 27 6z m250 -13 c0 -15 -42 -41 -66 -41 -33 0 -54 10 -54 26 l0 14 39 -6 38 -6 7 11 c9 13 36 15 36 2z"/>
<path d="M5923 2291 c-6 -24 -29 -30 -85 -24 l-44 5 -32 -27 -32 -27 0 -37 c0 -42 -23 -81 -48 -81 -9 0 -25 14 -34 30 l-17 30 -20 0 -20 0 -4 18 -5 17 -1 -17 c0 -9 -9 -19 -19 -22 -10 -3 -26 -20 -36 -37 l-18 -31 5 -35 c4 -20 14 -44 23 -54 l17 -19 32 0 31 0 17 -32 c33 -64 57 -103 57 -91 0 17 13 20 305 63 l275 41 18 -10 18 -9 1 16 c0 9 7 40 14 69 l13 51 29 6 28 6 15 35 14 35 -14 34 c-7 18 -27 42 -42 53 l-29 20 -25 -7 c-14 -3 -34 -20 -46 -37 l-21 -32 -12 12 c-6 6 -11 19 -11 30 0 10 -13 32 -29 48 l-29 29 -31 0 -30 0 -35 -30 -34 -30 -6 15 -5 15 -30 0 -29 0 -6 15 c-8 21 -27 19 -33 -4z m227 -196 l0 -15 -45 0 c-75 0 -54 22 28 29 l17 1 0 -15z m-272 -37 c-3 -7 -21 -14 -41 -16 l-37 -3 0 10 c0 10 22 18 58 20 l24 1 -4 -12z m302 -63 l0 -15 -39 0 -38 0 -27 -21 -26 -20 -6 16 c-4 9 -5 17 -3 19 2 1 15 10 29 19 l24 17 43 0 43 0 0 -15z m-252 -37 c7 -7 12 -15 12 -18 0 -4 -124 -5 -149 -1 -2 1 2 8 9 16 l12 15 52 0 52 0 12 -12z"/>
</g>
<g id="layer113" fill="#e57e8a" stroke="none">
<path d="M4661 4979 c-134 -107 -283 -253 -367 -360 l-60 -75 -34 -330 c-32 -306 -38 -403 -29 -495 l4 -37 30 27 c17 15 68 53 114 85 l83 59 -7 63 -6 63 19 43 c23 53 40 67 86 75 l35 5 5 -23 c3 -13 16 -113 30 -222 13 -109 26 -201 29 -204 5 -5 157 9 244 23 l31 5 4 89 3 90 31 31 31 30 40 6 41 5 37 -12 37 -12 19 -32 19 -31 0 -82 0 -83 9 0 c6 0 45 11 88 24 43 14 107 32 141 42 35 9 66 22 68 28 5 15 164 1242 164 1268 l0 11 -421 -6 -421 -7 12 15 c22 27 7 16 -109 -76z"/>
<path d="M5923 2291 c-6 -24 -29 -30 -85 -24 l-44 5 -32 -27 -32 -27 0 -37 c0 -42 -23 -81 -48 -81 -9 0 -25 14 -34 30 l-17 30 -20 0 -20 0 -4 18 -5 17 -1 -17 c0 -9 -9 -19 -19 -22 -10 -3 -26 -20 -36 -37 l-18 -31 5 -35 c4 -20 14 -44 23 -54 l17 -19 32 0 31 0 17 -32 c33 -64 57 -103 57 -91 0 17 13 20 305 63 l275 41 18 -10 18 -9 1 16 c0 9 7 40 14 69 l13 51 29 6 28 6 15 35 14 35 -14 34 c-7 18 -27 42 -42 53 l-29 20 -25 -7 c-14 -3 -34 -20 -46 -37 l-21 -32 -12 12 c-6 6 -11 19 -11 28 0 10 -10 30 -22 44 l-23 26 -36 5 -36 6 -35 -31 -36 -31 -6 15 -5 15 -30 0 -29 0 -6 15 c-8 21 -27 19 -33 -4z m227 -196 l0 -15 -45 0 c-75 0 -54 22 28 29 l17 1 0 -15z m-272 -37 c-3 -7 -21 -14 -41 -16 l-37 -3 0 10 c0 10 22 18 58 20 l24 1 -4 -12z m302 -63 l0 -15 -39 0 -38 0 -27 -21 -26 -20 -6 16 c-4 9 -5 17 -3 19 2 1 15 10 29 19 l24 17 43 0 43 0 0 -15z m-252 -37 c7 -7 12 -15 12 -18 0 -4 -124 -5 -149 -1 -2 1 2 8 9 16 l12 15 52 0 52 0 12 -12z"/>
<path d="M5681 1804 c-1 -21 27 -54 45 -54 5 0 28 -22 52 -50 24 -27 53 -55 65 -61 12 -7 2 6 -23 28 -25 23 -52 52 -59 67 -8 14 -22 26 -31 26 -20 0 -36 17 -43 45 l-5 20 -1 -21z"/>
<path d="M6253 1757 c-18 -38 -65 -89 -112 -119 -25 -15 -41 -28 -35 -28 37 0 181 147 162 166 -3 2 -9 -6 -15 -19z"/>
<path d="M5900 1610 c8 -5 22 -9 30 -9 l15 0 -20 9 c-27 12 -43 12 -25 0z"/>
</g>
<g id="layer114" fill="#a0c2d0" stroke="none">
<path d="M6918 5273 c-10 -2 -18 -7 -18 -10 0 -3 11 -73 25 -156 l26 -150 -12 -7 -11 -8 11 -3 11 -4 35 -213 c19 -117 35 -219 35 -227 l0 -15 -22 0 c-12 0 -18 -3 -15 -6 4 -4 32 -2 64 5 32 6 148 27 258 47 110 20 203 42 207 48 4 6 8 90 8 188 l0 176 -42 34 c-24 18 -47 38 -53 44 -22 26 -202 136 -324 198 -124 63 -144 69 -183 59z"/>
<path d="M6537 5259 c-49 -12 -118 -47 -251 -127 l-108 -67 4 -65 c3 -36 11 -77 19 -90 l14 -25 5 55 c3 30 9 55 15 55 5 0 18 -29 28 -65 l19 -65 4 -145 4 -145 106 -373 c59 -205 105 -374 102 -377 -2 -2 -126 39 -276 93 l-272 97 0 15 0 16 -55 27 -54 27 -24 -43 c-14 -23 -45 -79 -70 -125 l-46 -83 -6 -47 -6 -47 42 -24 43 -24 4 12 c2 6 8 11 13 11 5 0 184 -77 397 -172 l387 -172 142 -1 c78 0 144 3 147 6 4 3 -5 54 -19 112 -14 59 -25 109 -25 112 0 2 15 21 32 42 l33 38 -42 -37 -43 -38 -13 6 c-8 3 -63 57 -121 120 -59 63 -113 114 -119 114 -7 1 -24 20 -40 44 l-27 44 5 15 c4 8 65 70 138 137 73 68 135 129 139 135 16 26 8 126 -30 385 -86 582 -94 635 -96 637 -9 9 -67 10 -99 2z m124 -372 c-13 -13 -26 -3 -16 12 3 6 11 8 17 5 l10 -6 -11 -11z m39 -232 c0 -8 -4 -15 -10 -15 -5 0 -10 7 -10 15 0 8 5 15 10 15 6 0 10 -7 10 -15z m30 -205 c0 -5 -4 -10 -9 -10 -6 0 -13 5 -16 10 l-6 10 15 0 c9 0 16 -4 16 -10z"/>
<path d="M7926 4363 l-39 -36 -147 6 -147 5 -41 -96 -41 -97 -1 97 0 97 23 3 c12 2 -21 7 -73 11 -52 4 -150 13 -218 19 l-124 11 -37 -13 -38 -12 5 -27 5 -26 -19 15 c-10 8 13 -19 51 -60 39 -42 94 -101 124 -133 l53 -58 29 27 28 27 58 -26 58 -26 3 -24 3 -23 -98 -17 c-117 -21 -111 -21 -115 -2 l-3 14 -56 -54 c-31 -30 -55 -56 -53 -58 2 -1 10 -45 18 -96 l15 -93 26 -55 25 -55 0 -105 0 -104 80 7 81 7 58 -13 59 -12 38 12 c56 18 92 46 113 88 10 21 78 209 152 419 l134 383 16 0 15 0 11 53 c6 28 10 53 9 54 0 1 -19 -15 -40 -34z"/>
<path d="M6605 4010 l-27 -28 8 -15 c5 -8 61 -69 126 -135 l116 -120 28 29 28 29 -75 78 c-41 42 -98 102 -126 133 l-52 56 -26 -27z"/>
<path d="M7612 2895 c-7 -126 -15 -277 -19 -335 l-6 -105 109 0 108 0 208 -270 c115 -148 256 -333 314 -409 l106 -139 -7 -41 c-10 -58 -12 -205 -3 -199 5 2 11 -9 14 -26 l7 -31 13 0 c17 0 25 32 22 90 -2 45 16 154 33 199 l10 23 32 -4 c17 -3 39 -8 48 -12 l16 -7 -228 568 c-126 312 -239 588 -251 612 -13 23 -44 62 -69 85 l-47 42 -195 64 -196 64 -3 30 c-2 17 -9 -72 -16 -199z"/>
</g>
<g id="layer115" fill="#fabfb4" stroke="none">
<path d="M4424 4768 c-42 -46 -103 -115 -134 -154 l-56 -70 -34 -330 c-32 -306 -38 -403 -29 -495 l4 -36 46 41 c25 22 76 61 113 86 l67 45 -6 62 -6 62 19 43 c22 51 35 63 82 75 l35 10 -1 24 c-1 13 -19 165 -40 336 l-38 313 34 35 c19 19 31 35 28 35 -3 0 -41 -37 -84 -82z"/>
<path d="M4711 4264 l-21 -27 1 -103 1 -104 109 0 109 0 0 25 0 25 -52 2 -53 2 48 3 47 4 0 83 0 83 -18 16 -19 17 -66 0 -66 0 -20 -26z"/>
<path d="M6560 3771 l-35 -6 3 -20 c3 -19 38 -142 83 -297 l20 -68 92 1 c51 0 101 4 112 8 l20 8 -35 18 c-19 10 -36 19 -38 20 -4 3 -82 219 -82 227 0 3 7 8 16 10 l16 3 -51 53 c-53 53 -58 54 -121 43z"/>
<path d="M7612 2895 c-7 -126 -15 -277 -19 -335 l-6 -105 109 0 108 0 208 -270 c115 -148 256 -333 314 -409 l106 -139 -6 -41 c-4 -23 -9 -60 -12 -84 l-6 -43 18 -65 19 -64 12 0 c16 0 24 33 21 90 -2 45 16 154 33 199 l10 23 32 -4 c17 -3 39 -8 48 -12 l16 -7 -228 568 c-126 312 -239 588 -251 612 -13 23 -44 62 -69 85 l-47 42 -195 64 -196 64 -3 30 c-2 17 -9 -72 -16 -199z"/>
<path d="M4500 2555 c19 -19 36 -35 39 -35 3 0 -10 16 -29 35 -19 19 -36 35 -39 35 -3 0 10 -16 29 -35z"/>
<path d="M7107 2446 l-6 -16 62 2 62 2 -50 3 c-27 3 -52 9 -56 14 l-6 11 -6 -16z"/>
<path d="M7483 2443 c15 -2 37 -2 50 0 12 2 0 4 -28 4 -27 0 -38 -2 -22 -4z"/>
<path d="M4763 2433 c9 -2 23 -2 30 0 6 3 -1 5 -18 5 l-30 0 18 -5z"/>
<path d="M6054 2264 l-46 -49 5 -57 5 -56 -15 -21 -14 -21 -22 0 c-12 0 -28 4 -35 8 -14 10 -32 65 -32 102 l0 25 -22 10 -23 10 0 25 0 25 -31 3 -31 3 -32 -26 -31 -27 0 -37 c0 -42 -23 -81 -48 -81 -9 0 -25 14 -34 30 l-17 30 -20 0 -20 0 -4 18 -5 17 -1 -17 c0 -9 -9 -19 -19 -22 -10 -3 -26 -20 -36 -37 l-18 -31 5 -35 c4 -20 14 -44 23 -54 l17 -19 31 0 31 -1 34 -59 34 -59 21 13 c11 7 144 31 294 52 l272 39 18 -11 18 -11 1 16 c0 9 7 39 14 68 l13 51 29 6 28 6 15 35 14 35 -14 34 c-7 18 -27 42 -42 53 l-29 20 -25 -7 c-14 -3 -34 -20 -46 -37 l-21 -32 -12 12 c-6 6 -11 19 -11 28 0 10 -10 30 -22 44 l-23 26 -38 6 -38 6 -45 -49z m96 -169 l0 -15 -45 0 c-75 0 -54 22 28 29 l17 1 0 -15z m-272 -37 c-3 -7 -21 -14 -41 -16 l-37 -3 0 10 c0 10 22 18 58 20 l24 1 -4 -12z m302 -63 l0 -15 -39 0 -38 0 -27 -21 -26 -20 -6 16 c-4 9 -5 17 -3 19 2 1 15 10 29 19 l24 17 43 0 43 0 0 -15z m-252 -37 c7 -7 12 -15 12 -18 0 -4 -124 -5 -149 -1 -2 1 2 8 9 16 l12 15 52 0 52 0 12 -12z"/>
<path d="M6251 1753 l-11 -28 15 19 c8 11 15 23 15 28 0 15 -7 8 -19 -19z"/>
<path d="M5720 1753 c8 -3 22 -11 30 -17 l15 -11 -14 18 c-7 9 -21 17 -30 16 l-16 -1 15 -5z"/>
<path d="M6120 1625 c-14 -8 -20 -14 -14 -15 5 0 19 7 30 15 24 18 16 19 -16 0z"/>
<path d="M8727 1431 l-5 -19 36 -26 c34 -24 52 -26 52 -5 0 11 -32 42 -61 59 l-17 10 -5 -19z"/>
<path d="M8684 1323 l-10 -28 27 -22 c31 -27 39 -28 39 -8 0 18 -31 85 -40 85 -3 0 -10 -12 -16 -27z"/>
<path d="M8647 1233 c-2 -10 -8 -26 -12 -35 l-7 -18 16 0 16 0 0 35 c0 38 -5 45 -13 18z"/>
</g>
<g id="layer116" fill="#bfd9e5" stroke="none">
<path d="M6985 5259 c-5 -13 90 -650 110 -745 l5 -21 32 3 c18 2 44 7 58 10 14 4 39 8 55 10 17 2 41 7 55 10 14 4 36 8 50 10 73 9 156 28 162 38 4 6 8 91 8 188 l0 177 -47 35 c-27 19 -57 43 -68 53 -11 10 -24 17 -28 15 -4 -1 -10 5 -13 13 -3 8 -10 12 -15 9 -5 -3 -12 2 -15 10 -3 9 -10 13 -15 10 -5 -3 -12 2 -15 10 -3 9 -15 16 -25 16 -11 0 -22 7 -25 15 -4 8 -10 12 -15 10 -4 -3 -17 3 -29 15 -11 11 -24 20 -29 20 -16 0 -175 82 -183 94 l-7 10 -6 -15z"/>
<path d="M6480 5237 c-30 -13 -81 -38 -112 -57 -32 -19 -86 -52 -121 -73 l-63 -38 -2 -42 c-2 -47 15 -124 31 -134 l10 -6 -5 52 -5 53 14 5 c8 3 19 0 23 -7 16 -26 45 -210 42 -270 0 -14 -1 -52 -2 -85 l-1 -60 107 -370 c59 -203 109 -382 112 -397 l4 -28 22 1 c11 1 34 4 50 8 l29 6 -27 33 c-15 17 -36 32 -47 32 l-19 0 0 19 c0 10 -7 24 -15 31 -8 6 -17 21 -20 31 l-7 20 13 15 13 16 -3 42 -2 42 14 13 c8 6 42 16 75 22 l60 11 37 38 38 39 -74 528 -74 528 -20 2 c-11 2 -45 -7 -75 -20z"/>
<path d="M6936 4943 c6 -4 14 -15 17 -23 l7 -15 -3 19 c-1 11 -9 21 -17 23 l-15 5 11 -9z"/>
<path d="M7020 4497 l0 -16 -22 -4 -23 -4 23 -2 23 -1 6 15 c3 9 3 19 -1 22 -3 4 -6 -1 -6 -10z"/>
<path d="M7931 4366 c-19 -19 -45 -38 -60 -41 l-26 -7 35 -13 c19 -8 42 -14 51 -14 l15 -1 11 53 c6 28 10 53 9 54 -1 2 -17 -13 -35 -31z"/>
<path d="M7120 4372 c0 -6 5 -46 11 -89 l12 -78 33 -37 33 -37 -1 35 c-1 19 4 40 9 45 15 15 142 41 164 34 10 -3 21 -15 25 -27 8 -28 42 -192 40 -195 -2 -2 -40 -10 -87 -18 -46 -9 -94 -18 -106 -20 l-23 -5 0 22 0 21 -25 -23 -25 -24 6 -35 c4 -20 8 -37 9 -39 2 -3 154 22 270 44 l30 6 -10 -10 c-5 -5 -72 -20 -147 -32 l-138 -23 0 -22 c0 -20 15 -113 26 -164 l5 -23 36 7 36 6 -6 -23 c-3 -13 -11 -67 -18 -121 l-12 -98 -23 -16 c-13 -8 -24 -18 -24 -22 0 -8 260 -5 267 3 5 5 22 655 22 823 l0 101 23 4 c20 4 -24 8 -232 23 -25 2 -75 6 -112 10 l-68 8 0 -11z"/>
<path d="M7034 4312 c23 -26 26 -27 26 -5 0 9 -3 13 -7 10 -3 -4 -13 -1 -22 5 l-16 13 19 -23z"/>
<path d="M5829 4077 c-6 -12 -23 -44 -39 -72 -59 -100 -88 -164 -94 -207 l-6 -43 41 -23 c22 -13 41 -22 42 -20 1 2 8 14 16 28 65 113 161 291 161 298 0 4 -25 20 -56 34 l-55 26 -10 -21z"/>
<path d="M6604 4009 l-27 -28 71 -78 c39 -43 96 -103 126 -133 l56 -54 27 27 28 27 -76 77 c-41 43 -98 103 -126 134 l-52 56 -27 -28z"/>
<path d="M6560 3771 l-35 -6 3 -20 c3 -19 38 -142 83 -298 l20 -67 92 1 c51 1 101 5 112 9 l20 7 -35 18 c-19 10 -36 19 -38 20 -4 3 -82 219 -82 227 0 3 7 8 16 10 l16 3 -51 53 c-53 53 -58 54 -121 43z"/>
<path d="M7453 3393 c9 -2 25 -2 35 0 9 3 1 5 -18 5 -19 0 -27 -2 -17 -5z"/>
<path d="M7252 3253 c18 -28 35 -49 37 -47 5 4 -37 70 -54 84 -9 7 -1 -10 17 -37z"/>
</g>
<g id="layer117" fill="#e0d9d7" stroke="none">
<path d="M5883 5453 c9 -2 23 -2 30 0 6 3 -1 5 -18 5 l-30 0 18 -5z"/>
<path d="M4404 4748 l-29 -33 33 29 c30 28 37 36 29 36 -2 0 -16 -15 -33 -32z"/>
<path d="M4222 4425 l0 -30 5 18 c2 9 2 23 0 30 -3 6 -5 -1 -5 -18z"/>
<path d="M4212 4325 l0 -30 5 18 c2 9 2 23 0 30 -3 6 -5 -1 -5 -18z"/>
<path d="M4202 4225 l0 -30 5 18 c2 9 2 23 0 30 -3 6 -5 -1 -5 -18z"/>
<path d="M6774 4168 l-29 -33 33 29 c17 17 32 31 32 33 0 8 -8 1 -36 -29z"/>
<path d="M7157 4110 c11 -14 23 -34 26 -45 l5 -20 1 21 1 21 -27 24 -28 24 22 -25z"/>
<path d="M4690 4055 l0 -25 110 0 110 0 0 25 0 25 -110 0 -110 0 0 -25z"/>
<path d="M6605 4008 l-26 -29 122 -129 c67 -72 125 -130 129 -130 3 0 17 11 30 25 l24 26 -75 77 c-41 42 -98 102 -126 133 l-52 57 -26 -30z"/>
<path d="M7014 3898 l-29 -33 33 29 c17 17 32 31 32 33 0 8 -8 1 -36 -29z"/>
<path d="M7035 3838 l-60 -63 63 60 c58 55 67 65 59 65 -1 0 -29 -28 -62 -62z"/>
<path d="M6849 3663 l-24 -28 28 24 c25 23 32 31 24 31 -2 0 -14 -12 -28 -27z"/>
<path d="M3869 3463 l-24 -28 28 24 c25 23 32 31 24 31 -2 0 -14 -12 -28 -27z"/>
<path d="M7233 3403 c9 -2 23 -2 30 0 6 3 -1 5 -18 5 l-30 0 18 -5z"/>
<path d="M7250 3268 c0 -4 9 -22 20 -40 11 -18 20 -28 20 -23 0 6 -9 24 -20 40 -11 17 -20 27 -20 23z"/>
<path d="M3792 2885 l0 -30 5 18 c2 9 2 23 0 30 -3 6 -5 -1 -5 -18z"/>
<path d="M3782 2765 l0 -30 5 18 c2 9 2 23 0 30 -3 6 -5 -1 -5 -18z"/>
<path d="M3840 2488 c0 -4 14 -8 30 -8 17 0 30 2 30 4 0 2 -13 6 -30 8 -16 3 -30 1 -30 -4z"/>
<path d="M4580 2495 c0 -7 61 -37 66 -33 2 3 -12 12 -31 21 -19 9 -35 15 -35 12z"/>
<path d="M3483 2483 c20 -2 54 -2 75 0 20 2 3 4 -38 4 -41 0 -58 -2 -37 -4z"/>
<path d="M4203 2483 c4 -3 1 -13 -6 -22 l-12 -16 18 14 c20 15 22 31 5 31 -6 0 -8 -3 -5 -7z"/>
<path d="M7765 2463 c17 -3 37 -10 45 -16 l15 -12 -14 18 -13 17 -32 -1 -31 -2 30 -4z"/>
<path d="M4114 2368 l-29 -33 33 29 c30 28 37 36 29 36 -2 0 -16 -15 -33 -32z"/>
<path d="M3269 2333 l-24 -28 28 24 c25 23 32 31 24 31 -2 0 -14 -12 -28 -27z"/>
<path d="M4014 2258 l-29 -33 33 29 c17 17 32 31 32 33 0 8 -8 1 -36 -29z"/>
<path d="M3978 1990 c-2 -127 0 -230 5 -230 4 0 7 104 7 230 0 127 -2 230 -5 230 -2 0 -6 -104 -7 -230z"/>
<path d="M3290 1995 l0 -185 40 0 39 0 3 185 3 185 -42 0 -43 0 0 -185z"/>
<path d="M5512 2070 c0 -19 2 -27 5 -17 2 9 2 25 0 35 -3 9 -5 1 -5 -18z"/>
<path d="M8671 1297 c2 -1 15 -11 29 -22 l25 -20 -19 23 c-11 12 -24 22 -29 22 -6 0 -8 -1 -6 -3z"/>
</g>


</svg>